<?xml version="1.0" encoding="UTF-8"?>
<svg id="Layer_1" data-name="Layer 1" xmlns="http://www.w3.org/2000/svg" viewBox="0 0 186.39 253.93">
  <defs>
    <style>
      .cls-1 {
        fill: #3171a0;
      }

      .cls-2 {
        fill: #feb66c;
      }

      .cls-3 {
        fill: #2f3630;
      }
    </style>
  </defs>
  <path class="cls-3" d="M148.56,95.78c-.06,0-.12,0-.18,0l.18-.18v.18Z"/>
  <path class="cls-3" d="M80.81,3.57c5.08-5.09,12.76-4.01,18.8-1.26,2.15.98,4.19,2.86,6.46,3.09,11,1.12,18.87,4.16,26.16,12.77,3.05,3.6,3.02,5.56,4.51,9.64,1.74,4.79,7.62,5.63,11.28,8.37,4.22,3.17,7.23,9.35,5.66,14.63-.29.96-1.06,2.01-1.06,2.99,0,1.73,2.04,5.93,3.23,7.26,1.54,1.72,4.55,3.49,6.89,2.94l-1.65,1.75c-3.26,2.72-7.36.62-10.28-1.56.76,2.66,1.82,4.91,3.85,6.8.02.02-.05.23.04.32.05.05,1.12.62,1.26.68.37.15.87.03,1.1.18.21.13.26.8.14.99-.2.32-3.8,1.3-4.44.98-.26.07-.27.31-.31.34-.03.02.03.15,0,.18-.04.04-.34-.04-.37,0-.16.21.38.63.47.91.79,2.38.72,5.87-.25,8.22-.76,1.83-2.73,3.88-3.5,5.72-.1.23-.69,2.01-.72,2.2-.1.63.5,1.96.94,2.39.09.09.29.02.32.05.06.06.12.13.18.18l.55,1.1c-.45-.12-1.09.24-1.47.19-.02,0-.08-.21-.23-.23-1.27-.17-1.91-.59-3.08-1.06-.26-.22-.34-.32-.55-.55v-.37s-.18.18-.18.18c-.4-.48-.74-.87-1.07-1.41-.13-.22-.47-1.47-.77-1.16-.09.09-.42,1.9-.65,2.39-1.2,2.64-6.43,6.21-6.69,8-.18,1.2.43,3.02,1.69,3.43l1.42.32c-3.86,1.64-8.12.7-9.64-3.49-.35.17-2.62,5.16-2.67,5.79-.14,1.89,1.97,2.85,2.03,3.15.19.85-.75.91-1.39.98-2.53.26-5.44-.89-6.32-3.42-.03-.55-.16-.09-.2-.07-.17.07-.25-.18-.38.26-.23.76-.28,1.74-.39,2.54-.59,3.94-.31,8.53,1.19,12.3.41,1.04.91,2.03,1.61,2.71.62.61.99,1.38,1.56,2.02,3.95,4.41,9.04,5.62,14.18,7.86,1.71.75,3.34,1.73,5.07,2.45,10.13,4.24,22.88,7.42,30.24,15.95l-.18.09c.07.52.5.42.55.46.07.06.12.12.18.18l1.91,3.14c4.57,8.84,5.67,18.6,7.12,28.33.1.69.17,1.54.52,2.14,0,.06,0,.12,0,.18.39,3.19.99,6.07,1.7,9.22.57,2.53,1.55,4.27.27,6.99-.49,1.05-3.68,4.45-4.6,4.86-.54.24-.57-.27-.68.42-1.31.66-2.62,1.36-4,1.88-.33,1.2-.59,2.42-.88,3.63-.09.38-.15.57.29.73-.01.06.01.13,0,.18-.65-.06-.46-.05-.58.42-.23.91-.22,1.95-.42,2.89-.23,1.06-.71,2.24-.96,3.26-2.39,9.56-5.04,19.09-7.89,28.29-.24.76-.15,1.75-.79,2.43h-3.31v-.18c.45.09.39-.21.5-.5,1.53-3.96,2.6-8.83,3.77-12.95,1.59-5.55,3.58-11.47,4.78-17.08.06-.27.29-.71-.06-.89.31-1.22.63-2.45.92-3.67.52.11.35-.25.42-.58.23-1,.21-1.83.31-2.54.02-.11,0-.25,0-.37.48.1.38-.24.45-.55.89-3.54,1.72-7.72,2.27-11.33.26-1.71.72-3.8.21-5.44-.07-.22-.34-.1-.36-.13s.07-.26-.13-.36c-1.51-.75-6.44-1.31-8.25-1.4-6.02-.32-17.02,1.37-22.7,3.65-.29.11-.59.05-.5.5-2.23.72-6.16,1.92-7.95,3.34-.94.74-.73,1.19-1.04,2.17-.51-.34-.29-.17-.42.22-1.93,6.03-2.99,12.63-4.52,18.81-1.61,6.51-3.85,13.27-5.23,19.75-.06.27-.29.71.06.89-.8,2.87-1.63,5.75-2.39,8.63H28.47v-.18c-.06-4.52-1.35-8.72-2.39-13.04-.46-1.91-1.06-3.77-1.47-5.69.33-.18.18-.67.14-.96-1.07-7.16-1.65-11.81-.05-19.07.83-3.76,2.49-8.05,3.03-11.75,0-.06,0-.12,0-.18.68.06.29-.23.18-.55-.06-.18-.07-.38-.18-.55-.3-.44-.63-.58-1.01-.91l-.09.18c-3.23-2.24-7.38-5.61-10.71-7.38-.17-.09-.73-.43-.86-.34-.11.29-.11.65-.19.92-.45-.09-.4.2-.49.51-4.09,12.89-6.62,29.05-8.69,42.48,0,.06,0,.12,0,.18-.24.3-.44.87-.51,1.24-.15.89-.14,2.01-.27,2.84-.64,4.09-1.66,8.11-1.8,12.27H.01c.03-.85-.04-1.72,0-2.57.59.1.32-.3.36-.64,1.61-12.69,4.31-26.25,7.04-38.88,1.33-6.13,3.42-11.96,4.85-17.93.1-.42.48-2.05.43-2.32-.04-.22-.28-.05-.38-.1-.12-.06-.12-.11-.18-.18-.03-.04.08-.25-.11-.38-.34-.24-2.2-.54-2.28-.85-.04-.16-.16-1.26-.14-1.4.09-.65,1-2.69,1.26-3.53.07-.24.35-.67,0-.83,3.94-11.1,7.71-23.95,16.89-31.78.07.35.52-.11.64-.19,1.08-.77,2.41-2.14,3.54-2.75.31-.17,1.62-.52,1.68-.58.08-.08,0-.27.02-.34,2.92-1.3,5.62-2.51,8.74-3.48,4.95-1.53,11.09-2.28,16.01-4.36.33-.14.61-.13.59-.61,3.14-1.16,5.91-2.42,8.63-4.41.09.38.43-.07.53-.15.25-.19,1.53-1.06,1.58-1.14.56-.9.07-1.91-.05-2.7-.42-2.7-1.31-5.07-1.98-7.75-.61-2.44-.68-4.53-2.38-6.62-.29-.36-.95-.7-1-.74-.8-.62-1.9-2.03-2.57-2.85-4.75-5.85-8.29-13.14-8.29-20.82-3.64-1.16-5.97-3.59-7.14-7.19.35-.18.12-.62.06-.89-.83-3.85-2.79-12.48-2.43-16.08.11-1.13.66-2.17.73-3.31-1.24-.78-2.25.03-3.32.26-.5.11-2.72.55-2.37-.44.08-.23.48-.29.63-.48.06-.08-.1-.17-.09-.18.34-.37.53-.47.92-.73.01,0,.09.17.27.03,2.58-1.99,1.14-5.02,1.18-7.46.01-.77.85-2.35.34-2.81-.09-.08-.29,0-.32-.03-.16-.14-.27-.28-.37-.37-.18-.23-.24-.71-.41-.88-.09-.09-.3-.01-.32-.04-.06-.06-.12-.12-.18-.18-.25-.76-.82-1.36-1.11-2.1-.22-.55.06-1.62-.72-1.02-4.05-11.94,3.4-16.19,10.93-22.78.13-.12.84-.29.34-.55-.89-.45-1.88-.34-2.91-1.1-.52-.38-2.3-2.5-2.3-3.03v-3.21c.51.38.69,1.05,1.11,1.56,1.41,1.72,4.74,3.03,6.21.71.46-.72.61-1.7,1-2.49.87-1.75,1.87-3.22,3.44-4.37l1.79-.69c.24-.53,1.88-.91,2.03-1.19.27-.48.06-2.19.24-2.97.2-.83.76-1.71,1.08-2.5.14-.16.22-.23.37-.37,1.8-.82,4.3-2.18,6.34-2.2,3.68-.04,4.52.49,7.77,1.6.26.09,2.02.61,2.14.6.88-.05.82-.72,1.14-1.08.43-.47.97-1.1,1.35-1.49ZM111.65,16.43c-.16.17-1.82-1.19-2.02-1.37-1.51-1.34-2.64-3.09-4.12-4.51-4.61-4.43-12.57-8.6-19.05-6.56-2.15.68-4.53,2.44-5.1,4.72,6.23-2.47,14.1,1.63,18.17,6.34,5.87,6.79,6.23,16.85,12.03,23.6,4.67,5.44,11.59,7.38,15.25,13.95,3,5.4,2.08,11.68,6.14,16.45,2.95,3.46,8.12,5.47,9.64,10.01.38,1.15.33,2.36.74,3.48.71-.89.95-2.78,1.02-3.94.28-4.97-2.52-6.89-5.12-10.51-4.85-6.75-5.34-13.92-9.55-20.94-5.56-9.27-18.62-14.18-20.92-25.18-.08-.38-.05-.77-.04-1.15,2.3,1.57,3.75,4.05,5.6,6.06,4.84,5.29,10.7,9.33,15.52,14.6,5.92,6.47,11.27,14.03,11.01,23.24,1.11-.1,1.84-2.33,1.97-3.26.6-4.47-.75-9.52-3.18-13.25l-2.83-4.06c2.7-.04,5.38,2.07,7.07,4.04,2.05,2.39,3.07,5.15,3.77,8.18.24,1.07.69-.89.73-1.29.46-4.93-1.61-8.87-5.04-12.22-.69-.67-2.62-2-3.04-2.65-.14-.23-.23-.36-.17-.65,3.33.23,6.41,2.31,8.72,4.59.31-2.09-1.72-4.17-3.23-5.4-4.1-3.34-7.95-2.48-10.91-8.01-2.73-5.1-2.87-8.13-7.61-12.41-5.16-4.64-11.79-7.92-18.73-8.72.56,1.28,1.53,2.35,2.15,3.63.17.36,1.27,3.04,1.15,3.16ZM76.4,10.91c-1.66-4.71-10.34-5.43-13.13-1.84-.14.19-1.35,2.07-.55,1.84.56-.16,1.4-.77,2.12-1,4.19-1.33,7.47.64,11.56,1ZM132.22,78.51c-.4-2.22-2.72-3.25-3.94-4.97-2.84-4-2.25-10-3.28-14.72-2.63-12-10.6-10.71-17.3-18.15-5.78-6.41-6.26-20.54-12.7-25.13-2.52-1.8-7.89-4.31-10.98-4.07-1.46.11-3.58,1.01-3.95,2.57,3.23-.82,5.84-.2,8.5,1.69,3.85,2.73,4.55,6.72,6.34,10.74,2.19,4.92,4.54,9.12,8.2,13.1,5.65,6.15,13.04,9.45,16.26,17.9,2.36,6.19,1.57,14.09,7.06,18.65.73.6,5.08,3.06,5.79,2.38ZM75.48,15.87c-2.61-2.87-8.06-3.11-11.53-1.88-3.25,1.15-7.08,4.94-8.11,8.23-.71,2.29-.2,3.34-2.34,5.01-4.44,3.47-11.93,6.15-13.2,12.51-.76,3.78.72,10.59,5.09,11.64.32.08,1.69.24,1.8.12.04-.05.14-1.18.1-1.28-.07-.18-1.33-1.11-1.66-1.47-5.34-5.88-1.41-13,4.56-16.38.5-.28,2.83-1.54,3.2-1.59.24-.04.54.01.6.25.2.71-3.34,3.78-3.95,4.49-2.47,2.9-3.76,6.46-2.76,10.3.19.73,1.31,2.56,2.11,2.29,1.76-.59.47-1.64.27-2.47-.55-2.35,2.59-6.3,4.05-8.1,2.88-3.56,6.88-7.91,10.1-11.2,1.69-1.73,3.75-3.36,6.27-3.65,1.64-.19,3.32.59,4.2-1.3.44-.93.36-1.21-.59-1.62-4.61-1.95-10.13.57-14.01,3.08.2-2.56,2.8-4.82,4.95-5.97,3.15-1.69,7.37-1.2,10.84-1.01ZM78.6,25.43c-.47.47-1.61.16-2.1.18-2.69.07-6.01,1.01-8.59,1.9-.3.1-.6.03-.51.49-.18.07-.41.12-.55.18-.49.21-.86.6-1.28,1.01l.18.09c-2.08,2.2-4.05,5.09-5.88,7.53-.05.07-.39.08-.5.23-1.57,2.11-3.03,12.65-3.38,15.82-.62,5.54-1.03,10.86-1.54,16.46-.89,9.74.83,23.3,3.68,32.7.09.3-.04.65.45.55.01.06-.01.13,0,.18.09.39-.17.93.55.92,2.52,5.68,6.24,8.94,10.47,13.23.48.49,1,1.15,1.59,1.63.26.21.42.39.8.39.06.06.12.12.18.18,5.24,5.35,15.63,4.05,22.19,1.9l1.5-.98c.06,0,.12,0,.18,0,.07,0,.3.25.73.11.38-.12,2.12-1.09,2.2-1.58,6.6-3.24,10.5-7.03,15.06-12.67.84-1.04.89-1.2,1.47-2.57.06-.14.14-.26.18-.37.78-1.01,1.3-2.48,1.71-3.71,1.91-5.75,4.2-15.22,4.7-21.2.04-.51.17-1.12-.16-1.54-.05-.06-.12-.13-.18-.18l-2.57-3.63c-.55-1.3-1.18-2.58-1.82-3.84-.14-.28-.02-.66-.57-.62-1.18-2.59-2.15-5.3-3.31-7.9.22-.37-.31-1.64-.5-1.98s-.39-.2-.42-.23c-.02-.02.04-.23-.06-.3-.54-.41-1.34-.65-1.96-.8-.06-.01-.13.01-.18,0,.11-.53-.26-.34-.58-.42-5.76-1.5-10.84.72-16.39.57-.28,0-.52-.26-.66.22-1.11-.51-.72-1.48-.55-2.39.45-.36,1.12-.71,1.65-.92.63.38,1.62-.19,2.15-.3,3.5-.73,7.85-.87,11.39-.3,1.01.16,2.16.48,3.09.58.45.05.46-.41-.11-.35-.54-1.31-1.44-3.67-2.39-4.68-1.33-1.43-4.6-3.23-6.33-4.69-.72-.61-4.11-4.19-4.42-4.22-.24-.02-.51.17-.73.15-4.76-.44-8.11-3.8-9.6-8.18-.33-.97-.95-5.27-1.14-5.47-.97-.99-4.83-1.6-6.25-1.93-.59-1.61-.7.52-.92.73ZM95.31,37.37c-1.67-3.97-3.78-7.9-6.79-11.02.25,4.55,2.39,9.22,6.79,11.02ZM149.02,44.35v.18c.12-.06.12-.12,0-.18ZM47.94,66.39s-.23-.05-.32.04c-.26.25,0,.74-.79.81.07,1.27-.66,2.36-.54,3.66.23,2.63,1.48,5.7,1.97,8.29.34,1.8.31,4.06.81,6.02.08.3.29.93.72.84.02.06-.02.13,0,.18.09.26.08.5.29.75.16.2.25-.03.27-.02.46.37.89.78,1.41,1.07.21.12.75.46.98.22.39-.41-.08-.81-.14-1.24-.18-1.24-.22-2.78-.46-3.95-.3-1.52-1.46-2.44-1.59-4.48-.1-1.64.71-2.75.73-3.83,0-.32-.47-2.7-.59-2.83-.07-.08-.27,0-.34-.02-.04-.01-.12,0-.18,0-.03,0-.02-.25-.19-.11-.18.16-.14.42-.18.47-.05.07-.15.13-.18.18-.13.23-.09.11-.18.37-.22.62-.27,1.1-.42,1.7-.05.18-.06.55-.31.51.05-1.93-.56-3.76.73-5.43.14-.19.55-.22.56-.37.06-.67-.96-2.49-.74-3.38-.11-.13-1.08.43-1.28.55ZM124.69,82.55c-.02.06.02.13,0,.18-.5-.11-.35.25-.46.55-.63,1.8-1.55,4.65-1.58,6.52,0,.38-.08.86.38,1.01,0,.06,0,.12,0,.18.28,2.02,2.61,1.09,3.67.18.14-.12.58-.57.73-.73.35-.37.83-.64.87-1.2l-.14-.08c.48-.86,2.74-6.77,2.39-7.16-.06-.06-1.49-.4-1.65-.29-.38.24-1.69,5.06-3.1,3.3-1-1.25.17-2.71.53-3.93l.73-.64c-.35-.56-.63-.5-1.1-.64-.05-.02-.12.01-.18,0-.02,0-.15-.26-.37-.18-.38.94-.48,2.01-.74,2.94ZM119.18,128.66l-.28-1.46c-2.93-4.74-2.36-10.61-2.67-16.26-.03-.49.45-1.6-.16-2.03-.73-.51-.51.44-.72.73-.14.19-.44.06-.54.13-.05.03-.05.62-.32,1.06-.42.68-1.31,1.08-1.36,1.86-.12.11-.24.25-.37.37-.78.74-1.26,1.17-2.02,2.02-.06.06-.13.12-.18.18-.52,0-.65.46-.92.73-.06.06-.13.12-.18.18-.74-.06-.66.48-.73.55-.06.06-.12.12-.18.18-.39-.12-.9.32-.92.73-.05.03-.14-.03-.18,0-.17.1-.4.12-.58.2l-1.63,1.27c-.14.08-.27.13-.37.18-.7-.13-.94.37-1.24.54-1.17.67-2.38,1.25-3.35,2.21-.05.02-.13-.02-.18,0-.27.12-.39.28-.55.37-.1.06-.12.19-.37.18l-.18-.18c-.03.11.03.31,0,.37-.01.02-.12-.02-.18,0-2.98.75-5.86,2.02-8.96,2.52-2.26.37-8.31.74-10.38.23-.36-.09-.09-.1-.93-.2-2.89-.33-4.44-1.53-6.91-2.56-.38-.16-.76-.37-.92-.18s-.17.16-.2.45c-.07.99.93,3.84,1.19,5.1.73,3.62,1.29,7.46,2.26,11.14.08.32-.11.69.42.58,0,.06,0,.12,0,.18.25,2.55.58,6.3.37,8.92-.03.39-.13,1.81-.74,1.74-.07-.05-.13-.12-.18-.18-1.55-4.33-1.77-9.01-2.94-13.41-.33-.07-.12.29-.18.37-.18.21-.67.54-.92.73-.03.02-.23,0-.38.09-.22.14.03.26.02.28-1.06,1.37-2.37,2.59-3.49,4.04-.01.02-.23-.07-.38.12-.43.54-.92,2.12-1.09,2.82-.01.06.01.13,0,.18-.34.12-.38.43-.46.73-.68,2.43-.48,4.85.34,7.21.1.3.03.6.49.51.06.18.12.38.18.55.5,1.31.58,1.36,1.47,2.39.09.11.23.1.37.37.04.07-.03.26,0,.37.1,0,.17-.19.18-.19.13.03,1.71,1.39,2.11,1.66,1.07.7,2.26,1.26,3.4,1.83,1.81.91,2.34,1.14,4.41,1.47.06,0,.12,0,.18,0,.13.02.38.14.73.18.06,0,.12,0,.18,0,.21.24.55.3.85.36,4.2.88,12.27-.43,16.34-1.98.33-.13.64-.05.62-.58,11.69-3.99,20.64-12.43,30.03-20.02.63-.51,4.37-3.15,4.49-3.4.14-.29-.13-.25-.23-.31-4.05-2.39-8.31-4.07-10.97-8.23ZM150.95,153.64c-2.06.31-4.14,1.86-5.69,3.21-6.6,5.75-10.25,15.37-12.06,23.75-1.08,5-1.52,9.99-1.71,15.1.48.04.31.03.36-.28,1.43-7.81,3.26-15.31,6.11-22.73s6.58-14.4,12.99-19.06ZM29.21,198.82c.44.07.49-.29.61-.59,2.12-5.36,2.67-14.49,3.65-20.41.74-4.46,1.76-8.87,2.35-13.35l-1.84,4.86c-2.2,7.15-3.86,14.58-4.58,22.05-.09.98-.55,7.1-.18,7.44Z"/>
  <path class="cls-3" d="M41.51,66.02c-.06.01-.13-.01-.18,0v-.18l.18.18Z"/>
  <path class="cls-2" d="M174.82,197.72c.53,2.94-.27,6.11-.79,9.03-.44,2.45-1.65,6.17-1.78,8.42,0,.12.02.25,0,.37-.32,1.02-.49,2.09-.73,3.12-.29,1.22-.6,2.45-.92,3.67-2.71,10.54-5.93,20.97-9,31.41v.18h-39.85c.76-2.89,1.59-5.76,2.39-8.63,1.71-6.13,3.41-12.29,4.94-18.47,1.74-6.98,3-14.39,5.16-21.2.31-.98.1-1.43,1.04-2.17,1.8-1.42,5.72-2.62,7.95-3.34,8.27-2.65,18.2-4.68,26.88-3.47,1.6.22,3.17.62,4.71,1.08Z"/>
  <path class="cls-2" d="M26.64,201.21c.36.25.67.59,1.1.73.11.17.12.37.18.55-.1.17-.16.35-.18.55,0,.06,0,.12,0,.18-.43.53-.64,1.37-.83,2.02-1.4,4.85-2.93,10.63-3.58,15.61-.26,2.02-.27,4.27-.18,6.35.01.35-.19.74.37.63.1,2.41.6,4.81,1.1,7.16.41,1.93,1.01,3.79,1.47,5.69l2.39,13.04v.18H3.32c.67-5.39,1.7-10.75,2.52-16.11.02-.14-.14-.23-.14-.24,0-.06,0-.12,0-.18.34-.19.3-.51.36-.83,2.85-14.12,4.7-28.29,8.82-42.15.08-.27.08-.63.19-.92.13-.1.68.25.86.34,3.33,1.77,7.48,5.14,10.71,7.38Z"/>
  <path class="cls-3" d="M175.56,216.64c-2.65,12.59-6.75,24.88-10.1,37.29h-.55c.64-.68.55-1.66.79-2.43,2.85-9.2,5.5-18.73,7.89-28.29.26-1.02.73-2.2.96-3.26.21-.94.19-1.98.42-2.89.12-.47-.08-.48.58-.42Z"/>
  <path class="cls-3" d="M3.32,253.93h-.18c.14-4.16,1.16-8.18,1.8-12.27.13-.83.12-1.95.27-2.84.06-.37.27-.93.51-1.24,0,.01.16.1.14.24-.82,5.35-1.86,10.71-2.52,16.11Z"/>
  <path class="cls-3" d="M12.32,191.48c.1.05.33-.12.38.1.05.27-.33,1.91-.43,2.32-1.42,5.97-3.52,11.8-4.85,17.93-2.74,12.63-5.44,26.2-7.04,38.88-.04.34.23.75-.36.64.02-.36-.03-.74,0-1.1.42-4.58,1.62-10.46,2.44-15.1,1.95-11,4.24-22.87,7.16-33.62.91-3.35,2.33-6.59,2.7-10.06Z"/>
  <path class="cls-3" d="M183.45,188.54c-.35-.6-.42-1.45-.52-2.14-1.45-9.73-2.54-19.5-7.12-28.33l-1.91-3.14c6.31,6.18,8.5,25.06,9.55,33.61Z"/>
  <path class="cls-3" d="M58.96,140.23c.02.48-.26.47-.59.61-4.92,2.08-11.06,2.83-16.01,4.36-3.12.97-5.82,2.18-8.74,3.48-.03.08.06.26-.02.34-.06.06-1.37.41-1.68.58-1.13.61-2.46,1.97-3.54,2.75-.12.09-.56.54-.64.19,2.1-1.79,3.36-2.73,5.88-3.86.03-.09-.09-.31.11-.38,7.9-4.15,16.93-5.01,25.23-8.07Z"/>
  <path class="cls-3" d="M39.49,64.74s.16.1.09.18c-.15.18-.55.25-.63.48-.34,1,1.87.55,2.37.44v.18c-.7.16-2.58.92-2.72-.31-.07-.66.26-.92.88-.97Z"/>
  <path class="cls-3" d="M41.33,65.84c1.07-.23,2.08-1.04,3.32-.26-.07,1.14-.61,2.18-.73,3.31-.36,3.6,1.6,12.23,2.43,16.08.06.27.29.71-.06.89-1.02-3.14-2.68-12.26-2.75-15.53-.04-1.65.56-3.09.74-4.68-.63.04-1.3-.07-1.92.01-.36.05-.6.3-.84.36l-.18-.18Z"/>
  <path class="cls-3" d="M120.29,108.09c-.83,4.58-.96,10,.5,14.47.39,1.19.99,2.23,1.52,3.35-.69-.68-1.19-1.67-1.61-2.71-1.5-3.78-1.78-8.37-1.19-12.3.12-.8.16-1.77.39-2.54.14-.44.21-.19.38-.26Z"/>
  <path class="cls-3" d="M64.28,116.72c.06.04.71.38,1,.74,1.7,2.09,1.77,4.18,2.38,6.62.67,2.69,1.56,5.06,1.98,7.75.12.79.61,1.81.05,2.7-.05.08-1.33.95-1.58,1.14-.1.08-.44.53-.53.15.39-.28,1.84-1.36,1.93-1.66.07-.26-.06-2.07-.11-2.45-.29-2.13-2.88-11.84-3.86-13.4-.34-.53-.99-.95-1.26-1.59Z"/>
  <path class="cls-3" d="M62.08,6.14c2.09-1.93,5.9-2.75,8.72-2.57s5.14,1.58,7.7,2.36c.29-.07,1.59-2.32,2.31-2.36-.39.39-.93,1.02-1.35,1.49-.33.36-.26,1.03-1.14,1.08-.11,0-1.87-.51-2.14-.6-3.24-1.11-4.08-1.64-7.77-1.6-2.04.02-4.54,1.39-6.34,2.2Z"/>
  <path class="cls-3" d="M183.45,188.72l1.45,6.54c.93,4.02,2.73,6.63.2,10.62-1.27,2-2.94,3.3-4.95,4.32-.02.1.05.23-.03.33-.54.49-3.51,1.56-3.73,1.88-.26.39-.68,3.28-.83,4.04-.43-.16-.38-.35-.29-.73.29-1.21.54-2.44.88-3.63,1.38-.51,2.69-1.22,4-1.88.12-.68.15-.18.68-.42.92-.41,4.11-3.81,4.6-4.86,1.28-2.72.3-4.46-.27-6.99-.71-3.15-1.32-6.03-1.7-9.22Z"/>
  <path class="cls-3" d="M154.62,70.98l4.22,1.38c-1.76,1.27-4.21,2.58-6.43,2.11.04-.03.04-.27.31-.34.64.33,4.24-.65,4.44-.98.12-.19.07-.86-.14-.99-.23-.15-.74-.03-1.1-.18-.14-.06-1.21-.62-1.26-.68-.09-.1-.01-.3-.04-.32Z"/>
  <path class="cls-3" d="M152.42,74.65c1.14,2.53,1.42,5.22.64,7.9-1.09,3.77-6.27,7.43-3.77,11.57-.03-.02-.23.04-.32-.05-.43-.43-1.04-1.76-.94-2.39.03-.18.62-1.97.72-2.2.78-1.83,2.74-3.89,3.5-5.72.98-2.34,1.04-5.83.25-8.22-.09-.28-.63-.7-.47-.91.03-.04.33.04.37,0Z"/>
  <path class="cls-3" d="M41.88,53.71s.23-.05.32.03c.51.47-.33,2.05-.34,2.81-.04,2.44,1.4,5.48-1.18,7.46-.19.14-.26-.03-.27-.03,1.5-1.46,1.55-3.07,1.47-5.05-.03-.7-.32-1.64-.3-2.36.04-1.03.7-1.91.3-2.88Z"/>
  <path class="cls-3" d="M10.85,184.31c.35.16.08.59,0,.83-.26.84-1.17,2.88-1.26,3.53-.02.14.1,1.23.14,1.4.08.31,1.94.6,2.28.85.19.14.08.35.11.38-.89-.31-2.71-.66-2.91-1.79-.16-.89,1.25-4.15,1.62-5.19Z"/>
  <path class="cls-3" d="M61.71,6.51c-.32.79-.88,1.67-1.08,2.5-.19.78.02,2.49-.24,2.97-.15.28-1.79.66-2.03,1.19l-1.79.69c1.05-.77,2.24-1.38,3.46-1.86-.01-2.2.22-3.82,1.68-5.48Z"/>
  <path class="cls-3" d="M148.56,95.78v-.18c.37.06,1.01-.31,1.47-.19l-.55-1.1c1.61,1.39.97,1.58-.92,1.47Z"/>
  <path class="cls-3" d="M148.56,95.59l-.18.18c-1.36-.15-2.15-.65-3.12-1.47,1.17.47,1.81.89,3.08,1.06.15.02.21.23.23.23Z"/>
  <path class="cls-3" d="M38.76,49.12c.78-.6.5.48.72,1.02.3.74.87,1.34,1.11,2.1-.91-.95-1.41-1.86-1.84-3.12Z"/>
  <path class="cls-3" d="M40.78,52.43s.24-.05.32.04c.17.17.23.66.41.88-.3-.26-.74-.43-.73-.92Z"/>
  <path class="cls-3" d="M173.72,154.74s-.47.05-.55-.46l.18-.09c.13.15.42.18.37.55Z"/>
  <path class="cls-3" d="M144.71,93.76c-.06-.06-.13-.12-.18-.18l.18-.18v.37Z"/>
  <path class="cls-2" d="M96.6,97.25v.18c-.18-.01-.37.01-.55,0l.11-.17.44-.02Z"/>
  <path class="cls-2" d="M79.52,24.69c1.42.32,5.27.94,6.25,1.93.2.2.81,4.5,1.14,5.47,1.49,4.38,4.84,7.74,9.6,8.18.22.02.49-.17.73-.15.31.03,3.7,3.61,4.42,4.22,1.72,1.46,5,3.26,6.33,4.69.94,1.02,1.85,3.37,2.39,4.68-.35.03-1.22-.24-1.84-.37.1-.46-.23-.39-.54-.46-1.48-.34-3.08-.39-4.6-.46l.92.37c-.43-.01-.86,0-1.29,0-.73-.31-1.87-.23-2.66-.18-1.33.08-7.76.95-8.24,2.08-.07.17.07.29.07.31-.17.91-.56,1.87.55,2.39s3.94-.21,5.33-.37c.18.29.71.21,1.01.18,5.27-.48,8.04-1.32,13.13.92.08.03.26-.02.37,0,.19.78.6,1.48.92,2.2,1.16,2.6,2.13,5.31,3.31,7.9,1.31,2.87,2.71,6.01,4.96,8.08.06.05.14.12.18.18-1.4,8.76-2.88,18.21-6.24,26.45-.04.1-.12.23-.18.37l-1.47,2.57c-4.56,5.64-8.46,9.43-15.06,12.67-.98.48-1.99.94-2.94,1.47-.06,0-.12,0-.18,0-1.15.09-3.78,1.2-5.17,1.53-1.61.38-3.47.76-5.11.86-1.18-.31-2.86-.31-4.04,0-3.49-.22-6.5-1.38-9.36-3.31-.06-.06-.12-.12-.18-.18-.7-.68-1.5-1.6-2.39-2.02-4.23-4.28-7.95-7.54-10.47-13.23-.14-.32-.27-.68-.55-.92-.01-.06.01-.13,0-.18-1.96-8.19-3.79-16.89-4.22-25.35.31-1.12.31-2.74,0-3.86.11-2.19.54-4.41.73-6.61.5.33.34.18.37-.27.07-1.16.36-2.52,0-3.59.08-.85.1-1.73.18-2.57.56.1.35-.28.37-.63.07-1.42.28-2.82.36-4.24.03-.56.14-1.45-.18-1.93.24-2.16.6-4.32.98-6.46.61-3.47,1.16-7.06,2.7-10.25,1.83-2.44,3.79-5.33,5.88-7.53.32-.34.88-.61,1.1-1.1.14-.06.37-.12.55-.18,1.67-.61,5.25-1.75,6.93-1.97.93-.13,3.62.15,4.15-.22.16-.11.09-.35.12-.38.06-.07.63.08.37-.92.23-.07.41.15.55.18ZM70.52,52.43l.1-.18h-4.23s.46.18.46.18c-2.24.17-4.06.7-5.88,2.02-1.64,1.19-3.14,2.96-2.94,5.14l1.65-1.1c3.83-3.19,9.11-2.34,13.63-1.42,1.33.27,5.08,1.91,5.47-.32.08-.43.04-.6-.37-.28-.05-1.32-1.08-2.01-2.2-2.39-.05-.02-.13.02-.18,0-.02,0-.12-.12-.37-.18-.06-.02-.13.02-.18,0-.52-.42-1.38-.66-2.02-.83-.82-.22-2.14-.57-2.94-.64ZM77.13,62.72c.17-1.34-1.82-2.27-2.89-2.71-3.43-1.42-9.67-1.2-12.35,1.7-.22.24-1.01,1.48-.28,1.38.6-.08,1.4-.99,1.98-1.32,2.47-1.43,5.13-1.61,7.91-1.23,2.15.29,3.82,1,5.62,2.18ZM111.47,64.18c.31-.3-.87-1.37-1.1-1.56-3.53-2.96-12.24-5.45-15.33-.82-1.21,1.82,1.01.23,1.48.01,4.28-1.92,8.07-1.24,12.13.86.43.23,2.54,1.77,2.81,1.5ZM80.62,65.1c0,.12,0,.25,0,.37-.33,3.99-1.33,7.82-3.12,11.39-.49.73-1.06,1.46-1.5,2.26-1.42,2.61-3.57,7.08.72,8.16.43.11.9-.05,1.33.14.28.12.75.83,1.12,1.09,1.69,1.2,4.41,1.58,6.29.62.96-.49,1.59-1.74,2.61-1.81,1.21-.09,2.29,1.14,3.84.92,2.92-.42,2.78-6.4-.44-7.25-2.21-.59-.41,1.57-.18,2.38.29,1.03.38,2.57-.82,3.05-1.37.55-2.41-1-4.03-.92-2.04.1-2.22,2.13-4.76,1.6-.92-.19-3.74-2.64-3.95-3.58-.34-1.53.86-3.18,1.43-4.46.16-.36.37-.68.55-1.1.05-.11.12-.23.18-.37.31-.12.38-.41.52-.67,1.68-3.08,2.94-8.4,2.58-11.89-.1-.95-.89-4.18-2.09-4.15-1.38.03-.03,3.41-.27,4.22ZM63.73,63.08c-.14.05-.46,0-.73.09-.6.18-2.68,1.44-3.04,1.92-.54.72-.47,1.9.58,2.03,1.82.22,4.15-2.98,6.13-3.12-1.53,6.12,7.65,6.62,6.61.18.46-.53,3.43,2.55,3.67,2.66,1.18.54,1.76-.45,1.33-1.51-.29-.71-1.12-.98-1.7-1.33-.68-.41-1.06-.65-1.84-.92-.05-.02-.13.02-.18,0-1.22-.97-3.48-1.42-5.04-1.48-1.88-.07-4.28.34-5.79,1.48ZM99.54,64.55v2.66c0,.44.88,1.58,1.29,1.83,2.68,1.65,5.82-1.04,5.5-3.94,1.24.47,3.69,2.77,4.94,1.92,1.06-.72-.58-1.86-1.21-2.25-2.89-1.8-6.71-2.55-10.07-2.24-1.01.09-5.13,1.92-5.87,2.58-.67.6-1.02,1.85.04,1.98,1.73.21,3.46-2.59,5.38-2.54ZM71.81,71.16c-.63-.7-2.09-.28-3.03-.37-1.17-.11-2.33-.59-3.58-.36.09.32.77.41,1.06.5,1.86.56,3.66.71,5.55.23ZM104.31,71.53c.11-.15-.1-.48-.3-.53-.17-.05-1.8.21-2.37.17-.89-.06-1.74-.46-2.66-.37.3,1.5,4.96,1.22,5.32.73ZM102.59,100.12c1.5-1.56,1.28-4.11-.85-4.9l.18,5.33s.58-.34.67-.43ZM67.22,99.73v-2.76c0-.19.23-.97.18-1.01-1.93.31-1.5,2.82-.27,3.86.63.53.66.5.09-.09ZM69.42,97.98c-.06.05-.13.12-.18.18-.16.2-.66.22-.18.65.09.08.17-.1.18-.1.43.19.77.36,1.25.5.68.2,5.35.88,5.36,1.15,0,.01-.22-.03-.18.18,5.9.93,11.95.56,17.9.37l-.27-.37c2.71-.26,5.1-.51,7.53-1.84.04-.02.65.29.18-.55-.03-.05-.13-.13-.18-.18-1.03-.95-2.94-.63-4.22-.73-3.93-.31-6.6-.33-10.55-.18-4.99.19-11.1-1.19-15.79.37-.58.19-.48.24-.84.54ZM89.44,106.25c.06-.02.13.02.18,0,1.18-.32,1.34-.82,2.02-1.47.08-.07.63-.15.73-.46-2.31.12-4.6.88-6.98,1.01l-4.84-.39c-1.01-.17-1.98-.42-2.96-.72-.24-.07-.67-.35-.83,0-.54-.16-1.06-.42-1.65-.37.38,1.12,1.6,1.94,2.63,2.42,2.59,1.21,8.22,1.25,10.92.38.29-.09.59-.14.77-.42Z"/>
  <path class="cls-2" d="M116.25,120.76c0,.06,0,.12,0,.18.11.7.09,1.61.36,2.27.08.2.21.13.37.12.58,2.05,1.04,3.5,2.2,5.33,2.66,4.15,6.92,5.84,10.97,8.23.11.06.37.03.23.31-.12.25-3.86,2.9-4.49,3.4-9.39,7.58-18.34,16.03-30.03,20.02-6.17,2.11-11.27,2.97-17.81,2.2-.06,0-.12,0-.18,0l-.73-.18c-.06,0-.12,0-.18,0l-4.41-1.47c-1.14-.57-2.33-1.13-3.4-1.83-.4-.26-1.97-1.63-2.11-1.66l-.18-.18c-.14-.26-.27-.26-.37-.37l-1.47-2.39c-.07-.17-.12-.37-.18-.55-1.11-3.29-1.13-5.07-.37-8.45.01-.06-.01-.13,0-.18l1.47-2.94c1.12-1.45,2.42-2.67,3.49-4.04l.37-.37c.25-.2.74-.53.92-.73.8,3.33,1.1,6.78,1.93,10.11.29,1.17.36,2.01,1.2,2.94.06.06.12.13.18.18.17.14.24.68.64.18.57-.72.54-5.24.46-6.33l-.73-4.5c0-.06,0-.12,0-.18l-3.67-17.27c.16-.18.54.03.92.18,1.35,1.35,3.16,1.93,4.96,2.39-.1.46.23.39.54.46,2.85.64,6.19.76,9.11.64.35-.01.74.19.63-.37,4.06-.33,8.3-1.27,11.94-3.12.06-.02.17.02.18,0l.18-.18c.24,0,.26-.13.37-.18l.55-.37c.05-.02.13.02.18,0,1.62-.78,3.09-1.86,4.59-2.76.1-.06.23-.1.37-.18.71-.43,1.74-.69,2.2-1.47.05-.03.14.03.18,0,.41-.23.59-.41.92-.73.06-.06.12-.12.18-.18.46.02.52-.32.73-.55.06-.06.12-.12.18-.18.29.05.7-.48.92-.73.05-.06.13-.12.18-.18.77-.4,1.69-1.18,2.02-2.02.13-.12.25-.26.37-.37.83-.76,1.29-1.73,2.02-2.39.08-.07.52-.4.55-.37.03,3.08-.11,6.18.21,9.25.05.51.28,1.13.34,1.58Z"/>
  <path class="cls-1" d="M111.65,16.43c.11-.12-.98-2.8-1.15-3.16-.62-1.28-1.59-2.36-2.15-3.63,6.94.8,13.57,4.08,18.73,8.72,4.75,4.27,4.88,7.3,7.61,12.41,2.96,5.52,6.81,4.66,10.91,8.01,1.51,1.23,3.54,3.31,3.23,5.4-2.31-2.28-5.4-4.36-8.72-4.59-.05.29.03.42.17.65.42.65,2.35,1.98,3.04,2.65,3.43,3.35,5.5,7.29,5.04,12.22-.04.4-.49,2.36-.73,1.29-.69-3.03-1.72-5.79-3.77-8.18-1.69-1.96-4.37-4.07-7.07-4.04l2.83,4.06c2.44,3.73,3.79,8.79,3.18,13.25-.13.93-.86,3.16-1.97,3.26.25-9.21-5.09-16.77-11.01-23.24-4.82-5.27-10.68-9.3-15.52-14.6-1.85-2.02-3.3-4.49-5.6-6.06,0,.38-.04.77.04,1.15,2.3,11,15.36,15.91,20.92,25.18,4.21,7.02,4.71,14.18,9.55,20.94,2.6,3.62,5.4,5.54,5.12,10.51-.07,1.16-.31,3.05-1.02,3.94-.41-1.12-.35-2.34-.74-3.48-1.52-4.54-6.69-6.55-9.64-10.01-4.06-4.77-3.14-11.05-6.14-16.45-3.65-6.57-10.58-8.52-15.25-13.95-5.8-6.75-6.16-16.81-12.03-23.6-4.07-4.71-11.94-8.81-18.17-6.34.57-2.29,2.95-4.04,5.1-4.72,6.48-2.05,14.43,2.12,19.05,6.56,1.48,1.42,2.61,3.17,4.12,4.51.2.18,1.87,1.55,2.02,1.37ZM132.22,40.12c-.14-1.49-.74-2.9-1.05-4.37-.63-3.06-.72-6.23-2.1-9.1-2.18-4.54-7.69-8.13-12.64-8.75-.22.18,1.02,1.31,1.19,1.47,3.38,3.23,7.03,5.95,9.13,10.34,1.69,3.52,1.64,8.15,5.47,10.41Z"/>
  <path class="cls-1" d="M132.22,78.51c-.7.68-5.06-1.78-5.79-2.38-5.49-4.56-4.71-12.46-7.06-18.65-3.22-8.45-10.61-11.75-16.26-17.9-3.66-3.99-6.01-8.19-8.2-13.1-1.79-4.02-2.48-8.01-6.34-10.74-2.66-1.88-5.28-2.5-8.5-1.69.37-1.55,2.49-2.46,3.95-2.57,3.09-.24,8.46,2.27,10.98,4.07,6.44,4.59,6.92,18.72,12.7,25.13,6.7,7.43,14.67,6.15,17.3,18.15,1.03,4.72.44,10.71,3.28,14.72,1.22,1.72,3.53,2.75,3.94,4.97Z"/>
  <path class="cls-1" d="M75.48,15.87c-3.46-.19-7.68-.68-10.84,1.01-2.15,1.15-4.75,3.41-4.95,5.97,3.87-2.51,9.4-5.03,14.01-3.08.95.4,1.03.68.59,1.62-.89,1.89-2.56,1.11-4.2,1.3-2.51.29-4.57,1.92-6.27,3.65-3.22,3.29-7.22,7.64-10.1,11.2-1.46,1.8-4.6,5.74-4.05,8.1.19.83,1.49,1.88-.27,2.47-.81.27-1.92-1.57-2.11-2.29-1-3.84.29-7.4,2.76-10.3.61-.71,4.15-3.79,3.95-4.49-.07-.24-.36-.29-.6-.25-.36.05-2.7,1.31-3.2,1.59-5.97,3.38-9.91,10.5-4.56,16.38.33.36,1.59,1.29,1.66,1.47.04.1-.06,1.23-.1,1.28-.11.12-1.48-.04-1.8-.12-4.38-1.06-5.85-7.86-5.09-11.64,1.27-6.36,8.76-9.04,13.2-12.51,2.14-1.67,1.63-2.72,2.34-5.01,1.03-3.3,4.86-7.09,8.11-8.23,3.47-1.23,8.91-.98,11.53,1.88Z"/>
  <path class="cls-1" d="M150.95,153.64c-6.41,4.65-10.2,11.8-12.99,19.06s-4.68,14.92-6.11,22.73c-.06.3.12.32-.36.28.19-5.11.63-10.1,1.71-15.1,1.81-8.39,5.46-18.01,12.06-23.75,1.55-1.35,3.63-2.9,5.69-3.21Z"/>
  <path class="cls-1" d="M29.21,198.82c-.37-.34.09-6.46.18-7.44.72-7.47,2.39-14.9,4.58-22.05l1.84-4.86c-.6,4.48-1.62,8.89-2.35,13.35-.98,5.93-1.53,15.05-3.65,20.41-.12.3-.17.66-.61.59Z"/>
  <path class="cls-2" d="M47.94,66.39c.2-.12,1.17-.68,1.28-.55-.21.89.8,2.71.74,3.38-.01.15-.42.18-.56.37-1.29,1.67-.67,3.5-.73,5.43.26.04.27-.32.31-.51.15-.59.19-1.07.42-1.7l.18-.37c.03-.06.13-.12.18-.18l.37-.37c.06,0,.15-.01.18,0,.11.6.42,1.19.5,1.79.26,1.9-.8,3.54-.49,5.81.16,1.18,1.17,2.37,1.41,3.36.4,1.64.19,3.74.96,5.38-.23.24-.77-.1-.98-.22-.51-.29-.95-.7-1.41-1.07l-.55-.73c-.02-.06.02-.13,0-.18-.81-2.54-.85-4.82-1.34-7.38-.74-3.91-3.03-8.65-.5-12.27Z"/>
  <path class="cls-2" d="M125.98,79.8c.05.27.52.31.56.49.07.31-.12.55-.2.79-.36,1.22-1.53,2.67-.53,3.93,1.41,1.77,2.72-3.06,3.1-3.3.17-.11,1.6.23,1.65.29.35.39-1.91,6.3-2.39,7.16-.24.43-.65.77-.73,1.29-.15.16-.59.61-.73.73-1.43.71-2.49,1.19-3.67-.18,0-.06,0-.12,0-.18-.23-2.82.93-5.43,1.65-8.08.02-.06-.02-.13,0-.18l1.1-2.76c.06.01.13-.02.18,0Z"/>
  <path class="cls-1" d="M76.4,10.91c-4.09-.36-7.37-2.33-11.56-1-.72.23-1.57.84-2.12,1-.8.23.41-1.65.55-1.84,2.8-3.59,11.47-2.87,13.13,1.84Z"/>
  <path class="cls-3" d="M56.2,53.53c-.25,2.25-.34,4.54-.55,6.8-.08.85-.11,1.72-.18,2.57-.12,1.28-.25,2.58-.37,3.86-.2,2.21-.62,4.42-.73,6.61-.06,1.2-.06,2.66,0,3.86.44,8.46,2.26,17.15,4.22,25.35-.49.11-.36-.25-.45-.55-2.85-9.4-4.57-22.97-3.68-32.7.51-5.6.92-10.92,1.54-16.46.35-3.16,1.81-13.71,3.38-15.82.11-.14.45-.16.5-.23-1.53,3.19-2.09,6.78-2.7,10.25-.37,2.14-.74,4.3-.98,6.46Z"/>
  <path class="cls-2" d="M95.31,37.37c-4.4-1.8-6.54-6.47-6.79-11.02,3.01,3.12,5.12,7.05,6.79,11.02Z"/>
  <path class="cls-3" d="M14.89,194.42c-4.11,13.87-5.96,28.04-8.82,42.15-.06.31-.03.64-.36.83,2.07-13.43,4.6-29.59,8.69-42.48.1-.3.04-.6.49-.51Z"/>
  <path class="cls-3" d="M134.24,205.62c-2.16,6.81-3.42,14.22-5.16,21.2-1.54,6.18-3.23,12.34-4.94,18.47-.35-.18-.12-.62-.06-.89,1.38-6.48,3.62-13.25,5.23-19.75,1.53-6.18,2.59-12.78,4.52-18.81.12-.39-.1-.56.42-.22Z"/>
  <path class="cls-3" d="M170.6,222.34c.35.18.12.62.06.89-1.21,5.6-3.19,11.52-4.78,17.08-1.18,4.12-2.24,8.99-3.77,12.95-.11.29-.05.59-.5.5,3.06-10.44,6.28-20.87,9-31.41Z"/>
  <path class="cls-3" d="M24.62,235.01c-.5-2.35-1-4.75-1.1-7.16,0-.12.02-.26,0-.37-.02-.09-.1-.16-.18-.18-.28-1.92.21-4.44,0-6.43.65-4.98,2.18-10.76,3.58-15.61.19-.65.39-1.49.83-2.02-.54,3.7-2.2,7.99-3.03,11.75-1.61,7.26-1.02,11.9.05,19.07.04.29.19.77-.14.96Z"/>
  <path class="cls-3" d="M143.24,200.11c-.1-.46.21-.39.5-.5,5.68-2.29,16.68-3.97,22.7-3.65,1.81.1,6.74.65,8.25,1.4.2.1.11.34.13.36s.29-.09.36.13c.51,1.64.05,3.74-.21,5.44-.55,3.61-1.38,7.79-2.27,11.33-.08.31.02.65-.45.55.13-2.25,1.34-5.97,1.78-8.42.53-2.93,1.32-6.09.79-9.03-1.54-.45-3.11-.86-4.71-1.08-8.68-1.21-18.61.81-26.88,3.47Z"/>
  <path class="cls-3" d="M71.63,122.78c2.47,1.02,4.02,2.23,6.91,2.56.84.1.57.11.93.2,2.08.51,8.13.13,10.38-.23,3.1-.5,5.98-1.77,8.96-2.52-3.63,1.85-7.88,2.79-11.94,3.12-3.61.3-6.75.16-10.28-.73-1.8-.45-3.61-1.04-4.96-2.39Z"/>
  <path class="cls-3" d="M72.18,119.11c2.86,1.92,5.87,3.08,9.36,3.31,1.21.08,2.83.07,4.04,0,1.64-.1,3.5-.48,5.11-.86,1.39-.33,4.03-1.44,5.17-1.53l-1.5.98c-6.56,2.15-16.94,3.45-22.19-1.9Z"/>
  <path class="cls-3" d="M113.12,112.68c.04-.78.93-1.18,1.36-1.86.28-.44.28-1.03.32-1.06.1-.07.41.06.54-.13.21-.29,0-1.24.72-.73.61.43.13,1.54.16,2.03.31,5.66-.26,11.52,2.67,16.26l.28,1.46c-1.17-1.82-1.62-3.28-2.2-5.33-.23-.79-.46-1.61-.73-2.39,0-.06,0-.12,0-.18-.24-2.79-.41-5.56-.37-8.37.01-1.04.35-2.06,0-3.21l-.73,1.1c-.73.66-1.19,1.63-2.02,2.39Z"/>
  <path class="cls-3" d="M115.7,102.94c3.36-8.24,4.84-17.69,6.24-26.45.33.42.2,1.03.16,1.54-.49,5.98-2.79,15.45-4.7,21.2-.41,1.23-.93,2.7-1.71,3.71Z"/>
  <path class="cls-3" d="M47.94,66.39c-2.53,3.62-.24,8.36.5,12.27.49,2.56.53,4.85,1.34,7.38-.43.09-.64-.54-.72-.84-.5-1.96-.47-4.22-.81-6.02-.49-2.59-1.73-5.66-1.97-8.29-.11-1.29.62-2.38.54-3.66.79-.07.53-.56.79-.81.09-.09.28,0,.32-.04Z"/>
  <path class="cls-3" d="M74.38,139.86c-.53.11-.33-.26-.42-.58-.97-3.68-1.53-7.52-2.26-11.14-.25-1.26-1.26-4.11-1.19-5.1.02-.29.03-.27.2-.45l3.67,17.27Z"/>
  <path class="cls-3" d="M92.74,57.39c.14-.47.37-.22.66-.22,5.55.15,10.63-2.07,16.39-.57.32.08.69-.11.58.42-4.65-1-7.69-.52-12.3,0-1.38.16-4.16.9-5.33.37Z"/>
  <path class="cls-3" d="M103.03,52.8c.43,0,.86-.01,1.29,0,1.63.05,2.65.22,4.22.55.62.13,1.49.4,1.84.37.57-.06.56.4.11.35-.94-.1-2.09-.42-3.09-.58-3.55-.58-7.89-.43-11.39.3-.53.11-1.52.68-2.15.3,2.54-.99,6.43-1.24,9.18-1.29Z"/>
  <path class="cls-3" d="M78.05,162.82c6.55.77,11.64-.1,17.81-2.2.03.53-.28.45-.62.58-4.07,1.55-12.14,2.86-16.34,1.98-.3-.06-.64-.12-.85-.36Z"/>
  <path class="cls-3" d="M73.83,150.52c-.84-.93-.91-1.77-1.2-2.94-.83-3.32-1.12-6.78-1.93-10.11.06-.07-.15-.44.18-.37,1.17,4.4,1.39,9.08,2.94,13.41Z"/>
  <path class="cls-3" d="M74.01,150.7c.61.07.71-1.35.74-1.74.2-2.61-.12-6.37-.37-8.92l.73,4.5c.08,1.09.11,5.61-.46,6.33-.4.5-.46-.03-.64-.18Z"/>
  <path class="cls-3" d="M79.52,24.69c-.14-.03-.32-.25-.55-.18.26,1-.31.85-.37.92-.02.03.04.26-.12.38-.53.37-3.22.1-4.15.22-1.69.23-5.26,1.36-6.93,1.97-.09-.46.21-.39.51-.49,2.58-.89,5.9-1.83,8.59-1.9.49-.01,1.64.29,2.1-.18.22-.22.33-2.34.92-.73Z"/>
  <path class="cls-2" d="M28.47,253.75l-2.39-13.04c1.04,4.33,2.33,8.53,2.39,13.04Z"/>
  <path class="cls-2" d="M103.03,52.8c-2.75.05-6.64.3-9.18,1.29-.54.21-1.2.56-1.65.92,0-.02-.14-.14-.07-.31.47-1.13,6.91-2,8.24-2.08.79-.05,1.93-.12,2.66.18Z"/>
  <path class="cls-3" d="M64.83,154.19c-.46.09-.39-.21-.49-.51-.82-2.36-1.01-4.78-.34-7.21.08-.3.13-.61.46-.73-.77,3.38-.74,5.16.37,8.45Z"/>
  <path class="cls-3" d="M124.69,82.74c-.72,2.65-1.88,5.27-1.65,8.08-.46-.15-.39-.64-.38-1.01.03-1.88.95-4.72,1.58-6.52.1-.29-.04-.65.46-.55Z"/>
  <path class="cls-3" d="M50.33,71.9c.07.03.27-.06.34.02.12.13.6,2.51.59,2.83-.02,1.08-.83,2.19-.73,3.83.13,2.03,1.28,2.95,1.59,4.48.23,1.18.27,2.71.46,3.95.06.43.52.83.14,1.24-.76-1.64-.56-3.73-.96-5.38-.24-1-1.25-2.18-1.41-3.36-.31-2.28.75-3.91.49-5.81-.08-.6-.39-1.2-.5-1.79Z"/>
  <path class="cls-3" d="M76.95,162.64c-2.06-.33-2.6-.56-4.41-1.47l4.41,1.47Z"/>
  <path class="cls-3" d="M96.05,120.02c.95-.53,1.96-.99,2.94-1.47-.09.49-1.82,1.46-2.2,1.58-.43.14-.66-.12-.73-.11Z"/>
  <path class="cls-3" d="M116.8,68.23c.56-.04.43.34.57.62.64,1.26,1.26,2.54,1.82,3.84l2.57,3.63c-2.25-2.07-3.65-5.21-4.96-8.08Z"/>
  <path class="cls-3" d="M126.71,91.19c-1.06.91-3.39,1.84-3.67-.18,1.18,1.37,2.25.9,3.67.18Z"/>
  <path class="cls-3" d="M65.93,142.62l-1.47,2.94c.17-.71.66-2.29,1.09-2.82.15-.19.37-.1.38-.12Z"/>
  <path class="cls-3" d="M172.25,215.54c-.11.71-.08,1.54-.31,2.54-.07.32.09.69-.42.58.24-1.04.41-2.1.73-3.12Z"/>
  <path class="cls-3" d="M125.79,79.8l-1.1,2.76c.25-.93.36-1.99.74-2.94.22-.08.34.18.37.18Z"/>
  <path class="cls-3" d="M112.76,113.04c-.33.84-1.25,1.62-2.02,2.02.76-.85,1.24-1.28,2.02-2.02Z"/>
  <path class="cls-3" d="M104.86,119.29c-1.5.9-2.97,1.97-4.59,2.76.97-.96,2.18-1.54,3.35-2.21.31-.18.54-.67,1.24-.54Z"/>
  <path class="cls-3" d="M110.55,57.02c.62.15,1.43.39,1.96.8.09.07.04.28.06.3.03.03.24-.1.42.23s.72,1.61.5,1.98c-.32-.72-.73-1.42-.92-2.2-.11-.02-.29.03-.37,0-.3-.74-1.17-.59-1.65-1.1Z"/>
  <path class="cls-3" d="M125.98,79.8c.48.15.75.09,1.1.64l-.73.64c.07-.25.27-.48.2-.79-.04-.18-.52-.22-.56-.49Z"/>
  <path class="cls-2" d="M110.37,57.02c.06.01.13-.01.18,0,.48.51,1.35.37,1.65,1.1-5.1-2.24-7.86-1.4-13.13-.92-.3.03-.82.11-1.01-.18,4.62-.52,7.66-1,12.3,0Z"/>
  <path class="cls-3" d="M71.99,118.92c-.38,0-.54-.19-.8-.39-.59-.47-1.11-1.14-1.59-1.63.88.42,1.68,1.34,2.39,2.02Z"/>
  <path class="cls-3" d="M115.51,103.31c-.58,1.37-.63,1.54-1.47,2.57l1.47-2.57Z"/>
  <path class="cls-3" d="M105.23,119.11l1.63-1.27c.18-.09.41-.1.58-.2-.47.78-1.5,1.04-2.2,1.47Z"/>
  <path class="cls-3" d="M66.48,157.13c-.89-1.03-.97-1.08-1.47-2.39l1.47,2.39Z"/>
  <path class="cls-3" d="M66.85,28.18c-.22.49-.78.76-1.1,1.1l-.18-.09c.42-.41.79-.8,1.28-1.01Z"/>
  <path class="cls-3" d="M59.14,103.68c-.73,0-.46-.52-.55-.92.28.24.41.6.55.92Z"/>
  <path class="cls-3" d="M109.45,116.17c-.21.23-.28.57-.73.55.07-.08,0-.61.73-.55Z"/>
  <path class="cls-3" d="M27.92,202.5c.11.32.49.61-.18.55.02-.2.08-.38.18-.55Z"/>
  <path class="cls-3" d="M108.53,116.9c-.33.32-.51.5-.92.73.02-.42.53-.86.92-.73Z"/>
  <path class="cls-3" d="M128.18,89.17l.14.08c-.04.56-.53.83-.87,1.2.09-.51.5-.86.73-1.29Z"/>
  <path class="cls-3" d="M27.74,201.95c-.43-.15-.74-.48-1.1-.73l.09-.18c.39.33.71.47,1.01.91Z"/>
  <path class="cls-3" d="M77.87,162.82c-.35-.04-.61-.16-.73-.18l.73.18Z"/>
  <path class="cls-3" d="M50.33,86.96s-.11.21-.27.02c-.2-.25-.2-.49-.29-.75l.55.73Z"/>
  <path class="cls-3" d="M50.14,71.9l-.37.37c.04-.05,0-.31.18-.47.16-.15.16.11.19.11Z"/>
  <path class="cls-3" d="M110.55,115.25c-.22.26-.62.78-.92.73.27-.28.4-.74.92-.73Z"/>
  <path class="cls-3" d="M99.17,122.6l-.18.18c.04-.06-.02-.26,0-.37l.18.18Z"/>
  <path class="cls-3" d="M69.79,138.21l-.37.37s-.24-.13-.02-.28c.15-.1.36-.07.38-.09Z"/>
  <path class="cls-3" d="M99.54,122.41c.16-.09.29-.24.55-.37l-.55.37Z"/>
  <path class="cls-3" d="M67.04,157.68s-.08.19-.18.19c-.03-.11.03-.3,0-.37l.18.18Z"/>
  <path class="cls-3" d="M49.41,72.82c.09-.25.06-.14.18-.37l-.18.37Z"/>
  <path class="cls-1" d="M149.02,44.35c.12.06.12.12,0,.18v-.18Z"/>
  <path class="cls-2" d="M23.33,227.3c.01.09.1.16.18.18.02.1,0,.25,0,.37-.56.1-.35-.28-.37-.63-.08-2.08-.08-4.32.18-6.35.21,1.99-.28,4.51,0,6.43Z"/>
  <path class="cls-3" d="M79.89,77.59c-.06.14-.14.26-.18.37-.31.34-.66.49-.69,1.02l.14.08c-.57,1.28-1.77,2.93-1.43,4.46.21.94,3.03,3.39,3.95,3.58,2.54.53,2.71-1.5,4.76-1.6,1.62-.08,2.66,1.47,4.03.92,1.2-.48,1.11-2.02.82-3.05-.23-.81-2.03-2.97.18-2.38,3.22.85,3.36,6.83.44,7.25-1.55.22-2.64-1-3.84-.92-1.01.07-1.65,1.32-2.61,1.81-1.88.96-4.6.58-6.29-.62-.36-.26-.84-.96-1.12-1.09-.43-.19-.9-.03-1.33-.14-4.29-1.08-2.14-5.55-.72-8.16.44-.81,1.01-1.54,1.5-2.26,1.68-2.48,2.92-6.42,3.28-9.48.06-.54.16-1.44-.16-1.91,0-.12,0-.25,0-.37,0-.05.19-.28.2-.62.01-.69-.6-3.26.26-3.24s1.38,2.74,1.51,3.46c.72,4.14-1.05,9.17-2.7,12.9Z"/>
  <path class="cls-3" d="M74.56,63.08c.06.02.13-.02.18,0-.08.41,1.23.96,1.6,1.07.15.05.25.01.24-.16.58.35,1.4.62,1.7,1.33.44,1.06-.15,2.05-1.33,1.51-.24-.11-3.21-3.19-3.67-2.66,1.04,6.44-8.14,5.94-6.61-.18-1.98.14-4.31,3.33-6.13,3.12-1.05-.13-1.12-1.3-.58-2.03.36-.49,2.44-1.74,3.04-1.92.28-.08.59-.04.73-.09,4.3-1.43,6.53-1.39,10.83,0Z"/>
  <path class="cls-3" d="M99.54,64.55c-1.92-.05-3.64,2.75-5.38,2.54-1.06-.13-.71-1.38-.04-1.98.74-.66,4.85-2.49,5.87-2.58,3.36-.31,7.19.44,10.07,2.24.63.39,2.27,1.53,1.21,2.25-1.25.85-3.7-1.45-4.94-1.92.32,2.9-2.83,5.59-5.5,3.94-.41-.25-1.29-1.39-1.29-1.83v-2.66Z"/>
  <path class="cls-3" d="M75.48,53.9c.06.02.13-.02.18,0l.37.18c.06.02.13-.02.18,0,1.38.61,1.92,1.64,2.02,3.12-2.57.36-5.09-.88-7.67-1.23-1.98-.27-5.32-.51-7.21.04-.29.09-.61.12-.73.46-.06.01-.13-.01-.18,0-.64.15-.38.13-.73.37-.72.49-1.44,1-2.02,1.65l-1.65,1.1c-.2-2.18,1.3-3.95,2.94-5.14l2.79-1.16c3.93-1.03,7.89-.46,11.72.61Z"/>
  <path class="cls-3" d="M111.47,64.18c-.27.27-2.38-1.27-2.81-1.5-4.05-2.1-7.85-2.78-12.13-.86-.48.21-2.69,1.81-1.48-.01,3.08-4.64,11.8-2.15,15.33.82.22.19,1.4,1.26,1.1,1.56Z"/>
  <path class="cls-3" d="M82.28,97.25c1,.31,2.5.31,3.49,0,.66,0,1.48-.18,1.93-.18h4.22c1.18,0,2.88.27,4.13.37.18.01.37-.01.55,0,1.42.11,2.85.06,4.22.55.06.05.16.14.18.18l-.18.55c-2.43,1.33-4.82,1.58-7.53,1.84-1.47.14-3.19.33-4.67.37-4.26.14-8.57.09-12.77-.56-.02-.27-4.69-.96-5.36-1.15-.48-.14-.81-.31-1.25-.5v-.55c.05-.06.12-.13.18-.18.88-.33,1.8-.52,2.72-.68,3.65-.64,6.51-.12,10.14-.05ZM100.45,98.18c-.21-.34-3.36-.25-3.94-.56-5.87-.6-11.79.29-17.6-.02-1.38-.07-2.74-.44-4.26-.36s-3.32.59-4.86.93c.02.15-.04.5,0,.55.12.14,3.17.77,3.64.86,6.21,1.26,14.91,1.46,21.22.59.85-.12,5.47-.97,5.79-1.47.05-.07.05-.46.01-.52Z"/>
  <path class="cls-3" d="M77.13,62.72c-1.8-1.18-3.47-1.89-5.62-2.18-2.78-.38-5.43-.2-7.91,1.23-.58.34-1.38,1.24-1.98,1.32-.73.1.06-1.14.28-1.38,2.68-2.91,8.92-3.12,12.35-1.7,1.07.44,3.06,1.37,2.89,2.71Z"/>
  <path class="cls-3" d="M89.44,106.25c-3.62,1.01-9.92,1.36-12.97-.98l-.71-1.05c4.96,1.98,10.21,1.71,15.33.55.06.98-1.39.71-1.47,1.47-.06.02-.13-.02-.18,0Z"/>
  <path class="cls-2" d="M100.82,97.98c-1.37-.49-2.81-.45-4.22-.55v-.18c1.28.1,3.2-.22,4.22.73Z"/>
  <path class="cls-2" d="M96.6,97.25l-.44.02-.11.17c-1.25-.09-2.95-.37-4.13-.37h-4.22c-.44,0-1.26.18-1.93.18-1.16,0-2.33.02-3.49,0-3.62-.07-6.49-.59-10.14.05-.92.16-1.84.35-2.72.68.36-.3.26-.35.84-.54,4.69-1.56,10.8-.18,15.79-.37,3.95-.15,6.62-.14,10.55.18Z"/>
  <path class="cls-3" d="M102.59,100.12c-.09.09-.65.46-.67.43l-.18-5.33c2.14.78,2.35,3.33.85,4.9Z"/>
  <path class="cls-3" d="M76.77,104.23c3.1.9,5.35,1.28,8.63,1.1,2.38-.13,4.66-.89,6.98-1.01-.11.31-.66.39-.73.46.1-.09-.17-.27-.37-.18-.17.08.22.31.37.18-.68.65-.84,1.15-2.02,1.47.07-.76,1.52-.49,1.47-1.47-5.12,1.15-10.37,1.42-15.33-.55l.71,1.05c3.05,2.34,9.34,1.99,12.97.98-.18.28-.49.33-.77.42-2.7.86-8.33.82-10.92-.38-1.03-.48-2.25-1.3-2.63-2.42.59-.05,1.11.21,1.65.37Z"/>
  <path class="cls-3" d="M70.52,52.43c.8.07,2.12.43,2.94.64.64.17,1.5.41,2.02.83-3.83-1.06-7.79-1.64-11.72-.61l-2.79,1.16c1.82-1.32,3.64-1.85,5.88-2.02,1.02-.08,2.67-.09,3.67,0Z"/>
  <path class="cls-2" d="M78.42,56.47c.42-.32.45-.15.37.28-.39,2.23-4.15.59-5.47.32-4.52-.92-9.8-1.77-13.63,1.42.58-.65,1.3-1.17,2.02-1.65.32.03.64-.03.73-.37.06-.01.13.01.18,0,5.65-1.31,8.26.4,13.36,1.06,1.1.14,2.49.41,2.43-1.06Z"/>
  <path class="cls-3" d="M79.89,77.59c1.65-3.73,3.42-8.75,2.7-12.9-.12-.72-.66-3.45-1.51-3.46s-.25,2.55-.26,3.24c0,.34-.19.57-.2.62.24-.81-1.11-4.19.27-4.22,1.21-.03,1.99,3.2,2.09,4.15.36,3.49-.89,8.81-2.58,11.89-.14.26-.21.55-.52.67Z"/>
  <path class="cls-3" d="M74.56,63.08c-4.31-1.39-6.53-1.43-10.83,0,1.51-1.14,3.91-1.55,5.79-1.48,1.56.06,3.82.5,5.04,1.48Z"/>
  <path class="cls-3" d="M104.31,71.53c-.36.49-5.03.77-5.32-.73.91-.09,1.76.31,2.66.37.57.04,2.19-.22,2.37-.17.2.05.41.38.3.53Z"/>
  <path class="cls-3" d="M71.81,71.16c-1.89.47-3.68.33-5.55-.23-.29-.09-.97-.18-1.06-.5,1.26-.22,2.41.25,3.58.36.93.09,2.39-.33,3.03.37Z"/>
  <path class="cls-2" d="M93.29,100.55l.27.37c-5.95.19-12.01.56-17.9-.37-.03-.21.18-.17.18-.18,4.2.65,8.51.7,12.77.56,1.49-.05,3.2-.24,4.67-.37Z"/>
  <path class="cls-3" d="M67.22,99.73c.57.59.54.62-.09.09-1.23-1.04-1.65-3.54.27-3.86.05.04-.18.82-.18,1.01v2.76Z"/>
  <path class="cls-2" d="M85.4,105.33c-3.28.18-5.53-.2-8.63-1.1.16-.35.59-.08.83,0,.98.3,1.95.55,2.96.72l4.84.39Z"/>
  <path class="cls-3" d="M80.62,65.47c.32.46.22,1.37.16,1.91-.36,3.06-1.61,7-3.28,9.48,1.79-3.57,2.79-7.4,3.12-11.39Z"/>
  <path class="cls-2" d="M56.2,53.53c.32.48.22,1.37.18,1.93-.09,1.41-.3,2.81-.36,4.24-.02.35.19.74-.37.63.21-2.26.3-4.54.55-6.8Z"/>
  <path class="cls-2" d="M104.31,52.8l-.92-.37c1.51.07,3.12.12,4.6.46.31.07.64,0,.54.46-1.57-.33-2.6-.5-4.22-.55Z"/>
  <path class="cls-2" d="M55.47,62.9c.36,1.06.07,2.43,0,3.59-.03.45.13.6-.37.27.11-1.28.25-2.57.37-3.86Z"/>
  <path class="cls-2" d="M66.85,52.43l-.46-.18h4.23s-.1.18-.1.18c-1.01-.09-2.66-.08-3.67,0Z"/>
  <path class="cls-2" d="M85.58,122.41c-1.21.07-2.83.08-4.04,0,1.18-.31,2.86-.31,4.04,0Z"/>
  <path class="cls-2" d="M54.37,77.23c-.06-1.2-.06-2.66,0-3.86.31,1.12.31,2.74,0,3.86Z"/>
  <path class="cls-3" d="M76.58,64c.02.17-.08.2-.24.16-.37-.12-1.68-.66-1.6-1.07.78.26,1.16.5,1.84.92Z"/>
  <path class="cls-3" d="M78.42,56.47c.05,1.47-1.33,1.2-2.43,1.06-5.1-.65-7.71-2.37-13.36-1.06.12-.34.44-.38.73-.46,1.89-.55,5.22-.31,7.21-.04,2.58.36,5.1,1.59,7.67,1.23-.1-1.49-.64-2.51-2.02-3.12,1.13.38,2.15,1.07,2.2,2.39Z"/>
  <path class="cls-2" d="M69.24,98.72s-.09.18-.18.1c-.48-.43.02-.45.18-.65v.55Z"/>
  <path class="cls-3" d="M79.15,79.06l-.14-.08c.03-.53.38-.67.69-1.02-.19.42-.39.75-.55,1.1Z"/>
  <path class="cls-2" d="M100.82,98.72l.18-.55c.47.84-.14.53-.18.55Z"/>
  <path class="cls-3" d="M76.03,54.08l-.37-.18c.24.07.35.18.37.18Z"/>
  <path class="cls-2" d="M116.25,120.76c-.07-.45-.29-1.07-.34-1.58-.32-3.07-.18-6.17-.21-9.25-.02-.03-.47.3-.55.37l.73-1.1c.35,1.14,0,2.17,0,3.21-.04,2.81.13,5.58.37,8.37Z"/>
  <path class="cls-2" d="M86.87,125.9c.1.56-.28.35-.63.37-2.92.12-6.26,0-9.11-.64-.31-.07-.64,0-.54-.46,3.53.89,6.67,1.03,10.28.73Z"/>
  <path class="cls-2" d="M116.98,123.33c-.16.01-.29.08-.37-.12-.27-.65-.25-1.57-.36-2.27.27.78.51,1.59.73,2.39Z"/>
  <path class="cls-3" d="M132.22,40.12c-3.84-2.26-3.79-6.89-5.47-10.41-2.1-4.39-5.75-7.11-9.13-10.34-.17-.16-1.4-1.29-1.19-1.47,4.95.62,10.46,4.21,12.64,8.75,1.38,2.87,1.47,6.04,2.1,9.1.3,1.47.91,2.89,1.05,4.37Z"/>
  <path class="cls-2" d="M23.52,227.48c-.09-.02-.17-.1-.18-.18.09.03.17.1.18.18Z"/>
  <path class="cls-3" d="M62.44,56.47c-.1.34-.41.4-.73.37.36-.24.1-.22.73-.37Z"/>
  <path class="cls-3" d="M100.45,98.18c.04.06.03.45-.01.52-.32.5-4.94,1.35-5.79,1.47-6.31.87-15.01.68-21.22-.59-.47-.1-3.52-.72-3.64-.86-.04-.05.02-.4,0-.55,1.54-.33,3.29-.84,4.86-.93s2.88.29,4.26.36c5.81.3,11.73-.59,17.6.02.58.31,3.73.22,3.94.56Z"/>
  <path class="cls-2" d="M85.76,97.25c-.99.31-2.49.31-3.49,0,1.16.02,2.33,0,3.49,0Z"/>
  <path class="cls-3" d="M91.64,104.78c-.14.13-.54-.1-.37-.18.19-.09.46.09.37.18Z"/>
</svg>