<?xml version="1.0" encoding="UTF-8"?>
<svg id="Layer_1" data-name="Layer 1" xmlns="http://www.w3.org/2000/svg" viewBox="0 0 185.2 259.32">
  <defs>
    <style>
      .cls-1 {
        fill: #feb66c;
      }

      .cls-2 {
        fill: #76417c;
      }

      .cls-3 {
        fill: #2f3630;
      }
    </style>
  </defs>
  <path class="cls-3" d="M49.21,20.9c-.18.03-1.29.41-1.1-.09.1-.27,1.53-2.06,1.83-2.4,1.86-2.09,4.43-3.75,7.07-4.68,1.18-.42,3.3-.64,4.13-1.01.48-.22,2.48-2.55,3.12-3.12,4.7-4.2,12.08-7.34,18.21-8.78,12.48-2.93,26.61,2.29,35.87,10.71,4.55,4.13,10.06,9.85,14.23,14.42,3.27,3.59,7.14,9.44,6.98,14.51,0,.22.09.6-.28.46-.47-.18-3.6-3.3-3.77-3.12l1.87,3.18c3.4,5.92.65,13.85-1.19,20-.24.8-1.33,3.27-1.37,3.76-.03.32.35.75.46,1.12,1.26,4.48.38,8.38-.96,12.71-1.95,6.31-5.41,13.5-12.4,15.18-1.15,4.31-3.23,8.32-3.48,12.83-.21,3.67.15,11.23,1.94,14.41,1.32,2.35,7.42,6.62,9.99,7.27,2.77.7,2.44.5,4.98,1.81,9.57,4.93,20.06,8.11,29.61,12.81,10.11,4.98,14.92,10.47,17.33,21.61,1.85,8.59,2.23,18.42,2.26,27.22,0,.75-.16,1.78.18,2.39.01,3.78.3,7.5.37,11.29.03,1.37.23,5.33-.05,6.39-.37,1.37-4.61,4.22-5.92,5.1-.79.53-2.93,1.49-3.26,2.25-3.95,13.74-9.03,27.15-14.83,40.18h-4.22c2.48-5.78,4.89-11.59,7.16-17.45,1.57-4.07,3.2-8.17,4.59-12.31,1.13-3.39,2.11-6.86,3.12-10.29,1.12-3.8,2.81-8.72,3.49-12.49.09-.52.23-.85-.19-1.18-3.2-2.49-11.46-3.59-15.5-3.79-4.81-.23-10.82.05-15.59.58-4.46.49-8.87,1.5-13.14,2.83-.39.22-.79,1.43-1.01,1.93-1.78,3.98-3.37,8.46-4.88,12.57-3.39,9.29-6.54,18.74-9.36,28.2,1.46-.18,6.75,3.46,6.95,4.55.11.6-.23,1.33-.93,1.12-10.7-3.71-22.2-3.68-33.38-4.93-2.46-.27-4.9-.57-7.34-.92-8.33-1.17-15.64-2.81-23.6-5.51-7.36-2.49-15.5-6.85-23.41-4.87-5.05,1.27-6.65,3.48-9.62,7.46-.71.95-2.76,3.65-3.14,4.58-.08.19-.14.33-.1.54,6.61,2.03,12.57,5.58,18.61,8.85.26.14.55.21.67.52h-7.71c-.12-.31-.41-.38-.67-.52-4.41-2.39-9.51-4.69-14.35-6.04-1.24-.35-8.09-1.58-8.39-1.89-.16-.16-.38-.76-.28-.91.35-.49,7.2-.79,8.26-1.01,2.04-3.49,4.38-6.82,6.98-9.92.51-.6,2.13-1.89,2.19-2.58.05-.55-.56-2.26-.68-2.98-.7-4.29-1.04-9-.78-13.36.2-3.42,1.1-6.82,1.25-10.25-2.46-2.34-5.53-4.54-8.6-6.01-2.28-1.21-4.8-2.63-7.22-3.52-.19-.07-.19-.27-.39.03L0,228.47c0-3.55,0-7.11,0-10.65l6.03-17.22c.21-.87-1.14-1.09-1.44-1.88l1.84.55-1.83-1.19-.2-.72c4.02-12.1,8.31-24.86,14.49-36.04,8.72-15.8,20.93-15.74,35.78-22.25,4.12-1.8,8.2-3.86,11.78-6.58l-2.04-16.27c-5.67-5.71-9.32-12.12-11.28-19.94-.62-2.47-.85-5.96-1.57-8.16-.17-.51-.98-1.44-1.32-2.17-1.55-3.32-2.91-12.2-3.38-16.09-.27-2.29-.54-6.4,1.08-8.25.46-.53,1.27-.4,1.28-.9-1.62-7.16-4.72-14.31-3.85-21.78l-1.47,2.94c-.02-1.27-.32-2.7-.37-3.95-.24-7.13,3.23-12.71,8.08-17.54.25-.25.47-.51.73-.73.06-.05,1.19-.51.46-.55l-3.03,1.28c-.33.11-.56.04-.55.55ZM91.26,2.72c-4.25.28-8.18,1.17-12.16,2.62-2.49.9-8.12,3.33-9.78,5.28-.43.51-2.71,4.9-2.47,5.15,2.77-.61,5.53-1.88,8.29-2.45,8.56-1.76,16.32,2.34,21.31,9.11,1.8,2.45,3.19,5.17,4.92,7.66.15-3.93-.56-7.33-2.68-10.64-5.32-8.31-14.89-9.75-24.02-8.63-.53.07-1.05.26-1.58.34l3.73-2.24c4.35-2.18,8.83-3.87,13.39-5.52.31-.11,1.18-.26,1.05-.69ZM47.74,42.58c.49-.37.75-1.25,1-1.84,3.38-8.05,3.87-12.1,9.92-19.1.24-.28,2.16-1.95,1.93-2.2-4.33,1.35-6.38,4.54-8.7,8.1-1.31,2.01-4.1,6.07-4.33,8.34-.21,2.12.09,4.57.18,6.7ZM57.84,33.76c-1.81,3.62-2.94,7.54-3.62,11.53-.28,1.66-.66,3.91-.6,5.55l-.55,3.95c-.37,8.36-2.16,15.15-.21,23.53.99,4.25,1.68,7.75,2.46,12.05,1.78,9.85,5.92,20.58,15.19,25.67,4.88,2.68,10.77,2.09,15.98.55,3.43-1.02,7.83-3.47,10.96-5.3,7.77-4.54,14.45-9.58,17.32-18.49.42-1.29,1.24-5.73,2.28-6.35,2.19-1.31,1.41,2.89,2.2,3.52.91.73,4.41-.77,5.34-1.49,4.15-3.25,9.15-16.28,7.53-21.3-.97-3.02-4.83-2.77-6.79-.92-1.52,1.43-3.62,6.25-5,6.93s-1.8-.3-2.16-1.43c-.65-2.02-.74-4.16-1.01-6.24-.47-3.55-.64-7.11-1.1-10.65-.33-2.54-.9-6.47-2.2-8.63-.78-1.3-2.7-2.27-3.94-3.31-2.25-1.9-4.31-4.03-6.62-5.87-.24-.07-.36.04-.27.27.19.49,1.28,1.75,1.65,2.3.77,1.15,1.48,2.37,2.31,3.47,1.27,1.68,2.85,3.11,4.12,4.79-9.88-3.11-14.93-13.39-21.57-20.57-1.8-1.94-3.97-4.13-6.43-5.14-.24.17.02.6.11.8,2.66,5.84,7.1,10.52,11.18,15.36-7.38-2.21-10.77-10.16-16.84-14.29-1.75-1.19-3.87-2.31-6.03-2.42-5.7-.29-11.39,7.56-13.68,12.12ZM128.17,44.42c-2.94-1.19-6.09-2.08-8.79-3.79-1.88-1.19-3.63-3.25-5.36-4.37-.28-.18-.55-.33-.91-.28.83,1.13,2.06,2.15,2.83,3.32,1.23,1.85,1.28,3.65,3.53,4.73,1.47.7,5.95.93,7.7.94.39,0,.84-.15.99-.54ZM102.92,36.7v.18c.12-.06.12-.12,0-.18ZM93.47,118.62c-4.33,2.16-8.98,3.63-13.86,3.86-4.31.21-7.87-1.08-11.48-3.31.25,3.51.71,7.01,1.28,10.47s1.64,6.95,2.2,10.47c.1.62.32,1.29.36,1.93.17,2.55-.3,5.46-1.28,7.8-.27.18-.53.64-.92.73-.37-4.77-.83-9.63-2.48-14.14-6.63,7.21-6.52,19.65,4.32,22.59,5.6,1.52,11.03,1.08,16.53-.55,5.38-1.6,11.03-4.48,15.78-7.45,8.84-5.54,15.76-13.15,23.52-20.01-5.88-3.09-10.85-6.69-11.93-13.68-.54-3.48-.65-7.32-.55-10.84.01-.37-.02-.74,0-1.1,0-.12,0-.25,0-.37.06-1.05.2-2.14.42-3.16.12-.53.52-1.09.41-1.61-3.67,5.28-8.75,9.69-13.99,13.37-2.64,1.86-5.5,3.44-8.32,4.99ZM159.2,152.97c-7.43,1.83-13.81,7.35-18.25,13.43-5.22,7.15-8.28,16.16-10.03,24.78.28-.05.35-.34.45-.55,1.18-2.31,2.08-5.23,3.18-7.65,4.61-10.18,9.72-18.46,18.49-25.59l6.15-4.41ZM26.99,205.32c.88-6.46,2.26-12.89,2.94-19.38.4-3.88.68-7.98.37-11.84l-.61,4.26c-1.61,8.47-4,17.64-3.07,26.33.03.27.04.57.37.64ZM130.92,191.73c.13-.26-.12-.49-.18-.37-.13.26.12.49.18.37Z"/>
  <path class="cls-1" d="M175.18,206.79c-.49-.1-.36.24-.45.55-.94,3.16-1.89,6.38-2.76,9.55-.18.65-.59,1.78-.27,2.39-1.01,3.43-1.99,6.9-3.12,10.29-.51-.11-.34.26-.45.55-1.33,3.51-2.67,7.03-3.96,10.56-.1.28-.49.97-.18,1.2-2.27,5.86-4.69,11.67-7.16,17.45H40.21c-.12-.31-.41-.38-.67-.52-6.04-3.27-12-6.81-18.61-8.85-.04-.21.02-.36.1-.54.37-.93,2.42-3.62,3.14-4.58,2.97-3.97,4.58-6.19,9.62-7.46,7.9-1.98,16.05,2.38,23.41,4.87,7.96,2.7,15.27,4.33,23.6,5.51-.36.56-.12.3.28.36,1.82.29,4.04.61,5.86.75.34.03.97.1,1.2-.19,11.17,1.25,22.68,1.22,33.38,4.93.7.21,1.04-.52.93-1.12-.2-1.08-5.49-4.73-6.95-4.55,2.82-9.46,5.97-18.91,9.36-28.2,1.5-4.11,3.1-8.59,4.88-12.57.22-.5.62-1.7,1.01-1.93,4.27-1.33,8.68-2.34,13.14-2.83,4.77-.53,10.78-.81,15.59-.58,4.05.2,12.3,1.29,15.5,3.79.42.33.28.66.19,1.18Z"/>
  <path class="cls-1" d="M17.45,203.85c3.07,1.47,6.13,3.67,8.6,6.01-.15,3.43-1.05,6.83-1.25,10.25-.26,4.35.08,9.07.78,13.36.12.72.73,2.43.68,2.98-.07.7-1.69,1.98-2.19,2.58-2.6,3.09-4.94,6.43-6.98,9.92-1.06.23-7.91.52-8.26,1.01-.11.15.12.75.28.91.3.31,7.15,1.55,8.39,1.89,4.84,1.35,9.94,3.64,14.35,6.04.26.14.55.21.67.52H0c0-10.16,0-20.33,0-30.49l9.93-28.09c.44-.38,6.48,2.82,7.43,3.28.1.05.08-.17.09-.17Z"/>
  <path class="cls-2" d="M184.73,194.12c-.34-.61-.18-1.63-.18-2.39.34.61.18,1.63.18,2.39Z"/>
  <path class="cls-1" d="M57.84,33.76c2.29-4.56,7.97-12.41,13.68-12.12,2.16.11,4.28,1.23,6.03,2.42,6.06,4.13,9.45,12.08,16.84,14.29-4.08-4.84-8.52-9.52-11.18-15.36-.09-.2-.36-.63-.11-.8,2.46,1.01,4.64,3.2,6.43,5.14,6.64,7.18,11.69,17.46,21.57,20.57-1.27-1.68-2.85-3.11-4.12-4.79-.83-1.1-1.54-2.32-2.31-3.47l5.63,4.37,3.55,2.24c1.3,2.17,1.87,6.09,2.2,8.63-.3.24-.22.86-.19,1.2.22,2.94.5,5.9.93,8.81.05.34-.23.74.36.64.28,2.08.36,4.22,1.01,6.24.36,1.13.72,2.14,2.16,1.43s3.48-5.5,5-6.93c1.96-1.85,5.82-2.1,6.79.92,1.62,5.02-3.38,18.05-7.53,21.3-.93.73-4.43,2.22-5.34,1.49-.78-.63,0-4.83-2.2-3.52-1.04.63-1.86,5.06-2.28,6.35-2.87,8.91-9.56,13.95-17.32,18.49-3.13,1.83-7.52,4.28-10.96,5.3-.16-.34-.6-.08-.84-.02-3.8.9-8.59,1.55-12.38.48l-2.75-1.01c-9.27-5.09-13.41-15.82-15.19-25.67-.78-4.3-1.47-7.8-2.46-12.05-1.95-8.38-.16-15.17.21-23.53l.55-3.95c0,.22-.14.77.18.73.2-4.02.93-8.02,1.97-11.9l2.07-5.92ZM97.14,47.9c.1-.56-.28-.35-.63-.37-1.45-.06-2.8,0-4.23.19-.34.05-.75-.23-.64.36-1.55.23-4.65.73-5.88,1.65-1.01.76-1.61,2.75-.55,3.67.06.05.29.16.37.18.43.12,2.45-.52,3.05-.72.35-.11.62.18.25-.39.56-.13,1.28-.29,1.84-.37.19.31.68.19.99.16,1.08-.11,2.21-.1,3.24-.35.12,0,.24,0,.37,0-.1.55.28.36.63.37.8.03,1.61-.05,2.4,0,.61.03,1.4.46,1.92,0,2.53.38,5.29,1.21,7.48,2.53.27.17.81,1.15,1.15.59-2.24-1.33-2.87-4.43-5.08-5.85-1.64-1.05-4.73-1.47-6.67-1.68ZM80.61,79.68c-3.07-.28-4.13,2.24-6.13,2.19-1.6-.04-4.1-2.05-4.43-3.65-.5-2.37,2-5.36,2.94-7.55,1.02-2.37,3.02-9.19,3.21-11.66.24-3.04-2.06-3.69-3.09-5.72-.76-1.5-.78-2.87-2.32-4.1-2.28-1.82-9.28-1.76-11.85-.65-2.19.94-4.74,3.13-4.22,5.79,3.06-1.91,6.81-2.57,10.37-2.2,1.5.16,5.27.73,6.5,1.39,1.16.62,2.26,3.44,2.21,4.73-.09,2.45-2.4,10.74-3.44,13.1-1.25,2.82-4.7,7.62-1.59,10.53,1.11,1.04,1.87.47,2.9.77.35.1,1.17,1.17,1.84,1.47,3.26,1.42,3.85-1.98,6.73-2.15,1.13-.07,1.92.51,2.87.63,1.5.2,2.91,0,3.83-1.28,1.49-2.09.86-3.73-.63-5.5,0,0,.2-.07.01-.26-.29-.29-2.33-1.48-2.58-1.21.05,1.69,2.12,3.57,1.57,5.34-.68,2.18-3.42-.64-4.69-.01ZM65.92,53.6l.1-.18h-3.12s.46.18.46.18c-1.62.17-4.34,1.19-5,2.81-.07.18-.29.57-.05.68,1.24-1.01,2.7-1.68,4.32-1.84l4.23.45c1.07.17,1.99.72,2.93,1.2.24.12.51.17.73.37.12-.93-.47-1.85-1.19-2.39-.77-.58-2.45-1.19-3.4-1.29ZM103.2,57.46c.3-.03.62.02.92,0,.53-.53-1.08-1.84-1.49-2.1-2.41-1.55-8.08-2.35-10.82-1.68-2,.49-4.18,2.15-4.13,4.32.46-.66,1.1-.92,1.75-1.28,3.33-1.34,7.62-1.24,11.01-.08.62.21,1.72.9,2.17.98.41.07.51-.15.59-.16ZM68.31,58.74c.7.22,3.26,2.3,3.76,2.2.59-.11-.18-1.37-.37-1.64-2.59-3.62-10.4-3.74-13.47-.83-.9.85-1.37,2.76.46,2.11,1.32-.47,2.37-2.52,4.12-2.58-.49,1.27-.92,2.14.03,3.37,2.27,2.93,6.52.77,5.48-2.64ZM102.04,60.08c.6.64.63,1.83,2.22,1.09s-1.33-2.66-2.04-3.02c-3.05-1.55-7.45-2.01-10.69-.89-1.66.57-4.96,2.07-4.49,4.23,2.23-.53,3.71-2.91,6.24-2.75-1.7,6.18,7.39,6.2,6.7.37.52.37,1.64.52,2.06.97ZM68.31,64.25c-2.24.25-4.41.43-6.61-.09.61,1.76,3.49,1.51,4.92,1.06l1.69-.97ZM92.18,64.8c0,.06.15.49.18.55.85,1.67,5.88,1.4,7,.09.18-.21-.03-.26-.02-.27,0-.05,0-.14,0-.18,0-.01.22-.06.1-.18-.51-.51-1.14,0-1.48,0h-2.94c-.44,0-2.4-.72-2.85-.37,0,.12-.01.25,0,.37ZM128.86,67.42c-3.12.53-6.42,5.91-6.57,8.86-.07,1.41.52,1.29.7,2.25.22,1.16,0,2.15-.69,3.08-.57.76-3.76,2.88-.13,2.25,3.07-.53,6.41-5.32,4.51-8.28-.47-.74-1.45-.98-1.18-1.96.35-1.25,2.25-3.3,3.35-4.01.42-.27,2.57-1.16,2.63-1.41.2-.85-2.09-.87-2.62-.78ZM62.62,93.09c-.41-1.44-.35-2.59,0-4.04-2.02.78-1.91,3.25,0,4.04ZM92.18,92.36c-.28-.31-.57-.12-.89-.07-3.9.67-6.96-.06-10.78.07-.35.01-.74-.19-.63.37-1.89.3-3.17.91-5.19.51-1.84-.37-2.42-.91-4.62-.67-1.59.17-3.6,1.33-4.98-.02.05.38.28.95.46,1.28.1.18,0,.26.29.53,1.64,1.45,3.99.36,5.84.59,1.44.18,2.72,1.04,4.42,1.05s3.11-.73,4.59-.88c2.8-.27,5.91.23,8.97-.02.05,0,1.3-.12.85-.35.47-.07,1.5-.53,2.14-.54s1.63.97,1.31-.61c-.21-1.03-.85-1.26-1.8-1.24ZM71.06,100.8c1.62,1.57,5.66,1.62,7.81,1.48.34-.02.69.04.82-.38,1.74-.23,5.05-.88,5.32-2.94-1-.13-1.97.24-2.94.37-.18-.29-.71-.21-1.01-.18-.55.05-1.59.37-2.02.37h-4.41c-.43,0-1.52-.3-2.05-.36-.15-.02-.44-.03-.43.18-.43-.08-1.51-.57-1.75-.19-.38.57.25,1.28.65,1.66Z"/>
  <path class="cls-1" d="M114.95,105.03c-.56-.1-.35.28-.37.63-.14,3.54.09,7.52.56,11.03.05.34-.23.75.36.64,1.09,6.99,6.05,10.59,11.93,13.68-7.75,6.86-14.67,14.47-23.52,20.01-4.75,2.97-10.39,5.86-15.78,7.45-.19-.36-.61-.12-.88-.05-5.75,1.45-8.89,1.62-14.76.54-.27-.05-.72-.28-.89.07-10.84-2.94-10.94-15.38-4.32-22.59,1.65,4.51,2.11,9.37,2.48,14.14.39-.09.65-.55.92-.73,0,0,.09.17.16.17,1.33-2.74,1.68-6.65,1.12-9.63-.07-.39.2-.64-.36-.28-.56-3.52-1.62-6.95-2.2-10.47.31-.19.2-.68.16-.98-.34-2.97-1.01-5.93-1.08-8.93.89.38,1.69.98,2.57,1.37,7.4,3.32,15.65,1.25,22.4-2.48,2.82-1.56,5.68-3.14,8.32-4.99,5.24-3.69,10.32-8.09,13.99-13.37.11.52-.29,1.08-.41,1.61-.22,1.02-.35,2.12-.42,3.16Z"/>
  <path class="cls-2" d="M91.26,2.72c.13.43-.74.58-1.05.69-4.56,1.66-9.05,3.35-13.39,5.52l-3.73,2.24c.53-.08,1.05-.28,1.58-.34,9.13-1.13,18.7.32,24.02,8.63,2.12,3.31,2.83,6.71,2.68,10.64-1.73-2.49-3.11-5.22-4.92-7.66-4.99-6.78-12.75-10.87-21.31-9.11-2.76.57-5.52,1.84-8.29,2.45-.23-.24,2.04-4.64,2.47-5.15,1.66-1.95,7.3-4.37,9.78-5.28,3.98-1.45,7.92-2.34,12.16-2.62Z"/>
  <path class="cls-2" d="M159.2,152.97l-6.15,4.41c-8.78,7.13-13.88,15.41-18.49,25.59-1.1,2.43-2.01,5.35-3.18,7.65-.11.21-.17.51-.45.55,1.75-8.61,4.81-17.62,10.03-24.78,4.44-6.08,10.82-11.6,18.25-13.43Z"/>
  <path class="cls-2" d="M47.74,42.58c-.1-2.13-.39-4.58-.18-6.7.23-2.27,3.01-6.33,4.33-8.34,2.32-3.55,4.37-6.75,8.7-8.1.23.25-1.69,1.92-1.93,2.2-6.04,7-6.54,11.05-9.92,19.1-.25.59-.51,1.47-1,1.84Z"/>
  <path class="cls-2" d="M26.99,205.32c-.33-.07-.34-.36-.37-.64-.93-8.69,1.46-17.86,3.07-26.33l.61-4.26c.31,3.87.04,7.96-.37,11.84-.67,6.49-2.06,12.92-2.94,19.38Z"/>
  <path class="cls-2" d="M128.17,44.42c-.15.39-.6.54-.99.54-1.75-.01-6.24-.24-7.7-.94-2.25-1.08-2.3-2.88-3.53-4.73-.78-1.17-2-2.18-2.83-3.32.36-.05.62.1.91.28,1.73,1.12,3.48,3.19,5.36,4.37,2.7,1.71,5.85,2.6,8.79,3.79Z"/>
  <path class="cls-1" d="M113.85,46.25l-3.55-2.24-5.63-4.37c-.37-.55-1.46-1.81-1.65-2.3-.09-.23.04-.34.27-.27,2.31,1.84,4.37,3.98,6.62,5.87,1.24,1.05,3.16,2.01,3.94,3.31Z"/>
  <path class="cls-1" d="M17.45,203.85s.01.21-.09.17c-.95-.46-6.99-3.66-7.43-3.28L0,228.83c0-.12,0-.24,0-.37l9.83-28.1c.21-.3.2-.1.39-.03,2.43.89,4.94,2.31,7.22,3.52Z"/>
  <path class="cls-1" d="M88.14,158.48c-5.5,1.63-10.92,2.07-16.53.55.17-.35.62-.12.89-.07,5.87,1.08,9.01.91,14.76-.54.27-.07.69-.31.88.05Z"/>
  <path class="cls-1" d="M57.84,33.76l-2.07,5.92c-1.04,3.88-1.77,7.87-1.97,11.9-.32.04-.17-.52-.18-.73-.06-1.65.32-3.89.6-5.55.68-3.99,1.81-7.91,3.62-11.53Z"/>
  <path class="cls-1" d="M93.47,118.62c-6.75,3.72-15,5.79-22.4,2.48-.88-.4-1.69-.99-2.57-1.37.07,3,.74,5.96,1.08,8.93.03.3.15.8-.16.98-.58-3.46-1.03-6.96-1.28-10.47,3.61,2.23,7.17,3.52,11.48,3.31,4.87-.23,9.53-1.71,13.86-3.86Z"/>
  <path class="cls-1" d="M114.95,105.03c0,.12,0,.25,0,.37-.3.19-.3.93,0,1.1-.1,3.52.01,7.36.55,10.84-.59.1-.31-.3-.36-.64-.47-3.51-.7-7.49-.56-11.03.01-.35-.19-.74.37-.63Z"/>
  <path class="cls-1" d="M86.49,116.6c-5.21,1.54-11.1,2.13-15.98-.55l2.75,1.01c3.79,1.07,8.58.41,12.38-.48.25-.06.69-.32.84.02Z"/>
  <path class="cls-1" d="M168.57,229.57c-1.39,4.14-3.02,8.24-4.59,12.31-.31-.23.08-.91.18-1.2,1.28-3.53,2.62-7.05,3.96-10.56.11-.29-.05-.66.45-.55Z"/>
  <path class="cls-1" d="M175.18,206.79c-.68,3.77-2.37,8.69-3.49,12.49-.32-.61.1-1.74.27-2.39.87-3.17,1.82-6.39,2.76-9.55.09-.3-.04-.65.45-.55Z"/>
  <path class="cls-1" d="M71.61,140.11c.56-.36.29-.11.36.28.57,2.98.21,6.89-1.12,9.63-.07,0-.15-.18-.16-.17.98-2.35,1.45-5.25,1.28-7.8-.04-.64-.27-1.31-.36-1.93Z"/>
  <path class="cls-1" d="M117.15,65.54c-.59.1-.31-.3-.36-.64-.44-2.91-.71-5.87-.93-8.81-.03-.34-.1-.97.19-1.2.46,3.55.63,7.1,1.1,10.65Z"/>
  <path class="cls-1" d="M88.14,248.67c-.24.3-.86.22-1.2.19-1.82-.14-4.04-.46-5.86-.75-.4-.06-.64.2-.28-.36,2.45.34,4.89.64,7.34.92Z"/>
  <path class="cls-1" d="M114.95,106.5c-.3-.17-.3-.92,0-1.1-.02.37.01.74,0,1.1Z"/>
  <path class="cls-2" d="M130.92,191.73c-.06.12-.31-.11-.18-.37.06-.12.31.11.18.37Z"/>
  <path class="cls-1" d="M102.92,36.7c.12.06.12.12,0,.18v-.18Z"/>
  <path class="cls-3" d="M80.61,79.68c1.6.15,3.82,2.17,4.81.31.94-1.77-1.71-5.08-1.5-5.27.88.06,1.75.51,2.39,1.1,1.49,1.77,2.12,3.41.63,5.5-.91,1.28-2.33,1.49-3.83,1.28-.95-.13-1.74-.7-2.87-.63-2.88.18-3.47,3.57-6.73,2.15-.67-.29-1.49-1.37-1.84-1.47-1.03-.3-1.79.26-2.9-.77-3.11-2.91.35-7.71,1.59-10.53,1.05-2.37,3.35-10.65,3.44-13.1.05-1.29-1.05-4.1-2.21-4.73-1.24-.66-5-1.24-6.5-1.39-3.56-.37-7.31.29-10.37,2.2-.53-2.66,2.03-4.85,4.22-5.79,2.57-1.11,9.57-1.17,11.85.65,1.55,1.23,1.56,2.6,2.32,4.1,1.04,2.04,3.33,2.68,3.09,5.72-.2,2.47-2.2,9.29-3.21,11.66-.94,2.19-3.45,5.17-2.94,7.55.34,1.6,2.83,3.6,4.43,3.65,2.01.05,3.07-2.47,6.13-2.19Z"/>
  <path class="cls-3" d="M96.59,47.72l.18.18c.12.01.25-.01.37,0,1.94.21,5.03.63,6.67,1.68,2.21,1.42,2.84,4.52,5.08,5.85-.34.55-.87-.43-1.15-.59-2.19-1.32-4.95-2.15-7.48-2.53-1.55-.23-3.38-.33-4.96-.37-.12,0-.24,0-.37,0-1.46-.02-2.78-.02-4.22.18-.56.08-1.28.24-1.84.37-1.04.24-2.3.71-3.31,1.1-.08-.02-.31-.13-.37-.18-.73-1.31,0-2.46.55-3.67,1.22-.92,4.33-1.43,5.88-1.65,1.67-.25,3.24-.49,4.96-.37Z"/>
  <path class="cls-3" d="M102.04,60.08c-.42-.45-1.54-.6-2.06-.97.69,5.83-8.4,5.81-6.7-.37-2.54-.15-4.01,2.22-6.24,2.75-.47-2.17,2.83-3.66,4.49-4.23,3.24-1.12,7.64-.66,10.69.89.7.36,3.6,2.29,2.04,3.02s-1.62-.45-2.22-1.09Z"/>
  <path class="cls-3" d="M128.86,67.42c.53-.09,2.82-.07,2.62.78-.06.25-2.21,1.15-2.63,1.41-1.1.7-3,2.76-3.35,4.01-.27.99.71,1.23,1.18,1.96,1.89,2.96-1.44,7.75-4.51,8.28-3.62.63-.43-1.5.13-2.25.7-.93.91-1.92.69-3.08-.18-.97-.77-.84-.7-2.25.15-2.95,3.45-8.32,6.57-8.86Z"/>
  <path class="cls-3" d="M68.31,58.74c1.04,3.41-3.21,5.57-5.48,2.64-.95-1.23-.52-2.1-.03-3.37-1.75.06-2.8,2.11-4.12,2.58-1.83.65-1.36-1.26-.46-2.11,3.08-2.91,10.89-2.79,13.47.83.19.27.96,1.53.37,1.64-.5.09-3.06-1.98-3.76-2.2Z"/>
  <path class="cls-3" d="M89.43,56.72c-.65.37-1.29.63-1.75,1.28-.05-2.18,2.13-3.83,4.13-4.32,2.74-.67,8.41.13,10.82,1.68.4.26,2.01,1.56,1.49,2.1-.3.03-.62-.03-.92,0-4.27-1.84-9.49-3.17-13.77-.73Z"/>
  <path class="cls-3" d="M72.17,99.34c3.79.68,6.1.5,9.92,0,.97-.13,1.94-.5,2.94-.37-.28,2.06-3.59,2.71-5.32,2.94-3,.39-5.85.18-8.63-1.1-.4-.39-1.03-1.09-.65-1.66.24-.37,1.33.12,1.75.19Z"/>
  <path class="cls-3" d="M65.92,53.6c.95.1,2.62.71,3.4,1.29.72.54,1.31,1.46,1.19,2.39-.22-.19-.49-.25-.73-.37-1.63-1.68-4.94-1.87-7.16-1.65-1.61.16-3.08.83-4.32,1.84-.24-.11-.02-.51.05-.68.66-1.62,3.38-2.64,5-2.81.66-.07,1.91-.07,2.57,0Z"/>
  <path class="cls-3" d="M99.34,64.99s0,.14,0,.18c-1.8,1.35-5.09,1.45-6.98.18-.03-.06-.18-.5-.18-.55.89-.31,2.2.37,2.85.37h2.75c.29,0,1.07-.38,1.56-.18Z"/>
  <path class="cls-1" d="M84.84,94.93c.68.31,2.04.31,2.75,0,.98-.04,1.97-.05,2.94-.18.45.23-.8.34-.85.35-3.07.25-6.18-.25-8.97.02-1.48.15-2.98.89-4.59.88-1.7-.01-2.98-.87-4.42-1.05-1.86-.23-4.21.86-5.84-.59-.3-.26-.19-.34-.29-.53,1.65,1.78,3.46.7,5.39.75,1.46.04,3.05.99,4.62,1.09,2.14.13,3.62-.74,5.51-.91,1.15-.1,2.52.18,3.76.18Z"/>
  <path class="cls-3" d="M68.31,64.25l-1.69.97c-1.44.45-4.31.7-4.92-1.06,2.21.52,4.37.35,6.61.09Z"/>
  <path class="cls-1" d="M103.2,57.46c-.08,0-.17.23-.59.16-.45-.08-1.55-.77-2.17-.98-3.39-1.15-7.68-1.25-11.01.08,4.28-2.43,9.5-1.11,13.77.73Z"/>
  <path class="cls-3" d="M62.62,93.09c-1.91-.79-2.02-3.26,0-4.04-.35,1.45-.41,2.6,0,4.04Z"/>
  <path class="cls-1" d="M92.18,92.36c-.94.02-2,.48-3.02.56-3.1.23-6.25-.67-9.28-.19-.1-.55.28-.36.63-.37,3.82-.13,6.88.6,10.78-.07.31-.05.61-.24.89.07Z"/>
  <path class="cls-1" d="M82.08,99.34c-3.82.5-6.12.68-9.92,0,0-.2.28-.19.43-.18.53.06,1.61.36,2.05.36h4.41c.43,0,1.48-.32,2.02-.37.3-.03.82-.11,1.01.18Z"/>
  <path class="cls-1" d="M99.34,64.99c-.49-.19-1.27.18-1.56.18h-2.75c-.65,0-1.96-.68-2.85-.37-.01-.12,0-.25,0-.37.45-.36,2.4.37,2.85.37h2.94c.34,0,.96-.51,1.48,0,.12.12-.1.17-.1.18Z"/>
  <path class="cls-1" d="M86.3,75.82c-.63-.59-1.51-1.04-2.39-1.1-.21.19,2.44,3.5,1.5,5.27-.99,1.86-3.21-.17-4.81-.31,1.27-.63,4.01,2.19,4.69.01.55-1.76-1.52-3.64-1.57-5.34.26-.27,2.29.92,2.58,1.21.19.18-.02.25-.01.26Z"/>
  <path class="cls-1" d="M79.69,101.91c-.13.42-.47.36-.82.38-2.15.14-6.19.09-7.81-1.48,2.78,1.28,5.63,1.49,8.63,1.1Z"/>
  <path class="cls-1" d="M92.36,65.35c1.88,1.26,5.18,1.16,6.98-.18,0,.01.2.06.02.27-1.12,1.31-6.15,1.58-7-.09Z"/>
  <path class="cls-1" d="M69.78,56.9c-.94-.48-1.86-1.03-2.93-1.2l-4.23-.45c2.23-.22,5.54-.03,7.16,1.65Z"/>
  <path class="cls-1" d="M100.26,52.31c-.52.45-1.31.02-1.92,0-.8-.04-1.6.03-2.4,0-.35-.01-.74.19-.63-.37,1.58.04,3.41.13,4.96.37Z"/>
  <path class="cls-1" d="M91.63,48.09c-.1-.59.3-.31.64-.36,1.43-.19,2.79-.25,4.23-.19.35.01.74-.19.63.37-.12-.01-.25.01-.37,0-.01,0-.05-.17-.18-.18-1.71-.13-3.28.12-4.96.37Z"/>
  <path class="cls-1" d="M94.93,51.94c-1.03.25-2.15.24-3.24.35-.3.03-.8.15-.99-.16,1.45-.2,2.76-.2,4.22-.18Z"/>
  <path class="cls-1" d="M85.2,53.41c-1.06-.92-.46-2.91.55-3.67-.56,1.22-1.28,2.36-.55,3.67Z"/>
  <path class="cls-1" d="M63.35,53.6l-.46-.18h3.12s-.1.18-.1.18c-.66-.07-1.91-.07-2.57,0Z"/>
  <path class="cls-1" d="M88.87,52.5c.37.56.1.27-.25.39-.61.19-2.62.83-3.05.72,1.01-.39,2.26-.86,3.31-1.1Z"/>
  <path class="cls-3" d="M92.18,92.36c.95-.02,1.59.21,1.8,1.24.32,1.58-.7.6-1.31.61s-1.67.47-2.14.54c-.97.14-1.96.15-2.94.18-.91.04-1.84,0-2.75,0-1.24,0-2.61-.28-3.76-.18-1.88.17-3.37,1.05-5.51.91-1.58-.1-3.16-1.05-4.62-1.09-1.92-.05-3.73,1.03-5.39-.75-.18-.34-.41-.9-.46-1.28,1.38,1.35,3.39.19,4.98.02,2.2-.24,2.78.3,4.62.67,2.02.41,3.3-.21,5.19-.51,3.03-.48,6.18.42,9.28.19,1.02-.08,2.08-.54,3.02-.56Z"/>
  <path class="cls-1" d="M96.77,47.9l-.18-.18c.13,0,.17.18.18.18Z"/>
  <path class="cls-1" d="M87.59,94.93c-.72.31-2.07.31-2.75,0,.91,0,1.84.04,2.75,0Z"/>
</svg>