<?xml version="1.0" encoding="UTF-8"?>
<svg id="Layer_1" data-name="Layer 1" xmlns="http://www.w3.org/2000/svg" viewBox="0 0 180.65 255.86">
  <defs>
    <style>
      .cls-1 {
        fill: #f4bb41;
      }

      .cls-2 {
        fill: #e69a3b;
      }

      .cls-3 {
        fill: #feb66c;
      }

      .cls-4 {
        fill: #fbe7d9;
      }

      .cls-5 {
        fill: #ee706c;
      }

      .cls-6 {
        fill: #2f3630;
      }
    </style>
  </defs>
  <path class="cls-6" d="M141.49,72.17c-.01-.06.01-.12,0-.18h.18c-.01.14-.03.2-.18.18Z"/>
  <path class="cls-6" d="M109.18,5.87c8.29,4.42,16.51,14.81,20.93,22.96-.37.11,0,.55.09.74,5.4,11.3,9.5,22.33,12.57,34.27,1.34,5.21,2.63,10.9,3.29,15.99,1.04,8.01.3,15.8,2.87,23.76.09.29.11.61.46.73.01.06-.01.13,0,.18.18.7.38,1.43.53,1.98.59,2.16,1.08,4.37,1.85,6.47.01.06-.01.12,0,.18.44,2.35.77,5.13,1.33,7.39.07.29.23.57.37.82,2.95,1.36,6.06,2.43,8.83,4.12l1.4.52c4.02,2.51,7.08,5.07,9.55,9.18-.46.5.6,1.36.72,1.61,4.18,8.68,3.61,20.71,4.81,30.23.55,4.39,3.26,13.8-.07,17.16-.26.27-1.23.48-1.24,1.33-.06.06-.12.13-.18.18-.76-.05-.85.45-1.22.7-.83.58-1.27.74-1.91,1.5-.02.02-.25-.09-.36.13-.19.38-.1,1.16-.2,1.57-.45,1.95-.98,4.32-1.51,6.6-3.02,12.85-6.93,23.58-11.49,35.71-.09.24-.4.63-.02.8-1.82,4.3-4.06,8.33-5.88,12.49-.4.36-1.13,1.2-1.12,1.75,0,.48.58.82.26,1.44.57,2.41.8,4.98,1.04,7.46h-11.2c1.73-2.04,3.17-4.3,4.77-6.43,4.28-5.66,7.61-13.59,10.37-20.39,6.42-15.77,11.82-34.33,13.5-51.34.11-1.09.33-2.57,0-3.58v-.18l-1.14-1.04c-9.69-4.47-20.92-1.91-30.3,2.15l-.69.73c-1.53.79-4.23,2.39-5.33,3.67-.02-.36-.53.3-.54.32-.9,1.42-1.67,2.83-2.02,4.55-.39,1.93-.57,3.44-1.16,5.27-.3.94-.77,1.85-1.05,2.8.12.18.24.25.46.28.77.12,3.41-.9,4.42-1.09,2.67-.51,8.19-.59,10.68.48.26.11.22.61.78.42.18.14.23.23.37.37.24.91,1,1.86.93,2.85-.05.72-1.31,2.66-1.04,3.04.16.23.78.25,1.07.37,1.21.51,2,.54,3.26.72.06,0,.12,0,.18,0,.12.58,1.26,1.08,1.84,1.29.12.12.22.17.37.37.13.8.54,1.66.55,2.48,0,.22-.14,1.61-.18,1.8-.05.2-.74.28-.92.96-.08.3-.14.75.36.63-.02.1,0,.25,0,.37,0,.03-.19.15-.18.42.06,1.25.66,1.86.11,3.37-.04.1-1.32,1.55-1.41,1.61-.64.43-2.93.76-3.07.88-.26.22-.72,2.24-.97,2.75-.21.43-2.25,2.39-2.82,2.72-2.58,1.5-6.41,2.34-9.27,3.41-.34.13-.97.33-.94.81-.75.29-1.45.66-2.2.92l1.56.92c1.05.75,1.38,2.68.09,3.31-1.49-.11-2.83-1.02-4.23-1.56-15.71-6.12-31.73-5.31-47.96-8.96-9.15-2.06-18.39-5.19-27.28-8.16-4.65-1.55-6.88-2.5-12.06-2.25-2.64.12-5.41.76-7.76,1.27s-3.1-.1-4.09,2.22c-.02.05.02.13,0,.18-.44-.1-.39.22-.52.48-1.29,2.58-2.12,5.58-1.84,8.49,1.17.42,2.56,1,3.76,1.29,1.44.35,2.39.41,3.89.89,4.36,1.37,8.81,3.85,12.9,6.19.18.1.6.5.72.11,10.92,6.17,21.11,13.7,32.13,19.65-.39.15.55.55.61.58,4.76,2.39,12.88,6.05,18.12,6.58H33.16c-.23-.3-1.05-.3-1.29,0h-.37c.1-.59-.3-.32-.64-.36-3.65-.45-7.35-1.02-10.88-1.43-3.23-.38-7.19-.31-10.26-1.11-.47-.12-1.29-.89-1.54-.22-.47-.2-.85-.48-1.29-.73.59-.51-.67-.62-1.1-.73-.07-.05-.12-.13-.18-.18-.03-.86-.72-.79-1.05-1.15-5.07-5.6-4.33-23.9-3.72-31.26.95-11.52,3.61-24.01,6.7-35.18.75-2.72,2.39-6.54,2.81-9.13.23-1.44-.4-1.12-.51-1.47-.37-1.17-.03-2.92.27-4.1,1.57-6.31,4.22-13.08,6.61-18.91.41-.99.9-1.96,1.35-2.93l-.15-.38c2.9-6.17,5.86-11.39,11.77-15.14.85-.54,2.7-1.27,3.29-1.85.84-.83,2.97-4.63,3.81-5.92.74-1.13,1.75-2.2,2.43-3.36.19.36.28-.12.36-.28,1.93-3.69,3.39-7.75,3.86-11.94.65-5.77-.99-11.36-1.28-17.08-.57-11.24,1.64-23.67,3.91-34.66,2.04-9.87,4.44-19.18,7.98-28.57.08-.2.37-.66.05-.78,2.88-6.37,8.14-15.5,16.17-15.14.66-3.74,3.34-6.28,6.41-8.19.28.31.45-.02.68-.14,10.76-5.62,21.84-2.97,31.82,2.35ZM77.78,6.79c-4.14,2.75-6.09,6.48-2.9,10.89.16.22,1.33,1.9,1.62,1.59-1.73-4.09.04-7.12,3.31-9.55.05.32.54-.08.67-.16.4-.24.81-.7,1.03-.81,4.61-2.42,12.48-2.24,17.21-.03.27.13.45-.03.37.45-.85.17-1.81-.42-2.49-.53-4.99-.84-10.11-.69-14.26,1.83-.86.95-2.33,1.41-2.71,2.74-.06.06-.12.13-.18.18-.03.03-.24-.09-.38.11-.88,1.27-1.12,3.6-.41,4.99.16.31.4.19.42.22.07.07-.18.47.27.37.2-.05.04-.31.09-.37.02-.02.24.07.36-.14.34-.58.47-1.46.92-2.11,1-1.43,3.28-2.57,4.88-3.07,3.29-1.03,9.02.21,12.19,1.74.19.09.63.46.74.09,2.13,1.28,3.86,3.13,5.51,4.96l1.1,1.7c3.54,4.32,5.66,9.78,7.26,15.2s2.53,11.15,4.87,16.35c.01.06,0,.12,0,.18.03.17-.02.37,0,.55l.37-.18c2.11,5.13,3.84,9.76,6.94,14.46,1.31,1.99,2.93,3.78,4.27,5.74-.26.02.16.68.21.76,3.63,6.01,5.32,12.72,5.1,19.7-.07,2.34-.76,4.88-.9,7.19-.44,7.18,2.69,13.84,4.32,20.84,2,8.62,1.46,16.74-1.62,25.02-.08.21-.7,1,.15.7.17-.06.06-.35.09-.37.16-.13.38-.25.55-.37.1-.07.44.08.55-.46l-.18-.09c1.23-1.6,2.38-3.28,3.49-4.96,4.86-7.33,4.85-16.67,2.33-25.02-1.81-6-4.83-9.89-4.35-16.58.11-1.47.6-3.02.73-4.5.47-.5.68,1.4.71,1.58.91,6.21,2.27,14.3,7.37,18.62.34.29.45.39.73.73.07.09.09.37.36.65.23.24.76.6,1.11.63.1-.08.29-1.64-.37-1.47,0-.06,0-.12,0-.18-.19-4.5-2.37-9.51-3.47-13.73-2.41-9.23-1.39-17.77-3.02-26.92-.22-1.23-.73-2.74-1.03-3.98.04-.36.14-.77.16-1.02,0-.08-.29-.03-.36-.35-2.93-12.95-7.31-28.8-14.12-40.14-5.38-8.96-12.04-17.49-21.3-22.78.1-.47-.23-.38-.5-.5-2.24-1-4.16-2.29-6.56-2.99-6.29-1.85-14.29-1.67-20.06,1.62l-1.16.96ZM56.29,30.3l-.18-.19c-2.15,5.49-3.84,11.34-5.28,17.23-4.07,16.69-7.58,35.63-4.82,53.03l.37,4.5c0,.12,0,.24,0,.37l-.39,4.66c-.73,3.98-1.83,8-3.82,11.46-.04.08-.44.9-.2.96-.77,1.26-3.82,4.76-4.04,5.69-.03.13-.05.4.09.36,2.41-.79,4.9-1.25,7.37-1.81,1.87-.43,4.09-1.07,6-1.91.28-.12.6-.03.5-.5.05-.02.13.02.18,0,.5-.22.66-.23.73-.92.06-.06.12-.12.18-.18.16-.15.63-.27.37-.55.85-1.2,1.56-2.54,2.2-3.86,1.38-2.85,2.42-6.57,2.57-9.73.02-.49-.01-.98,0-1.47.17-.02.32.1.37-.12.04-.19.06-2.01,0-2.09-.02-.03-.26.02-.37,0,0-.24,0-.49,0-.73.3-.19.18-.7.19-1.01.01-1.33.14-2.87-.19-4.14.04-.95.1-2.07.2-3.01.02-.19.07-.86.34-.85.63,1.73,1.17,3.52,1.57,5.32,1.2,5.44.37,8.84-.7,14.18-.48,2.4-1.16,4.7-1.77,7.05-.14.53.26.08.36.08,1.38.04,2.15-.63,3.31-1.29.06-.04.11-.14.18-.18.1-.05.21-.09.37-.18s.16-.19.55-.37c.96-.44,1.61-.82,2.57-1.47.07-.04.12-.14.18-.18.92-.04,1.45-.69,2.02-1.29.06-.06.13-.12.18-.18.82-.07.71-.32.92-.92.02-.05-.02-.13,0-.18h.18c.39.1.76-1.07.82-1.29,1.09-3.85-.75-12.07-1.92-16.03-.07-.24-.34-.09-.37-.13-.24-.24-.5-.65-.73-.92-.57-.67-1.14-1.49-1.83-2.12-.22-.2-.47-.35-.74-.45-.29-.45-.57-.75-.73-1.29-.04-.13.08-.42-.02-.53-.08-.08-.31,0-.34-.02-.53-.48-1.2-1.94-1.5-2.63-1.63-3.76-2.07-7.9-2.91-11.88-.33-.04-.18.41-.16.62.03.32.39,1.22.04,1.41-.81.46-2.22,0-2.82-.66-.24-.26-.05-.66-.37-.64-.01,1.77,0,3.55,0,5.33-.38-.66-.13-1.68-.18-2.49-.01-.24-.19-.48-.19-.54v-4.59c0-.11-1.02-1.58-1.17-1.95-.33-.79-.48-1.72-.85-2.55.61-.43-.49-1.37-.73-1.1-.08,2.18-.4,4.35-.55,6.52-.26,3.88-.3,7.49-.73,11.39-.02.17.13,2.4-.37,1.74-.09-2.79-.26-5.56-.37-8.35-.38-9.81-.36-20.74,5.31-29.09.03-.05.47-.76.2-.76.18-.25.37-.49.55-.73.01-.02.24.06.38-.12.96-1.24,2.26-5.57,2.52-7.19.06-.36.12-.47-.14-.78-.25-.29-.27.04-.4.24-1.14,1.71-1.91,3.71-3.27,5.27-.13-2.01,1.48-5.08,2.38-6.93.44-.89.96-1.77,1.38-2.62.1-.2.41-.78.09-.92.98-2.08,1.7-4.32,2.84-6.43,2.36-4.38,5.41-8.33,9.09-11.66-.4-.08-1.03.26-1.41.43-3.5,1.54-6.59,3.41-9.33,6.09-.28-.14.05-.44.12-.61.55-1.29,1.44-2.74,2.54-3.61l.09.18c.51-.07.43-.51.46-.55.06-.07.12-.12.18-.18.8-.1,1.26-.74,1.97-1.06,1.71-.78,3.87-1.1,5.75-1.14,0-.12,0-.24,0-.37,0-.11.02-.29,0-.37.98-.12.04-.81.01-.88-.25-.58.09-1.2-.75-.78-.22-.81-.2-1.88-.39-2.45-.3-.9-3.04-.3-3.77.03-2.42,1.11-5.62,5.77-6.95,8.11-1.17,2.07-1.96,4.32-3.03,6.43ZM81.08,20.93c-1.28.08-2.18.86-3.3,1.2-.91.27-1.85.28-2.85.64-3.07,1.09-4.85,3.14-6.88,5.51s-5.79,9.68-6.17,13.04c-.19,1.66-.1,4.11-.24,5.99-.43,5.83-2.16,12.62-1.68,18.35s1.13,15.26,3.07,20.62c.15.4.45,1.33.97,1.32,1.75,4.83,4.1,6.77,7.53,10.29l-.18.09c.48.39.83,1.09,1.47,1.19.06.06.12.12.18.18,0,.45.36.6.73.73.06.06.12.12.18.18s.12.12.18.18.12.12.18.18.12.12.18.18c.24.25.49.49.73.73,6.53,6.59,14.16,6.71,22.36,2.99.32-.14.61-.12.59-.61,1.67-.87,3.24-2.05,4.77-3.12,4.26-2.99,6.59-5.47,10.1-9.18,3.29-3.49,4.62-11.38,5.3-16.28.23-1.65,1.04-7.67.68-8.89-.31-1.02-1.17-2.33-1.6-3.36-1.77-4.24-3.38-8.53-4.68-12.94-1.85-1.09-4.06-2.26-6.23-2.59-3.56-.55-7.09.78-10.62.7-.52-.01-.6.46-.99-.13-.19-.29-.32-.34-.21-.78.05-.08.14-.13.18-.18.6-.03.79-.45,1.43-.68,3.91-1.42,10.69-1.4,14.32.99.42.28,1.88,2.28,1.58.27-.42-2.85-1.71-7.27-2.58-10.09-.65-2.1-1.49-4.66-2.8-6.1-1.65-1.81-2.54-3.17-4.59-4.78-.02-.32-.81-.92-1.06-1.09-5.62-3.97-9.99-5.21-16.82-4.72-.42.03-.8.28-1.22.31-.56-1.4,1.47-2.25,2.57-2.76,2.46-1.15,6.41-.11,8.95.69,3.39,1.06,6.59,2.82,9.22,5.19.1-.37-.12-.5-.27-.74-1.06-1.78-4.43-4.8-6.21-5.91-3.76-2.35-12.22-3.97-14.86.65-.53.93-.53,1.88-1.43,2.51ZM57.03,57.11c-.22.39-.71.7-.72,1.19,0,.81.93,2.32.53,3.4l-.6-.78c-.08-.3-.2-.58-.31-.87l.18-.09c-.02-.13.04-.4,0-.46-.02-.02-.26,0-.37,0-.06,0-.13,0-.18,0-.11,0-.31-.04-.35,0-.05.07-.42,1.42-.48,1.64-.53,2.24-.54,4.96-.25,7.24.05.39.12,1.03.53,1.21.01.06-.01.12,0,.18.16.8.86,3.13,1.33,3.63.08.08.3.02.32.04.35.42.88,1.18,1.29,1.47.06.05.02.29.37.18.13-.62-.11-1.2-.16-1.77-.41-4.94-.84-10.07-.77-15.23,0-.45.41-1.13-.09-1.37-.38-.18-.24.3-.27.37ZM121.48,76.21c0,.24,0,.49,0,.73-.61-.2-.54,1.36,0,1.1,0,.06,0,.12,0,.18,0,.12,0,.25,0,.37.14.11,1.53-.39,1.72-.54s.09-.35.12-.38c.3-.37,1.22-1.74,1.22-2.11,0-.27-1.65-2.54-1.96-3.03-.17-.28-.42-.65-.55-.92,0-.02.3-.11,0-.18-.1-.02-.25.01-.37,0-.15-.01-.06-.45-.19.08-.28,1.16-.2,2.48-.18,3.68,0,.31-.12.82.19,1.01ZM128.64,80.26c-.16-.32-.56-1.34-.83-1.47-.35-.17-.37.79-.82.86-.12,7.1-2.87,13.85-5.14,20.45-.06.18-.46.67-.55.92-.52,1.49-.99,2.92-1.26,4.53-.43,2.61-.57,5.32-.58,7.96l-.55-2.3c-.27-3.14.26-6,.68-9.05.05-.34.16-.67-.14-.96.02-.11-.02-.26,0-.37.49.1.37-.24.45-.55,1.16-4.1,2.66-8.09,3.82-12.17.28-.97.55-1.36.32-2.34-.01-.05,0-.18,0-.18.06-.03.35.09.38-.11.08-.48-.23-1.18-.74-.5-.2.27,0,.4-.01.42-2.91,5.94-8.36,12.2-9,19.1-.56,2.34-1.28,4.64-1.84,6.98-.51-.12-.56.94-.65,1.28-.61,2.5-1.27,5.64-1.53,8.2-.76,7.28.77,11.8-3.21,18.64-.08.13-.43.65-.12.71-3.31,5.39-6.5,9.12-7.9,15.61-.45-.1-.4.23-.46.54-.62,3.13-.74,8.91.74,11.78.11.21.26-.03.27-.02.32.34.49.83.73.55.39-.45.12-2,.18-2.67.26-2.96,1.03-5.81,2.07-8.58l2.16-4.91c2.42-3.93,5.82-6.8,8.26-10.47.1.38.48-.22.52-.3,1.26-2.35,2.39-4.67,3.28-7.19l1.61-8.31c.96,4.36.32,8.16-1.13,12.28-.07.21-.5.59-.06.76-.88,2.13-1.99,4.07-3.34,5.94-.56.78-5.06,6.44-5.47,6.55-1.13.31-3.57,6.28-4.09,7.94-1.15,3.66-1.72,7.37.45,10.78.07,0,.14-.17.15-.17.21.06,1.56,2.05,2.02,2.48,1.21,1.16,3,2.16,4.59,2.66-.53-.62-.92-1.29-1.29-2.02.38-.18.07-.57-.03-.8-2.19-5.44-1.11-11.27,1.81-16.25.13-.22-.11-.51.42-.4-.2.41-.09.99-.19,1.34-.48,1.7-.56,4.18-.34,6.26.06.53.12,1.39.53,1.77,0,.06-.01.12,0,.18.28,1.46.82,2.14,1.68,3.29.08,0,.14-.17.15-.17.74.41,1.46,1.4,2.38,1.93,1.12.65,2.56,1.14,3.86,1.19-.99-1.24-1.74-2.7-2.2-4.22.35-.18.11-.62.06-.89-.65-3.97-.23-7.47,1.08-11.28l2.34-5.1c.49-.75.89-1.51,1.47-2.2,3.24-3.92,3.83-10.6,3.68-15.71-.16-5.4-2.1-10.78-2.04-16.35.01-1.03.33-2.33.38-3.39.47-.05.29,0,.37.27.66,2.24,1.08,5.26,1.56,7.62,2.55,12.67,3.91,18.73-2.87,30.34-1.01,1.73-1.83,2.32-2.18,4.38-.01.06,0,.12,0,.18-.98.07-.36.74-.37.92,0,.06,0,.12,0,.18-.45-.09-.4.2-.5.51-.76,2.44-1.1,5.65-.62,8.05.07.33.33,2,.39,2.09.05.06.28-.02.36,0,.13.46,1.16,2.07,1.59,2.19.24.06.2-.15.25-.17.06-.02.12-.14.18-.18.07-.05.37.12.38-.11.02-.43-.23-1.13-.19-1.82.12-2.54,1.24-7.02,2.61-9.15.1-.16.55-.56.15-.68,2.59-4.29,5.6-6.76,7.53-11.76.48.32.29.19.45-.18,1.57-3.72,2.03-8.05,2.11-12.02.2-9.81-4.73-18.13-5.5-27.93-.55-7.13,1.29-14.18-.98-21.07-.1-.3-.04-.6-.49-.51-.39-1.32-.67-2.41-1.29-3.67ZM100.91,105.97c-.51-.44-1.33.57-1.62.72-7.02,3.58-16.37,4.33-22.94-.7-.21-.16-.4-.48-.59-.02-1.33-.94-2.32-1.84-3.49-2.94l-.46-.92-.45.28.54,1.18c0,.06,0,.12,0,.18-.32.99.03,2.51.37,3.49,0,.06,0,.12,0,.18.12,2.27.22,4.43,0,6.7-.42,4.35-2.12,8.8-.73,13.13,0,.06,0,.12,0,.18.3,3.18,2.68,10.29,5.14,12.35.08.07.63.5.67.51.48.11.58-.19.61-.19.06,0,.12,0,.18,0-.23.91.92.56,1.35.62,3.68.55,6.86.67,10.59-.16.58-.13,2.11-.31,2.2-1.01,3.7-1.33,7.67-3.77,10.74-6.25.49-.4,2.83-2.71,3.03-2.75.01,0,.09.17.17.18l.2-.55c.06-.06.12-.12.18-.18.44-.4.77-.61.87-1.24.2-1.32-.04-2.83.05-4.18.47-6.73,2.17-12.25,3.55-18.68.06-.27.29-.71-.06-.89.54-2.13,1.12-4.27,1.56-6.43.09-.44.32-1.05.18-1.47-3.71,3.23-7.55,6.38-11.84,8.82ZM68.23,121.4c-.05.02-.14-.03-.18,0-1.89.83-2.71.57-2.92,2.87-.11,1.2.05,2.57.34,3.74,0,.06,0,.12,0,.18,0,.24-.09.61.18.73,0,.06,0,.12,0,.18.15,1.52.63,2.46,1.23,3.82.08.18.12.68.42.4,1.49,2.4,3.28,3.01,4.96,4.78.12.13.16.52.19.54.21.14.74-.04.7-.42-.05-.58-1.08-1.76-1.36-2.32-1.32-2.6-2.79-7.13-3.02-10.02-.12-1.55.1-3.13-.19-4.68-.34-.1-.32.16-.37.18ZM102.38,137.56c2.22-1.04,4.59-2.37,4.59-5.14l-4.59,5.14ZM78.33,149.5c-.25.17-.45.65-.92.92-.14.08-.46-.18-.37.27.03.13.18.08.18.09,0,.09-.73,1.13-.84,1.64-.37,1.79.49,3.13,1.75,4.24.02.02-.05.24.04.32.98.78,3.85.5,4.9-.24,2.47-1.73,2.25-4.37,1.24-6.91-.02-.04-.37-.98-.5-.51-.04-.08-.31-.48-.37-.55-.96-1.13-4.3-.65-5.14.73ZM6.35,200.38c-.01.06.01.12,0,.18-.49.5-.33,1.22-.37,1.84,0,.06,0,.12,0,.18-.27.22-.28.54-.34.85-1.38,7.01-2.12,14.14-2.42,21.28-.22,5.31-.4,18.53,3.04,22.68.18.21.42.16.45.19.11.11.26.27.37.37-.34.05.03.48.13.56,3.01,2.42,6.82,2.23,10.64,2.68,19.92,2.35,36.58,3.71,56.55-.28.91-.18,1.89-.23,2.78-.53.48-.16.06-.15.05-.23-.02-.12.02-.26,0-.37-.05-.22-.1-.2-.18,0-12.92-6.94-24.77-16.24-38.19-22.22,0-.49-.75-.81-1.12-.99-2.76-1.29-5.85-1.75-8.75-2.64-3.25-1-6.41-2.28-9.59-3.44-.32-.27-.15-.83-.18-1.2.92-.34,5.41,1.06,5.84.69.09-.07,0-.3.03-.32.02-.02.32.08.37-.12.07-.29-.05-.73,0-1.07.62-4.28,2.22-7.89,4.22-11.67.04-.12.17-.27.18-.37.57.09.35-.23.32-.59-.6-5.49-1.05-10.08-.29-15.64.32-2.32,1-4.58,1.39-6.87.19-1.08.65-2.47-.13-3.26-3.72-3.84-10.89-6.81-15.98-7.89-.16-.03-1.04-.06-1.1-.02-.07.05-.71,1.38-.79,1.61-1.58,4.14-2.96,9.55-4.11,13.89-1.11,4.19-2.18,8.42-2.81,12.71ZM144.98,194.32c-1.85-1.37-6.25-.87-8.51-.52-2.66.41-5.1,1.17-7.47,2.44l-.91.65c-5.55,3.12-13.12,14.38-16.89,19.84-.39.57-1.13.92-.92,1.84,0,.04.13.12.18.18.04.04-.12.29.12.37.36.11.97.08,1.42.2,1.3.35,2.61.76,3.93,1.03s4.39.97,5.64.99c1.33.01,2.37-2.06,3.53-2.64.09-.08.02-.28.05-.32.06-.07.06-.12.18-.18.07-.03.26.03.37,0,0-.1-.19-.17-.19-.18,0-.22,2.06-1.62,2.39-1.84.16.44.49-.07.65-.17,4.92-3.37,12.2-4.13,17.98-4.22,1.27-.02,2.68.26,3.7-.62.11-.09.05-.29.07-.31.03-.03.25.06.35-.03.13-.12-.17-.32-.17-.33.09-.38.45-.61.37-1.18-.04-.31-.51-.73-.74-1.02,0-.01.2-.07.01-.26-.75-.77-3.78-.72-4.89-.67-2.96.12-6.99.38-9.91.74-.7.09-1.87.15-2.3.73-.06.01-.12-.01-.18,0-.67.12-.23.19-.37.37-.15.2-3.76,1.58-4.53,1.99-1.96,1.04-5.49,3.99-7.03,4.54-.16.06-.49.21-.55,0,.49-1.07,1.1-1.81,1.84-2.66.32-.12.63-.15.55-.55.2-.21.35-.36.55-.55,1.1-.5,2-1.58,2.98-2.26,7.73-5.37,14.34-3.66,23-4.35.57-.05.86-.12,1.37-.37.3-.15.5-.16.7-.49,1.19-1.97-1.35-2.45-2.72-2.81.12-.53-.91-.62-1.24-.69-6.39-1.21-14.91,0-20.43,3.26.02.09.19.17.19.18-.02.2-2.92,1.92-3.37,2.24-.48.34-3.41,2.85-3.8,2.54,1.29-3.01,3.66-4.93,6.24-6.79.19.47.49-.09.64-.19,3.3-2.3,8.37-3.87,12.36-4.53,1.56-.26,5.95-.12,6.43-2.03.18-.7-.03-.62-.33-.96-.04-.05-.35-.35-.37-.37ZM144.43,216.91c.68-.85,1.99-1.35,1.84-2.75-1.05.05-2.14-.08-3.19.02-2.06.19-5.59.87-7.64,1.35-4.42,1.03-7.63,3.86-11.38,6.16l4.36,1.61c.45.16.76-.03,1.15-.14.55.46.99-.28,1.42-.5,1.17-.61,2.65-1.34,3.87-1.82,2.49-.98,8.16-2.14,9.58-3.92Z"/>
  <path class="cls-3" d="M172.34,173.93v.18c-1.54,16.8-5.71,33.32-11.61,49.09-2.72,7.27-5.89,14.81-9.59,21.63-.84,1.56-1.89,3.01-2.67,4.59-1.61,2.13-3.04,4.39-4.77,6.43h-42.23c-2.44-.9-5.04-1.35-7.53-2.11-4.19-1.28-8.27-2.97-12.12-5.05-11.02-5.95-21.21-13.49-32.13-19.65-3.8-2.14-7.75-4.45-11.81-6.1-2.93-1.19-5.94-1.49-8.94-2.45-.59-.49-.25-2.34-.14-3.07.32-2.05,1.17-3.95,1.97-5.84.02-.05-.02-.13,0-.18.39-.32.66-1.11,1.14-1.33.59-.28,2.97-.69,3.81-.87.17.35.62.11.89.06,2.95-.47,6.52-1.01,9.49-.8,1.25.09,2.76.73,3.95.36,4.94,1.17,10.5,3.63,15.46,5.2,2.67.84,5.35,1.58,8.04,2.33-.09.45.2.4.51.5,3.97,1.25,9.15,2.53,13.27,2.99.06,0,.12,0,.18,0,.52.34,1.24.32,1.84.37.06,0,.12,0,.18,0,.15.3.62.18.92.18.06,0,.12,0,.18,0,.12.29.8.29.92,0,5.65.51,11.85,1.32,17.51,2.04,7.17.92,13.6,2.46,20.36,4.98,1.05.39,3.56,1.75,4.45,1.6.17-.03.22-.15.28-.18,1.29-.62.96-2.56-.09-3.31l-1.56-.92c.76-.26,1.46-.63,2.2-.92,4.26-1.68,11.09-3.02,13.44-7.22.23-.41.8-2.24.91-2.3.15-.1.65,0,.94-.07,3.05-.81,4.65-3.35,3.26-6.39,0-.12-.02-.26,0-.37.26-1.2,1-1.7,1.11-3.02.12-1.5-.13-1.77-.92-2.86-.14-.2-.25-.24-.37-.37-.02-.02.05-.22-.13-.37-.35-.31-1.24-.88-1.71-.91-.06,0-.12,0-.18,0,.11-.56-.27-.32-.61-.39-.54-.11-3.34-.61-3.43-1,1.23-1.89,1.44-3.9-.19-5.59-.14-.14-.18-.22-.37-.37-.97-.76-1.22-.81-2.39-1.1.1-.46-.23-.39-.54-.46-3.97-.9-8.86-.08-12.68,1.19-.23-.23.89-1.48.37-1.84,1.25-3.37,1.51-8.29,3.67-10.84,1.09-1.28,3.79-2.88,5.33-3.67,7.27-3.76,18.01-6.17,26.08-4.32,2.14.49,4.16,1.4,6.06,2.48Z"/>
  <path class="cls-6" d="M8.18,252.73c.26-.67,1.07.1,1.54.22,3.07.8,7.03.73,10.26,1.11,3.52.42,7.23.98,10.88,1.43.34.04.74-.23.64.36-.48-.03-.99.04-1.47,0-3.97-.31-8.07-1.15-12.05-1.63-3.28-.4-6.72-.17-9.8-1.49Z"/>
  <path class="cls-6" d="M101.46,255.85c-.3-.02-.62.03-.92,0-5.23-.54-13.35-4.19-18.12-6.58-.06-.03-1-.43-.61-.58,3.85,2.08,7.93,3.77,12.12,5.05,2.49.76,5.08,1.22,7.53,2.11Z"/>
  <path class="cls-6" d="M155.27,255.85h-.37c-.24-2.49-.48-5.06-1.04-7.46.32-.62-.26-.96-.26-1.44,0-.55.72-1.39,1.12-1.75-.29.67-.63,1.37-.56,2.12l1.11,8.54Z"/>
  <path class="cls-6" d="M33.16,255.85h-1.29c.23-.3,1.05-.3,1.29,0Z"/>
  <path class="cls-6" d="M54.09,26.99c.33.12.03.57-.05.78-3.54,9.39-5.94,18.71-7.98,28.57-2.27,10.99-4.48,23.41-3.91,34.66.29,5.72,1.93,11.31,1.28,17.08-.47,4.2-1.94,8.25-3.86,11.94-.08.16-.17.63-.36.28,2.69-4.55,4.31-11.91,4.04-17.17-.34-6.55-1.74-12.25-1.48-19.11.6-15.53,5.93-42.92,12.31-57.02Z"/>
  <path class="cls-6" d="M17.91,146.56l.15.38c-.45.97-.94,1.94-1.35,2.93-2.39,5.83-5.04,12.6-6.61,18.91-.29,1.18-.64,2.93-.27,4.1.11.35.74.03.51,1.47-.42,2.59-2.05,6.41-2.81,9.13-3.09,11.17-5.75,23.66-6.7,35.18-.61,7.36-1.34,25.66,3.72,31.26.33.36,1.02.29,1.05,1.15-4.47-3.79-5.28-11.56-5.52-17.17-.85-20.19,4.14-41.01,10.07-60.1-1.39-1.66-.75-3.36-.31-5.28,1.58-6.93,5.04-15.51,8.07-21.96Z"/>
  <path class="cls-6" d="M149.39,104.32c-.35-.12-.37-.44-.46-.73-2.57-7.96-1.83-15.75-2.87-23.76-.66-5.09-1.96-10.78-3.29-15.99-3.06-11.94-7.16-22.97-12.57-34.27-.09-.19-.46-.63-.09-.74,7.47,13.75,13.66,33.67,15.94,49.16.86,5.8.75,11.32,1.32,17.05.31,3.17,1.25,6.21,2.02,9.28Z"/>
  <path class="cls-6" d="M177.3,185.69c-.98.84-1.96,1.62-3.12,2.2-2.92,15.39-7.5,30.42-13.59,44.82-.38-.17-.07-.57.02-.8,4.57-12.13,8.48-22.86,11.49-35.71.54-2.28,1.06-4.65,1.51-6.6.1-.41.01-1.19.2-1.57.11-.22.34-.11.36-.13.63-.77,1.07-.92,1.91-1.5.37-.26.46-.75,1.22-.7Z"/>
  <path class="cls-6" d="M177.48,185.5c.01-.84.98-1.06,1.24-1.33,3.33-3.35.62-12.76.07-17.16-1.2-9.52-.63-21.55-4.81-30.23-.12-.26-1.17-1.11-.72-1.61,5.29,8.8,4.49,20.08,5.56,29.98.53,4.87,3.22,13.65.9,17.9-.71,1.29-1.28,1.6-2.24,2.45Z"/>
  <path class="cls-6" d="M76.67,3.66C86.82-2.63,98.7,0,108.32,5.43c.28.16.66.11.86.43-9.99-5.32-21.06-7.97-31.82-2.35-.23.12-.4.45-.68.14Z"/>
  <path class="cls-6" d="M151.78,112.95c-.77-2.1-1.26-4.31-1.85-6.47-.15-.54-.36-1.28-.53-1.98.7,1.31,1.16,2.96,1.56,4.41.38,1.37.58,2.75.83,4.04Z"/>
  <path class="cls-6" d="M151.78,113.13c.45.5.53,1.35.68,1.99.44,1.93.82,3.91,1,5.88,3.6,1.46,6.95,2.92,10.25,4.99l-1.4-.52c-2.77-1.69-5.88-2.76-8.83-4.12-.14-.25-.3-.54-.37-.82-.57-2.26-.89-5.05-1.33-7.39Z"/>
  <path class="cls-6" d="M6.9,251.99c-.51-.3-.62-.36-1.1-.73.43.11,1.69.23,1.1.73Z"/>
  <path class="cls-3" d="M81.08,20.93s.16.12.3.13c.24.01.95-.3.99.06.01.11-.25.29-.18.37.33.4,1.63-.15,2.11-.18,7.05-.43,12.39,1.21,17.9,5.51,2.06,1.6,2.94,2.97,4.59,4.78,2.71,5.12,3.62,10.91,5.13,16.45.09.83-.99-.59-1.09-.66l-1.19-.92c-3.29-1.92-11.83-2.3-14.6.37-.07.07-.11.27-.18.37-.04.06-.13.1-.18.18-.03.04-.29.08-.34.31-.18.76.75,1.15,1.35,1.18,2.37.14,5.55-.97,8.09-1.12,3-.17,6.15.93,8.62,2.57,1.14,3.26,2.17,6.56,3.45,9.78.61,1.55,2.69,5.43,2.88,6.67.33,2.15-.53,7.81-.91,10.18-.56-.36-.29-.11-.36.28-.16.88-.24,1.77-.37,2.66,0,.06,0,.12,0,.18-.93,3.04-1.45,6.31-2.84,9.19-.33.68-1,1.4-1.3,2.02-.05.11,0,.14.09.17v.18c-3.51,3.71-5.84,6.19-10.1,9.18-.17-.45-.49.07-.64.18-5.9,4.58-13.99,7.12-21.2,4.13l-2.39-1c-1.28-.79-2.3-1.67-3.49-2.57-.24-.25-.49-.49-.73-.73l-.18-.18c-.06-.06-.12-.12-.18-.18l-.18-.18c-.06-.06-.12-.12-.18-.18-.24-.24-.49-.49-.73-.73-.06-.06-.12-.12-.18-.18-.42-.42-.87-.86-1.29-1.29-3.43-3.51-5.77-5.45-7.53-10.29-1.2-3.3-1.87-6.82-2.39-10.29.44-.93-.08-2.22-.18-3.22-.6-5.73-1-10.98-.39-16.74.03-.3.15-.8-.16-.99.4-3.02,1.14-6.04,1.29-9.08.29-5.63.01-7.2,2.35-12.53.99-2.26,2.26-4.38,3.52-6.49,2.04-2.38,3.82-4.42,6.88-5.51,1-.36,1.94-.36,2.85-.64,1.12-.34,2.02-1.12,3.3-1.2ZM79.61,46.09c.31-.47.2-.29-.18-.45-2.7-1.12-8.55-.77-11.3.26-.66.25-.98.64-1.55.93l.18.18v.18c-.53.36-.71.7-1.1,1.1-.06.06-.12.12-.18.18-.39.42-.58.61-.92,1.1s-.87.99-.92,1.65c.14.14,1.53-.71,1.8-.86.28-.16.2-.42.22-.43,2.44-1.49,6.13-2.24,9-2.02-.19.42.62.46,1.1.55.1.57-.29.34-.64.36-3.45.29-5.97-.14-8.37,2.84-.73.91-.96,2.82.56,3.04-.75.93-.85,1.97-2.57,1.65.16.52.79.66,1.1.92.02.02-.1.33.11.38,1.08.25,2.95.15,4.11.18-.54.96-.44,1.34.18,2.2,1.52,2.12,4.53,1.23,6.43.18,1.42-.78,1.57-.98,2.58-2.29.21-.27.44-.4.36-.83.41,0,1.73.13,1.84-.18.23-.68-.75-2.63-1.29-3.12v-.18c.21-1.62,1.2-2.91.73-4.59.15-.03.57-.25.66-.37.17-.22-.11-.34-.11-.36-.02-.36.02-.87-.17-1.18-.12-.2-.36-.08-.39-.11-.02-.02.06-.27-.03-.33-.28-.19-.73-.32-1.07-.41-.05-.03-.11-.15-.18-.18ZM111.56,55.83c.36-1.22,1.1-1.69.65-3.13-.17-.56-1.87-2.41-2.49-2.66-2.57-1-8.17-1.6-10.56-.09-.55.35-1.35,1.37-.46,1.84-1.04.28-1.61,1.04-2.39,1.75l2.39-.46-.92.73c-.47.31-2.5,2.55-2.55,2.87-.14.78,1.31.64,1.82.43.03.07.18.15.18.18.11.91-.19,1.4.33,2.33.59,1.05.82.57,1.51.79.6.19,1.23.6,1.79.69,1.6.27,3.44-.06,4.91-.69.3-.22-.15-.2-.27-.18.99-.92-.88-1.61-.37-2.57.05-.02.11-.15.18-.18.08.36.42-.13.66-.14.68-.01,1.81.09,2.55.14.86.05,1.89.25,2.75.37.31-.13-.41-.36-.46-.37.54-.01,2.18.16,2.37-.47.25-.8-1.09-.65-1.5-.82-.22-.09-.12-.35-.13-.36ZM83.28,71.62c0-.31-.29-.61-.33-.87-.24-1.67,1.85-6.44,2.26-8.49s.76-6.4.41-8.5c-.13-.75-1.37-2.59-1.96-1.68-.38.59,0,2.57-.01,3.48-.04,2.08-.46,4.9-.98,6.92-.63,2.45-2.44,5.77-1.93,8.28.11.55.63.88.69,1.42-.25.23-2.12-.73-1.84-1.47.37-.25.26-3.84-1.29-1.1-.65,1.15-.88,1.93-.07,3.11,1.23,1.78,3.66,1.53,5.44,2.27.87.36,1.89,1.46,2.85,1.57,1.1.13,1.43-.51,2.06-1.07.17-.15,1.1-1.02,1.1-1.1,1.61-.06,3.07.25,4.59-.37,3.35-1.35,1.77-5.94-.29-6.06-1.91-.11.36,2.22.3,2.84-.09.95-2.81,1.36-3.59,1.38-.43.02-.95-.31-1.43-.19-.22.06-1.46,2.06-2.98,2.05s-2.06-1.93-2.66-2.04l-.18-.18c-.04-.07-.14-.12-.18-.18ZM103.12,76.58c.27.25.39.75.92.73.46.53.8.82,1.29,1.29-.05.56.57.59.73.88.55,1.02-.04,3.24,0,4.35.03,1.23,1.03-.43,1.2-.82.79-1.8.56-3.35-.46-4.96-1.14-1.81-4.42-4.52-6.42-5.24-.25-.09-.62-.28-.55.19.9,1.4,2.11,2.46,3.3,3.58ZM71.35,75.48c-1.64,1.94-3.39,6.07-1.1,8.08.17-2.52.56-5.04,2.02-7.16.95-.52,2.06-2.69,2.94-3.49-1.53.42-2.84,1.37-3.86,2.57ZM73.55,82.46c1.48,1.78,2.74,3.35,4.59,4.78.16.12.31.14.37.18.06.04.11.13.18.18.98.67,1.93,1.39,3.07,1.8,2.54.91,9.8,1.22,12.17.04.08-.04.14-.16.18-.18.47,0,.87-.19,1.29-.37,2.12-.91,3.6-2.4,5.14-4.04.28-.3.75-.43.73-.92.12-.06.25-.12.37-.18.01,0,.05.17.27.02.25-.17,1.04-1.03,1.13-1.3.39-1.26-1.38-1.36-2.22-1.47-1.92-.25-3.97-.09-5.78-.19-6.91-.35-12.61-.43-19.56.18-.62.05-2.53-.26-2.64.49-.05.33.53.76.72.99ZM92.28,92.38c.35-.25,1.06-.42,1.29-.92-1.38.16-2.92.52-4.31.56-2.43.07-4.86-.64-7.26-.19-.05.63.61.72.92.92,3.12,2.06,6.46,1.68,9.36-.37Z"/>
  <path class="cls-3" d="M6.35,200.38s.23-.14.28-.36c1.98-9.31,4.26-18.62,7.64-27.54.32-.2,6.41,1.69,7.23,1.99,2.34.88,5.53,2.5,7.48,4.04.33.26,2.02,1.85,2.17,2.11.1.18.22.3.16.53-.64,3.41-1.43,6.77-1.83,10.22-.58-.11-.31.29-.37.63-.31,1.76-.18,3.43-.17,5.15.01,1.93-.19,3.92.36,5.79,0,.06,0,.12,0,.18.03.79.06,1.5.19,2.29.06.4-.2.64.36.28-.02.24.03.5,0,.73-.01.1-.15.25-.18.37-.43-.09-.39.21-.52.48-1.92,3.96-4.05,7.79-4.07,12.38-.39.4-4.89-1.06-5.94-.71-.78.26-.16,1.49.45,1.89,1.42.91,6.31,2.47,8.15,3.05,3.99,1.26,7.19,1.92,11.11,3.67,13.43,5.99,25.28,15.29,38.19,22.22h.18c.02.1-.02.25,0,.37-2.52.36-5.01.9-7.53,1.29-.18-.29-.71-.21-1.01-.18-4.23.39-8.37,1.28-12.68,1.47-.35.02-.74-.19-.63.37-.12,0-.25,0-.37,0-.19-.3-.7-.18-1.01-.19-4.54-.05-9.26.2-13.77,0-6.28-.28-12.54-1.38-18.79-1.97-.34-.03-.66-.17-.95.13-.18-.02-.37.02-.55,0,.35-.54.13-.31-.28-.36-2.67-.35-5.37-.56-8.06-.76l-2.86-.72c-.77-.43-1.04-.73-1.65-1.29-.11-.1-.26-.26-.37-.37-2.3-3.63-2.82-8.09-3.12-12.31.52-1.45.02-3.23,0-4.68-.11-5.8.7-11.2,1.12-16.9.02-.3.09-.83-.19-1.02.43-3.35,1.2-6.8,1.47-10.1,0-.06,0-.12,0-.18.19-.46.41-1.12.51-1.6.03-.13-.14-.23-.14-.24.01-.06-.01-.12,0-.18Z"/>
  <path class="cls-1" d="M97.06,4.03c.06,0,.12,0,.18,0-.1.49.25.36.55.45.66.2,1.77.71,2.39.47,1.76.66,4.25,1.83,5.88,2.76,9.26,5.28,15.92,13.81,21.3,22.78,3.36,6.43,5.96,13.23,8.27,20.11s4.41,14.15,5.87,21.4c.01.06-.01.12,0,.18,1.43,7.19,1.64,12.52,2.01,19.75.44,8.52,3.98,16.42,5.7,24.7,0,.06,0,.12,0,.18,0,.38.2.72.18,1.1l-1.28-.92c-.29-.34-.39-.45-.73-.73-2.74-3.05-4.39-6.27-5.46-10.25-.76-2.86-1.34-5.99-1.73-8.92l-.71-3.42c-.59,3.51-1.58,6.93-1.26,10.54.27,3.1,1.9,5.95,2.92,8.84,3.4,9.63,4.97,19.9-.55,29.12-1.11,1.68-2.26,3.36-3.49,4.96-.12.16-.47.19-.37.55-.18.12-.39.24-.55.37,1.56-4.29,2.67-8.81,2.75-13.41h.18l.18.37c-.04-1.62.07-3.25,0-4.87-.01-.35.19-.74-.37-.63-.64-9.52-5.86-18.18-5.33-27.83.16-2.86.89-5.73.93-8.62.11-6.39-2.12-13.58-5.7-18.84-1.34-1.96-2.96-3.75-4.27-5.74-3.09-4.7-4.83-9.33-6.94-14.46-.07-.18-.18-.3-.37-.37,0-.06.01-.13,0-.18-.44-2.12-1.37-4.44-1.97-6.57-2.75-9.83-4.2-18.84-11.25-26.67-1.65-1.83-3.38-3.68-5.51-4.96-5.23-3.13-14.89-4.24-18.44,1.85-.24.41-.59,1.59-.66,1.64-.04.03-.25-.02-.37,0-.59-1.75-.62-3.71.37-5.33.07-.06.12-.13.18-.18,1.1-1.02,1.54-1.7,2.94-2.39,3.19-1.58,6.81-2.19,10.37-2.02.63.03,1.52.49,2.11,0,3,.35,5.85,1.41,8.63,2.39.17-.13-1.47-.99-1.65-1.1.05-.34-.9-.88-1.12-.99-1.83-.93-4.39-1.85-6.4-2.23-.28-.05-.75-.24-.93.1-4.78-.69-9.84-.17-13.77,2.76-3.27,2.43-5.03,5.46-3.31,9.55-.29.3-1.46-1.38-1.62-1.59-3.18-4.42-1.24-8.14,2.9-10.89,1.32-.88,3.62-1.91,5.14-2.39.27.3.55.08.84.02,4.47-.92,8.87-.87,13.3-.39ZM114.87,27.36c4.59,8.31,6.64,17.62,10.83,26.08,3.82,7.71,8.89,14.42,11.94,22.59,1.53,4.1,2.85,8.69,3.31,13.04l.36-1.56c-.07-2.93.32-6.19-.92-8.91,0-.06,0-.12,0-.18-.88-5.84-3.95-11.2-6.79-16.35-1.02-1.85-2.12-3.65-3.12-5.51-4.27-7.94-6.39-16.13-10.28-24.06-1.13-2.31-2.4-4.73-3.96-6.78-1.45-1.89-3.64-4.21-5.76-5.25,1.51,2.2,3.11,4.55,4.4,6.89Z"/>
  <path class="cls-1" d="M129.93,83.93c.61,2.07,1.06,3.71,1.29,5.88-.03,1.28.04,2.58,0,3.86-.15,4.97-.5,10,.21,14.94,1.1,7.65,4.71,14.72,5.12,22.53.05,1.04.04,2.26,0,3.31-.15,4.09-.74,7.41-2.2,11.2-1.93,4.99-4.94,7.47-7.53,11.76-2.12,3.51-3.21,7.63-2.94,11.76-.07.05-.13.16-.18.18-.31-.55-.92-.9-1.29-1.38-.33-.42.11-.39-.54-.64-.79-2.74-.74-5.13-.31-7.93.13-.87.6-2,.68-2.72,0-.06,0-.12,0-.18.07-.28.34-.67.37-.92,0-.06-.01-.12,0-.18,1.53-3.39,3.89-6.34,5.36-9.79,4.31-10.14.76-22.12-1.55-32.49-.12-.54-.24-1.12-.37-1.66-.04-.18-.06-.55-.31-.51-1.94,8.91,1.85,17.37,1.29,26.36-.24,3.89-1.52,7.51-3.31,10.92-.58.7-.98,1.45-1.47,2.2-3.15,4.84-5.24,11.54-3.49,17.27.47,1.52,1.21,2.99,2.2,4.22-1.3-.05-2.74-.54-3.86-1.19-.92-.53-1.64-1.53-2.38-1.93-.98-.89-1.11-2.14-1.84-3.12-.01-.06,0-.12,0-.18-.58-3.7-.35-7.03.55-10.65-.31-.06-.48.16-.64.37-3.48,4.82-4.84,12.96-2.12,18.36.37.73.75,1.4,1.29,2.02-1.59-.5-3.38-1.5-4.59-2.66-.46-.44-1.81-2.42-2.02-2.48-2.31-4.1-1.12-8.43.41-12.54.8-2.14,1.8-4.12,3.08-6.02.41-.11,4.91-5.77,5.47-6.55,1.34-1.87,2.46-3.81,3.34-5.94.98-2.37,1.69-4.58,1.84-7.16.31-.72.31-2.08,0-2.76-.08-1.36-.31-2.97-.56-4.31-.06-.3.12-.32-.36-.28-.71,5.94-1.77,12.2-5.14,17.27-2.44,3.67-5.84,6.54-8.26,10.47-2.96,4.8-4.79,10.46-4.41,16.16-.25.28-.41-.21-.73-.55-1.48-3.91-1.42-8.27-.55-12.31,1.39-6.49,4.59-10.22,7.9-15.61,2.06-3.36,3.1-6.49,3.31-10.47.37-1.5.14-3.22.18-4.78.12-4.79.92-8.96,2.02-13.59.55-2.34,1.28-4.64,1.84-6.98,0,.02.18.15.18.43,0,.31-.27.68-.18,1.04,2.07.07,2.42-1.28,3.23-2.73.13-.24.45-.39.53-.57.2-.44.02-.82.08-1.18.04-.21.45.01.57-.22.35-.65.74-3.41,1.04-4.43.94-3.19,2.2-6.3,3.35-9.41-1.33,4.43-3.1,8.85-4.04,13.41-.02.11.02.26,0,.37-.81,4.07-1.43,8.18-.46,12.31l.64,1.47c.14-2.28.13-4.61.37-6.89.25-2.4.92-4.7,1.28-7.07.09-.25.49-.74.55-.92l.18.73c.02-.21.07-.43.19-.6,2.25-3.5,3.47-8.67,4.57-12.73.29-1.06.33-3.12,1.21-3.94.35-.32.96-.32,1.12-.91.18-.65-.82-1.71-.48-2.39.61,1.26.89,2.35,1.29,3.67Z"/>
  <path class="cls-3" d="M111.01,105.05c-1.73,6.86-3.37,12.94-3.86,20.1-.12,1.67.4,3.4-.54,4.87-.06.06-.12.13-.18.18-.12.11-.32.15-.37.37-.2.04-2.54,2.35-3.03,2.75-3.07,2.48-7.03,4.92-10.74,6.25-.31.11-.61.27-.92.37-.18-.35-.62-.12-.89-.06-4.56.96-8.7.98-13.25-.12-.07-.04-.12-.13-.18-.18l-.55-.55c-1.41-1.55-2.03-3.02-2.84-4.96l-2.11-6.61c0-.06,0-.12,0-.18-.06-.68-.16-1.74-.18-2.48-.14-5.63,1.57-10.52,1.22-16.5-.02-.29-.08-.65-.3-.86,0-.06,0-.12,0-.18-.07-1.2-.18-2.25-.37-3.49,0-.06,0-.12,0-.18-.04-.31-.23-.59-.18-.92.02-.03.48.3.55.37,1.17,1.09,2.15,1.99,3.49,2.94,8.15,5.77,16.83,4.73,25.16,0,4.29-2.44,8.13-5.58,11.84-8.82.14.43-.09,1.03-.18,1.47-.44,2.15-1.03,4.3-1.56,6.43Z"/>
  <path class="cls-1" d="M70.43,18.17c.2.73.6,1.19.73,1.65.02.08,0,.26,0,.37-2.59.3-5.77.66-7.71,2.57-.06.06-.13.12-.18.18-.24.05-.37.23-.55.37-1.1.87-1.99,2.32-2.54,3.61-.07.17-.4.47-.12.61,2.74-2.68,5.83-4.55,9.33-6.09.38-.17,1.01-.51,1.41-.43-3.68,3.33-6.73,7.28-9.09,11.66-1.14,2.11-1.86,4.35-2.84,6.43-1.92,4.08-4.5,7.95-4.96,12.58.21.19.59-.7.65-.82.2-.42.49-.78.46-1.29,1.36-1.55,2.13-3.56,3.27-5.27.13-.2.15-.53.4-.24-.41,1.43-.63,2.91-1.1,4.32-.33,1.02-.83,2.03-1.35,2.89-.15.26-.25.58-.31.87-.19.24-.37.49-.55.73-4,5.54-4.77,9.61-5.51,16.35-.53-.34-.32-.15-.37.27-.41,3.97-.42,7.95-.37,11.94,0,.31-.12.82.19,1.01,0,.06,0,.12,0,.18,0,.92,0,1.84,0,2.75.33.01.18-.68.18-.92l.37,3.22c.01,1.32.04,2.73.19,4.04.03.23.06.98.36,1.01-.09-.77.42-1.46.54-2.13.44-2.48.41-5.19.57-7.7.23-3.64.16-7.32.74-10.93.25-.03.28.36.37.55.36.83.51,1.76.85,2.55.16.37,1.17,1.83,1.17,1.95v4.59c0,.07.18.3.19.54.04.8-.2,1.83.18,2.49,0,.39-.18.77-.18.92,0,.86.15,1.57.18,2.39.3,7.55,1.68,15.32-.09,22.78-1.34,5.65-4.02,11.59-8.91,14.97,1.19-.03,2.42-.67,3.58-1.02.24-.07.67-.35.83,0-4.05,1.49-8.32,2.19-12.49,3.31.22-.94,3.27-4.44,4.04-5.69,3.17-5.18,4.37-11.15,4.41-17.08,0-.12,0-.24,0-.37-.02-6.31-1.51-12.2-1.29-18.47.4-11.35,2.61-23.35,5.05-34.43,1.62-7.34,3.51-14.64,6.15-21.67,1.06-2.11,1.86-4.37,3.03-6.43,1.32-2.35,4.52-7,6.95-8.11.73-.33,3.48-.93,3.77-.03.19.57.17,1.65.39,2.45Z"/>
  <path class="cls-3" d="M144.98,194.32s.33.32.37.37c.6,1.35-1.46,2.22-2.49,2.37-6.41.94-11.15,1.4-16.6,5.34-2.58,1.86-4.95,3.79-6.24,6.79.38.31,3.32-2.2,3.8-2.54.45-.32,3.34-2.03,3.37-2.24,1.71-.66,3.29-1.64,5.05-2.21,4.55-1.48,11.84-1.78,16.44-.55,1.37.37,3.91.84,2.72,2.81-.2.33-.4.34-.7.49-5.75.56-11.83-.25-17.45,1.19-3.8.97-7.12,3.11-9.91,5.79-.2.2-.36.35-.55.55-.18.19-.34.31-.55.55-.74.85-1.35,1.59-1.84,2.66.06.22.4.06.55,0,1.54-.54,5.08-3.49,7.03-4.54.77-.41,4.38-1.79,4.53-1.99l.37-.37c.06-.01.12.01.18,0,3.48-.6,7.92-.96,11.47-1.11,1.72-.07,4.1-.26,5.61.56.23.29.7.71.74,1.02.08.57-.28.8-.37,1.18-.12.07-.15.34-.18.37-1.11.86-5.78.56-7.61.74-5.55.56-10.13,1.45-14.79,4.58-.33.22-2.39,1.62-2.39,1.84l-.18.18c-.12.06-.12.11-.18.18-1.06.4-2.25,2.67-3.41,2.75-3.77-.79-7.56-1.4-11.28-2.38-.05-.06-.17-.14-.18-.18l.92-1.84c3.77-5.46,11.34-16.72,16.89-19.84.79-.44,2.25-1.04,3.12-1.37,4.3-1.65,9.26-2.36,13.77-1.2Z"/>
  <path class="cls-2" d="M62.72,93.11c0,.27.1.47.37.55.17.54.45.83.73,1.29.64,1,1.45,2.07,2.57,2.57.23.27.49.68.73.92.22,1.88,1.16,3.8,1.42,5.65.06.4,0,.79.05,1.14.46,3.63.98,7.15-.18,10.65-.02.06.02.13,0,.18h-.18c-1.62,1.53-3.73,2.31-5.51,3.67-.06.03-.12.28-.18.37-.39.18-.4.28-.55.37l-.37.18c-.07.04-.12.15-.18.18l-3.31,1.29c-.1,0-.5.45-.36-.08.61-2.35,1.29-4.65,1.77-7.05,1.07-5.34,1.9-8.74.7-14.18-.4-1.81-.93-3.59-1.57-5.32-.27-.02-.32.66-.34.85-.11.94-.17,2.06-.2,3.01,0,.06,0,.12,0,.18-.56-.1-.35.28-.37.63-.15,3.91.23,6.94-.37,10.94,0,.06,0,.12,0,.18-.41,1.14-.66,2.38-.94,3.56-.06.25-.32.69.02.85-.28.98-.77,1.92-.92,2.94-.64,1.32-1.35,2.66-2.2,3.86-.12.17-.33.29-.37.55-.06.06-.12.12-.18.18-.28.28-.63.51-.73.92-.05.02-.13-.02-.18,0-.48.19-.98.37-1.47.55-.16-.35-.59-.08-.83,0-1.16.35-2.39.99-3.58,1.02,4.88-3.38,7.57-9.32,8.91-14.97,1.77-7.46.39-15.23.09-22.78-.18-2.39-.41-3.56-.41-3.95,0-1.77-.04-3.33.41-4.68.32-.02.13.38.37.64.6.66,2,1.11,2.82.66.34-.19-.01-1.09-.04-1.41-.02-.2-.17-.66.16-.62.84,3.98,1.27,8.12,2.91,11.88.3.69.97,2.15,1.5,2.63Z"/>
  <path class="cls-3" d="M129.56,223.16c-.39.11-.7.3-1.15.14l-4.36-1.61c3.75-2.29,6.96-5.12,11.38-6.16,2.05-.48,5.58-1.16,7.64-1.35,1.05-.1,2.14.02,3.19-.02.16,1.4-1.16,1.91-1.84,2.75-3.55,2-7.64,2.7-11.33,4.37-1.1.5-2.53,1.58-3.55,1.87Z"/>
  <path class="cls-2" d="M81.08,20.93c.9-.63.9-1.59,1.43-2.51,2.64-4.62,11.1-3,14.86-.65,1.78,1.11,5.15,4.14,6.21,5.91.14.24.36.37.27.74-2.63-2.37-5.84-4.13-9.22-5.19-2.54-.8-6.49-1.83-8.95-.69-.79-.08-2.72,1.03-3.02,1.66-.12.26.15.69-.28.91-.03-.36-.74-.05-.99-.06-.14,0-.26-.13-.3-.13Z"/>
  <path class="cls-2" d="M123.68,85.4l.09-.18c.34-.06.29.05.27.37,0,0-.01.14,0,.18-.01.59-.41,1.17-.55,1.65-1.16,3.11-2.42,6.22-3.35,9.41-.3,1.02-.69,3.78-1.04,4.43-.13.23-.54.01-.57.22-.06.36.12.74-.08,1.18-.08.18-.4.33-.53.57-.81,1.46-1.16,2.8-3.23,2.73-.09-.36.17-.73.18-1.04,0-.27-.18-.4-.18-.43.63-6.9,6.08-13.16,9-19.1Z"/>
  <path class="cls-3" d="M68.23,121.4c.4,1.21.09,2.67.19,3.95.32,4.53,2.24,8.82,4.31,12.77h-.46c-1.67-1.77-3.47-2.38-4.96-4.78-.8-1.29-1.19-2.79-1.65-4.22,0-.06,0-.12,0-.18,0-.24.09-.61-.18-.73,0-.06,0-.12,0-.18-.01-1.01-.23-5.05.49-5.52.25-.16.81-.23,1.17-.44s.63-.49.91-.65c.04-.03.13.02.18,0Z"/>
  <path class="cls-1" d="M83.47,148.77c.06.07.33.47.37.55,2.49,4.8-.28,9.43-5.69,7.35-1.27-1.11-2.12-2.45-1.75-4.24.11-.51.83-1.55.84-1.64l.18-.37c.47-.27.67-.75.92-.92,1.5-1.06,3.43-1.56,5.14-.73ZM79.8,149.87c-2.49.89-1.77,6.2,1.84,5.24.65-.17,1.81-1.28,2.01-1.93.18-.57-.19-2.76-.73-2.94-.05-.02-.12,0-.18,0-.8-.69-2.01-.7-2.94-.37Z"/>
  <path class="cls-3" d="M57.94,74.93c-.4-.29-.94-1.05-1.29-1.47l-1.65-3.67c-.01-.06.01-.12,0-.18-.62-3.3-.62-6.93.55-10.1.06,0,.12,0,.18,0,0,.2.11.37.18.55.11.29.23.57.31.87l.6.78c.4-1.08-.54-2.6-.53-3.4,0-.49.5-.8.72-1.19v6.34s.92,11.47.92,11.47Z"/>
  <path class="cls-2" d="M128.64,80.26c-.34.68.65,1.75.48,2.39-.16.58-.78.58-1.12.91-.88.81-.92,2.87-1.21,3.94-1.1,4.06-2.32,9.23-4.57,12.73-.11.18-.17.39-.19.6l-.18-.73c2.28-6.6,5.02-13.35,5.14-20.45.45-.07.47-1.03.82-.86.27.13.67,1.14.83,1.47Z"/>
  <path class="cls-6" d="M123.68,148.22c1.79-3.41,3.07-7.03,3.31-10.92.56-8.99-3.23-17.45-1.29-26.36.26-.04.27.33.31.51.13.54.24,1.11.37,1.66,2.32,10.37,5.87,22.35,1.55,32.49-1.47,3.45-3.82,6.4-5.36,9.79.35-2.06,1.17-2.65,2.18-4.38,6.78-11.61,5.42-17.67,2.87-30.34-.48-2.37-.9-5.39-1.56-7.62-.08-.27.1-.32-.37-.27-.05,1.06-.36,2.37-.38,3.39-.07,5.57,1.88,10.94,2.04,16.35.15,5.11-.44,11.79-3.68,15.71Z"/>
  <path class="cls-6" d="M56.29,30.3c-2.65,7.03-4.53,14.33-6.15,21.67-2.44,11.08-4.65,23.08-5.05,34.43-.22,6.27,1.27,12.16,1.29,18.47l-.37-4.5c-2.75-17.41.75-36.34,4.82-53.03,1.44-5.89,3.13-11.74,5.28-17.23l.18.19Z"/>
  <path class="cls-6" d="M7.08,247.95c.62.56.88.86,1.65,1.29,2.41,1.34,8.17,1.48,11.2,1.84.18.02.37-.02.55,0,11.78,1.39,22.48,2.71,34.52,2.02.12,0,.25,0,.37,0,4.7-.29,9.66-.94,14.32-1.65,2.52-.39,5.01-.93,7.53-1.29.01.07.43.07-.05.23-.89.3-1.87.34-2.78.53-19.96,3.99-36.63,2.64-56.55.28-3.82-.45-7.62-.26-10.64-2.68-.1-.08-.47-.51-.13-.56Z"/>
  <path class="cls-6" d="M129.93,83.93c.46-.09.4.21.49.51,2.27,6.9.42,13.95.98,21.07.76,9.8,5.69,18.11,5.5,27.93-.08,3.97-.54,8.3-2.11,12.02-.16.38.02.5-.45.18,1.47-3.8,2.05-7.12,2.2-11.2.31-.93.31-2.39,0-3.31-.41-7.8-4.01-14.87-5.12-22.53-.71-4.94-.35-9.97-.21-14.94.27-.89.27-2.29.2-3.24-.03-.33-.19-.55-.2-.62-.23-2.17-.67-3.81-1.29-5.88Z"/>
  <path class="cls-6" d="M134.15,228.85c-.06.03-.11.15-.28.18-.89.15-3.4-1.21-4.45-1.6-6.76-2.52-13.19-4.06-20.36-4.98-5.66-.72-11.87-1.54-17.51-2.04-.3-.03-.62,0-.92,0-.06,0-.12,0-.18,0-.16-.3-.62-.17-.92-.18-.06,0-.12,0-.18,0-.51-.35-1.25-.31-1.84-.37-.06,0-.12,0-.18,0-.22-.27-.55-.27-.85-.34-4.42-1.01-8.54-1.93-12.92-3.15-2.69-.75-5.37-1.49-8.04-2.33-4.97-1.57-10.52-4.02-15.46-5.2-1.32-.31-2.68-.48-4.04-.55-.87-.31-2.27-.31-3.12,0-2.51.08-4.72.4-7.16.92-.84.18-3.22.59-3.81.87-.49.23-.76,1.02-1.14,1.33.99-2.31,1.81-1.72,4.09-2.22s5.12-1.15,7.76-1.27c5.18-.24,7.42.7,12.06,2.25,8.9,2.97,18.13,6.1,27.28,8.16,16.23,3.65,32.26,2.84,47.96,8.96,1.39.54,2.73,1.45,4.23,1.56Z"/>
  <path class="cls-6" d="M55.37,52.89c.26,0-.17.72-.2.76-5.66,8.35-5.68,19.27-5.31,29.09.11,2.79.28,5.57.37,8.35.5.65.35-1.57.37-1.74.43-3.9.47-7.5.73-11.39.15-2.17.47-4.34.55-6.52.24-.27,1.35.67.73,1.1-.08-.19-.12-.58-.37-.55-.58,3.61-.51,7.28-.74,10.93-.16,2.5-.13,5.22-.57,7.7-.12.67-.62,1.36-.54,2.13-.3-.03-.34-.78-.36-1.01-.15-1.31-.18-2.71-.19-4.04l-.37-3.22c.02-.56.14-1.43-.18-1.84,0-.06,0-.12,0-.18-.02-4.57.05-8.7.55-13.22.74-6.74,1.51-10.81,5.51-16.35Z"/>
  <path class="cls-6" d="M68.04,28.28c-1.26,2.11-2.53,4.23-3.52,6.49-2.34,5.33-2.06,6.9-2.35,12.53-.16,3.05-.89,6.07-1.29,9.08-.06.43-.37,1.35-.37,1.56v4.78c0,1.3-.06,2.76,0,4.13,0,.18-.01.37,0,.55.18,3.27.62,6.68,1.1,9.92.52,3.47,1.19,6.99,2.39,10.29-.52,0-.83-.92-.97-1.32-1.94-5.35-2.6-14.92-3.07-20.62s1.24-12.52,1.68-18.35c.14-1.88.05-4.33.24-5.99.38-3.36,4.12-10.65,6.17-13.04Z"/>
  <path class="cls-6" d="M172.34,174.11c.33,1.01.11,2.49,0,3.58-1.68,17.01-7.08,35.57-13.5,51.34-2.77,6.8-6.09,14.73-10.37,20.39.78-1.58,1.82-3.03,2.67-4.59,3.7-6.82,6.87-14.37,9.59-21.63,5.91-15.77,10.07-32.29,11.61-49.09Z"/>
  <path class="cls-6" d="M141.68,71.99c.3,1.24.81,2.75,1.03,3.98,1.63,9.15.62,17.69,3.02,26.92,1.1,4.22,3.28,9.23,3.47,13.73-1.72-8.27-5.26-16.18-5.7-24.7-.37-7.23-.58-12.57-2.01-19.75.16.02.17-.04.18-.18Z"/>
  <path class="cls-6" d="M127.35,30.48c6.81,11.34,11.19,27.19,14.12,40.14.07.32.37.27.36.35-.02.26-.12.66-.16,1.02h-.18c-1.46-7.25-3.52-14.4-5.87-21.4s-4.9-13.68-8.27-20.11Z"/>
  <path class="cls-6" d="M4.51,212.69c-.95,7.47-1.46,15.06-.92,22.59.3,4.22.83,8.67,3.12,12.31-.03-.03-.27.03-.45-.19-3.44-4.15-3.27-17.38-3.04-22.68.3-7.13,1.03-14.27,2.42-21.28.06-.31.07-.63.34-.85-.27,3.3-1.04,6.75-1.47,10.1Z"/>
  <path class="cls-6" d="M93.57,6.97c2.89.41,5.94,1.65,8.45,3.12.18.11,1.82.97,1.65,1.1-2.78-.98-5.64-2.03-8.63-2.39-.39-.05-1.48-.18-1.74-.18h-4.59c-.73,0-3.75.84-4.54,1.16-.49.2-1.26.64-1.62,1.05-1.4.69-1.84,1.37-2.94,2.39.38-1.34,1.86-1.8,2.71-2.74,4.15-2.52,9.27-2.67,14.26-1.83.68.11,1.64.7,2.49.53.09-.48-.09-.32-.37-.45-4.73-2.21-12.61-2.39-17.21.03-.22.12-.63.57-1.03.81-.13.08-.62.48-.67.16,3.93-2.92,8.99-3.44,13.77-2.76ZM99.81,9.17c-.2-.2-.57.17-.37.37s.57-.17.37-.37Z"/>
  <path class="cls-6" d="M6.35,200.38c.63-4.29,1.69-8.53,2.81-12.71,1.15-4.34,2.53-9.75,4.11-13.89.09-.22.72-1.55.79-1.61.06-.04.95-.02,1.1.02,5.09,1.08,12.26,4.05,15.98,7.89.77.8.32,2.18.13,3.26-.4,2.29-1.07,4.55-1.39,6.87-.77,5.56-.31,10.15.29,15.64.04.36.26.68-.32.59.03-.23-.02-.5,0-.73l-.55-2.57c0-.06,0-.12,0-.18-.05-.98-.18-2.35-.18-3.21v-5.69c0-.66.28-1.92.37-2.66.4-3.45,1.19-6.81,1.83-10.22.06-.23-.06-.36-.16-.53-.15-.25-1.84-1.85-2.17-2.11-1.95-1.54-5.14-3.17-7.48-4.04-.82-.31-6.91-2.19-7.23-1.99-3.38,8.92-5.66,18.23-7.64,27.54-.05.22-.28.33-.28.36Z"/>
  <path class="cls-6" d="M138.92,129.48c0,.12,0,.25,0,.37.01.41-.14,1.03.18,1.29,0,.49,0,.98,0,1.47-.34.49-.17,1.38-.18,2.02-.08,4.6-1.2,9.12-2.75,13.41-.03.03.08.31-.09.37-.85.3-.23-.49-.15-.7,3.07-8.28,3.62-16.4,1.62-25.02-1.63-7.01-4.76-13.66-4.32-20.84.14-2.31.82-4.85.9-7.19.22-6.98-1.47-13.69-5.1-19.7-.05-.08-.47-.74-.21-.76,3.58,5.25,5.81,12.44,5.7,18.84-.05,2.88-.78,5.76-.93,8.62-.53,9.65,4.69,18.31,5.33,27.83Z"/>
  <path class="cls-6" d="M94.67,47.38c-.11.44.02.49.21.78.39.59.48.12.99.13,3.53.08,7.07-1.25,10.62-.7,2.18.34,4.38,1.5,6.23,2.59,1.31,4.41,2.91,8.7,4.68,12.94.43,1.02,1.3,2.34,1.6,3.36.37,1.22-.45,7.24-.68,8.89-.68,4.9-2.01,12.79-5.3,16.28v-.18c1.68-2.05,2.62-4.87,3.29-7.45.35-1.33.54-2.58.75-3.93,0-.06,0-.12,0-.18.36-.93.58-1.96.73-2.94.37-2.37,1.23-8.03.91-10.18-.19-1.24-2.27-5.12-2.88-6.67-1.27-3.21-2.31-6.51-3.45-9.78-2.48-1.64-5.62-2.75-8.62-2.57-2.54.15-5.71,1.25-8.09,1.12-.6-.03-1.53-.42-1.35-1.18.05-.23.31-.26.34-.31Z"/>
  <path class="cls-3" d="M123.31,77.68c-.65.1-1.14.67-1.84.55,0-.06,0-.12,0-.18,0-.37,0-.74,0-1.1,0-.24,0-.49,0-.73.04-1.19.19-2.28.18-3.49.47,1.31.01,2.96.18,4.32.03.27.14.57.37.27l.37-4.77c.3.49,1.95,2.76,1.96,3.03,0,.38-.92,1.75-1.22,2.11Z"/>
  <path class="cls-6" d="M140.58,142.15c5.53-9.22,3.95-19.48.55-29.12-1.02-2.89-2.64-5.73-2.92-8.84-.32-3.6.67-7.03,1.26-10.54l.71,3.42c.39,2.93.97,6.06,1.73,8.92,1.06,3.98,2.72,7.2,5.46,10.25-5.1-4.32-6.46-12.41-7.37-18.62-.03-.18-.24-2.08-.71-1.58-.14,1.48-.63,3.03-.73,4.5-.48,6.69,2.54,10.58,4.35,16.58,2.52,8.35,2.53,17.69-2.33,25.02Z"/>
  <path class="cls-6" d="M121.3,101.01c-.36,2.37-1.03,4.68-1.28,7.07s-.23,4.6-.37,6.89l-.64-1.47c-.97-4.13-.35-8.24.46-12.31.29.29.19.61.14.96-.43,3.05-.96,5.91-.68,9.05l.55,2.3c.02-2.64.15-5.35.58-7.96.27-1.61.74-3.04,1.26-4.53Z"/>
  <path class="cls-6" d="M111.01,105.05c.35.18.12.62.06.89-1.38,6.43-3.08,11.95-3.55,18.68-.09,1.35.15,2.86-.05,4.18-.09.62-.43.83-.87,1.24.94-1.47.43-3.21.54-4.87.49-7.16,2.13-13.24,3.86-20.1Z"/>
  <path class="cls-6" d="M113.4,142.15c3.37-5.06,4.43-11.32,5.14-17.27.48-.04.3-.02.36.28.25,1.34.48,2.95.56,4.31.05.85.05,1.9,0,2.76-.14,2.59-.85,4.79-1.84,7.16-.44-.18-.01-.55.06-.76,1.45-4.12,2.1-7.92,1.13-12.28l-1.61,8.31c-.89,2.52-2.03,4.84-3.28,7.19-.04.08-.43.69-.52.3Z"/>
  <path class="cls-6" d="M112.85,111.48c-1.1,4.63-1.9,8.81-2.02,13.59-.4,1.5-.1,3.22-.18,4.78-.2,3.98-1.24,7.11-3.31,10.47-.31-.06.04-.58.12-.71,3.98-6.84,2.45-11.36,3.21-18.64.27-2.56.92-5.7,1.53-8.2.08-.34.13-1.4.65-1.28Z"/>
  <path class="cls-6" d="M104.03,20.19c7.05,7.84,8.5,16.84,11.25,26.67.6,2.13,1.52,4.45,1.97,6.57-2.34-5.2-3.26-10.9-4.87-16.35s-3.71-10.88-7.26-15.2l-1.1-1.7Z"/>
  <path class="cls-6" d="M85.67,18.54c-1.1.51-3.13,1.36-2.57,2.76.42-.02.8-.28,1.22-.31,6.83-.49,11.2.75,16.82,4.72.25.18,1.04.77,1.06,1.09-5.52-4.3-10.85-5.93-17.9-5.51-.48.03-1.78.58-2.11.18-.06-.08.19-.26.18-.37.43-.22.16-.65.28-.91.31-.64,2.24-1.74,3.02-1.66Z"/>
  <path class="cls-6" d="M140.21,175.77l.69-.73c9.37-4.06,20.6-6.62,30.3-2.15l1.14,1.04c-1.9-1.08-3.92-1.99-6.06-2.48-8.07-1.85-18.8.56-26.08,4.32Z"/>
  <path class="cls-6" d="M29.67,206.81c-2.01,3.78-3.6,7.39-4.22,11.67-.05.35.08.78,0,1.07-.05.2-.35.1-.37.12-.02.02.05.25-.03.32-.43.37-4.92-1.03-5.84-.69.03.36-.14.93.18,1.2,3.19,1.16,6.35,2.45,9.59,3.44,2.9.89,5.99,1.34,8.75,2.64.38.18,1.12.5,1.12.99-3.92-1.75-7.12-2.41-11.11-3.67-1.84-.58-6.73-2.14-8.15-3.05-.61-.39-1.23-1.62-.45-1.89,1.05-.35,5.55,1.11,5.94.71.02-4.59,2.15-8.41,4.07-12.38.13-.27.09-.57.52-.48Z"/>
  <path class="cls-6" d="M57.03,57.11c.04-.06-.11-.55.27-.37.5.24.09.92.09,1.37-.08,5.16.35,10.29.77,15.23.05.56.29,1.15.16,1.77-.35.1-.3-.14-.37-.18l-.93-11.47v-6.34Z"/>
  <path class="cls-6" d="M127.17,204.42s-.17-.09-.19-.18c5.52-3.26,14.04-4.47,20.43-3.26.34.06,1.36.15,1.24.69-4.59-1.23-11.89-.94-16.44.55-1.75.57-3.34,1.54-5.05,2.21Z"/>
  <path class="cls-6" d="M150.49,210.48s.29.22.17.33c-.1.09-.32,0-.35.03-.02.02.04.21-.07.31-1.02.88-2.44.6-3.7.62-5.78.09-13.06.85-17.98,4.22-.16.11-.5.61-.65.17,4.66-3.13,9.24-4.02,14.79-4.58,1.83-.19,6.5.11,7.61-.74.03-.03.06-.3.18-.37Z"/>
  <path class="cls-6" d="M75.76,105.97c.19-.46.38-.14.59.02,6.57,5.03,15.93,4.28,22.94.7.28-.15,1.11-1.16,1.62-.72-8.32,4.73-17,5.77-25.16,0Z"/>
  <path class="cls-6" d="M77.78,6.79l1.16-.96c5.77-3.29,13.76-3.46,20.06-1.62,2.4.71,4.32,2,6.56,2.99.27.12.6.03.5.5-1.63-.93-4.12-2.09-5.88-2.76-.78-.29-2.16-.83-2.94-.92-.06,0-.12,0-.18,0-1.76-.22-3.55-.48-5.33-.55-.99-.31-2.49-.31-3.49,0-1.92.09-3.48.33-5.33.92-1.52.48-3.82,1.51-5.14,2.39Z"/>
  <path class="cls-6" d="M71.53,127.28c-1.39-4.34.32-8.78.73-13.13.22-2.27.12-4.43,0-6.7.22.2.28.57.3.86.36,5.97-1.35,10.87-1.22,16.5.02.74.12,1.8.18,2.48Z"/>
  <path class="cls-6" d="M98.53,15.23c-.11.37-.55,0-.74-.09-3.17-1.53-8.9-2.77-12.19-1.74-1.61.5-3.88,1.65-4.88,3.07-.46.65-.58,1.53-.92,2.11-.12.2-.34.12-.36.14-.06.06.11.32-.09.37-.45.1-.21-.3-.27-.37-.03-.03-.26.09-.42-.22-.71-1.39-.47-3.72.41-4.99.14-.2.35-.09.38-.11-.98,1.62-.96,3.58-.37,5.33.11-.02.33.03.37,0,.07-.05.42-1.23.66-1.64,3.55-6.09,13.21-4.98,18.44-1.85Z"/>
  <path class="cls-6" d="M110.64,173.56c-2.72-5.4-1.36-13.54,2.12-18.36.16-.22.32-.43.64-.37-.9,3.62-1.13,6.95-.55,10.65-.41-.38-.47-1.24-.53-1.77-.22-2.08-.15-4.56.34-6.26.1-.35,0-.93.19-1.34-.53-.11-.29.17-.42.4-2.91,4.98-4,10.81-1.81,16.25.09.24.41.62.03.8Z"/>
  <path class="cls-6" d="M67.13,98.44s.3-.11.37.13c1.17,3.97,3.01,12.18,1.92,16.03-.06.22-.43,1.39-.82,1.29,1.35-3.16.78-7.38,0-10.65-.04-.35.01-.74-.05-1.14-.26-1.85-1.2-3.77-1.42-5.65Z"/>
  <path class="cls-3" d="M102.38,137.56l4.59-5.14c0,2.78-2.37,4.1-4.59,5.14Z"/>
  <path class="cls-6" d="M122.21,150.42l-2.34,5.1c-1.32,3.81-1.73,7.31-1.08,11.28.04.27.29.71-.06.89-1.75-5.73.34-12.42,3.49-17.27Z"/>
  <path class="cls-6" d="M134.88,179.44c-2.17,2.55-2.43,7.47-3.67,10.84-.28.75-.64,1.46-.92,2.2,4.59-1.34,9.02-2.31,13.77-1.1,1.16.29,1.42.34,2.39,1.1-.55.19-.52-.31-.78-.42-2.49-1.06-8.01-.98-10.68-.48-1.01.19-3.65,1.21-4.42,1.09-.22-.03-.33-.1-.46-.28.28-.95.75-1.87,1.05-2.8.59-1.84.77-3.34,1.16-5.27.34-1.72,1.11-3.13,2.02-4.55.02-.03.52-.68.54-.32Z"/>
  <path class="cls-6" d="M150.12,208.28c-1.51-.82-3.89-.63-5.61-.56-3.55.15-7.99.51-11.47,1.11.42-.58,1.6-.65,2.3-.73,2.92-.36,6.94-.62,9.91-.74,1.11-.05,4.14-.1,4.89.67.18.19-.02.25-.01.26Z"/>
  <path class="cls-6" d="M106.79,31.58c1.32,1.44,2.15,4,2.8,6.1.87,2.83,2.16,7.24,2.58,10.09.3,2.01-1.15,0-1.58-.27-3.62-2.39-10.41-2.41-14.32-.99-.64.23-.83.65-1.43.68.07-.1.11-.3.18-.37,4.45-2.22,11.62-2.35,15.79.55.1.07,1.18,1.49,1.09.66-1.51-5.54-2.42-11.33-5.13-16.45Z"/>
  <path class="cls-6" d="M150.67,204.97c-.51.26-.8.33-1.37.37-8.66.69-15.27-1.02-23,4.35-.99.68-1.89,1.76-2.98,2.26,2.79-2.67,6.12-4.81,9.91-5.79,5.61-1.44,11.7-.63,17.45-1.19Z"/>
  <path class="cls-6" d="M108.81,151.89c-1.28,1.89-2.28,3.87-3.08,6.02-1.53,4.11-2.73,8.44-.41,12.54-.01,0-.08.17-.15.17-2.17-3.41-1.59-7.12-.45-10.78.52-1.65,2.96-7.63,4.09-7.94Z"/>
  <path class="cls-6" d="M75.21,101.56c1.19.91,2.21,1.78,3.49,2.57,6.18,3.82,13.23,3.08,19.46-.18.03.49-.27.46-.59.61-8.2,3.71-15.83,3.6-22.36-2.99Z"/>
  <path class="cls-6" d="M145.35,194.69c.3.34.5.26.33.96-.48,1.9-4.87,1.77-6.43,2.03-3.99.66-9.06,2.23-12.36,4.53-.14.1-.45.66-.64.19,5.45-3.94,10.19-4.4,16.6-5.34,1.04-.15,3.1-1.02,2.49-2.37Z"/>
  <path class="cls-6" d="M144.98,194.32c-4.51-1.16-9.46-.45-13.77,1.2-.87.34-2.34.93-3.12,1.37l.91-.65c2.37-1.27,4.81-2.04,7.47-2.44,2.25-.34,6.66-.85,8.51.52Z"/>
  <path class="cls-6" d="M92.28,139.58c-.09.71-1.62.88-2.2,1.01-3.72.83-6.91.7-10.59.16-.43-.06-1.57.29-1.35-.62,1.16.13,2.5.64,3.77.73,2.98.22,6.6-.06,9.45-.92.31-.09.61-.26.92-.37Z"/>
  <path class="cls-6" d="M51.89,124.15c.1.47-.23.38-.5.5-1.9.84-4.12,1.48-6,1.91-2.47.57-4.96,1.02-7.37,1.81-.14.03-.12-.24-.09-.36,4.17-1.12,8.43-1.81,12.49-3.31.49-.18.98-.36,1.47-.55Z"/>
  <path class="cls-1" d="M91.36,139.95c-2.86.85-6.47,1.14-9.45.92-1.27-.09-2.6-.6-3.77-.73-.06,0-.12,0-.18,0-.37.04-.52-.24-.73-.37,4.55,1.1,8.69,1.08,13.25.12.27-.06.71-.29.89.06Z"/>
  <path class="cls-6" d="M105.14,152.62l-2.16,4.91c-1.04,2.77-1.81,5.62-2.07,8.58-.06.67.22,2.22-.18,2.67-.38-5.7,1.45-11.36,4.41-16.16Z"/>
  <path class="cls-6" d="M68.23,121.4s.03-.29.37-.18c.29,1.55.07,3.13.19,4.68.23,2.9,1.69,7.43,3.02,10.02.28.56,1.31,1.74,1.36,2.32.03.38-.5.56-.7.42-.03-.02-.07-.42-.19-.54h.46c-2.08-3.95-3.99-8.24-4.31-12.77-.09-1.28.22-2.73-.19-3.95Z"/>
  <path class="cls-3" d="M58.13,99.54c-.06,1.65.02,3.31,0,4.96,0,.24,0,.49,0,.73,0,.73.02,1.47,0,2.2-.01.49.02.98,0,1.47l-.73,2.2c.6-3.99.21-7.02.37-10.94.01-.35-.19-.74.37-.63Z"/>
  <path class="cls-6" d="M30.77,211.58c-.8,1.88-1.65,3.79-1.97,5.84-.11.72-.45,2.58.14,3.07,3,.96,6.01,1.26,8.94,2.45,4.05,1.65,8.01,3.95,11.81,6.1-.12.39-.54,0-.72-.11-4.1-2.34-8.54-4.82-12.9-6.19-1.5-.47-2.46-.54-3.89-.89-1.2-.29-2.59-.87-3.76-1.29-.28-2.91.55-5.91,1.84-8.49.13-.27.08-.58.52-.48Z"/>
  <path class="cls-6" d="M122.21,156.66c-.07.73-.54,1.85-.68,2.72-.43,2.8-.48,5.19.31,7.93.65.26.21.22.54.64.37.48.99.82,1.29,1.38-.04.02-.01.23-.25.17-.42-.12-1.46-1.73-1.59-2.19-.08-.03-.31.06-.36,0-.07-.08-.33-1.76-.39-2.09-.48-2.4-.14-5.62.62-8.05.09-.3.04-.6.5-.51Z"/>
  <path class="cls-6" d="M146.82,192.85c1.62,1.69,1.42,3.7.19,5.59.09.38,2.89.88,3.43,1,.34.07.72-.16.61.39-1.26-.18-2.06-.21-3.26-.72-.29-.12-.91-.14-1.07-.37-.27-.38.99-2.32,1.04-3.04.07-.99-.7-1.94-.93-2.85Z"/>
  <path class="cls-6" d="M58.86,39.11c.32.14,0,.72-.09.92-.41.85-.94,1.73-1.38,2.62-.91,1.85-2.51,4.92-2.38,6.93.03.51-.26.87-.46,1.29-.06.12-.43,1.01-.65.82.46-4.63,3.04-8.5,4.96-12.58Z"/>
  <path class="cls-6" d="M125.15,218.38s.04.23-.05.32c-1.16.58-2.21,2.65-3.53,2.64-1.25-.01-4.26-.7-5.64-.99s-2.63-.68-3.93-1.03c-.45-.12-1.06-.09-1.42-.2-.25-.08-.09-.33-.12-.37,3.72.98,7.52,1.59,11.28,2.38,1.16-.08,2.35-2.35,3.41-2.75Z"/>
  <path class="cls-6" d="M71.53,127.46l2.11,6.61c.81,1.94,1.44,3.41,2.84,4.96.28.31.11.2.55.55.06.05.12.14.18.18.21.13.36.41.73.37-.03,0-.13.29-.61.19-.04,0-.6-.44-.67-.51-2.46-2.06-4.84-9.17-5.14-12.35Z"/>
  <path class="cls-6" d="M99.44,155.93c-.87,4.03-.92,8.4.55,12.31,0,0-.16.22-.27.02-1.48-2.87-1.37-8.66-.74-11.78.06-.31.01-.64.46-.54Z"/>
  <path class="cls-6" d="M153.25,207.73c1.39,3.04-.21,5.58-3.26,6.39-.29.08-.79-.03-.94.07-.1.07-.68,1.89-.91,2.3-2.34,4.2-9.18,5.54-13.44,7.22-.03-.47.6-.68.94-.81,2.85-1.08,6.68-1.91,9.27-3.41.57-.33,2.61-2.29,2.82-2.72.25-.51.71-2.53.97-2.75.14-.12,2.42-.45,3.07-.88.09-.06,1.38-1.51,1.41-1.61.55-1.51-.05-2.12-.11-3.37-.01-.27.17-.39.18-.42Z"/>
  <path class="cls-2" d="M122.03,71.44v.18c.13.27.38.64.55.92l-.37,4.77c-.22.3-.33,0-.37-.27-.17-1.36.28-3.01-.18-4.32,0-.43,0-.86,0-1.29.12.01.27-.02.37,0Z"/>
  <path class="cls-6" d="M124.05,85.77c.23.99-.04,1.37-.32,2.34-1.16,4.08-2.66,8.07-3.82,12.17-.09.31.03.65-.45.55.94-4.55,2.71-8.97,4.04-13.41.14-.48.54-1.06.55-1.65Z"/>
  <path class="cls-6" d="M126.8,157.4c.4.12-.04.52-.15.68-1.37,2.12-2.49,6.61-2.61,9.15-.03.69.22,1.39.19,1.82-.01.23-.31.06-.38.11-.27-4.13.81-8.24,2.94-11.76Z"/>
  <path class="cls-6" d="M144.43,216.91c-1.42,1.78-7.09,2.93-9.58,3.92-1.22.48-2.7,1.21-3.87,1.82-.43.23-.88.96-1.42.5,1.02-.3,2.45-1.37,3.55-1.87,3.69-1.67,7.78-2.38,11.33-4.37Z"/>
  <path class="cls-6" d="M55.56,59.5c-1.18,3.17-1.17,6.8-.55,10.1-.41-.18-.48-.83-.53-1.21-.29-2.28-.28-5,.25-7.24.05-.22.42-1.57.48-1.64.04-.05.25,0,.35,0Z"/>
  <path class="cls-6" d="M55.56,118.64c.15-1.02.64-1.96.92-2.94.4-1.44.69-2.93.92-4.41,0-.06,0-.12,0-.18l.73-2.2c-.15,3.17-1.19,6.89-2.57,9.73Z"/>
  <path class="cls-6" d="M58.68,44.07c.27.31.2.42.14.78-.26,1.61-1.56,5.94-2.52,7.19-.14.18-.36.1-.38.12.06-.29.16-.61.31-.87.51-.86,1.01-1.87,1.35-2.89.46-1.42.68-2.9,1.1-4.32Z"/>
  <path class="cls-6" d="M83.84,149.32c.12-.46.48.47.5.51,1.01,2.55,1.23,5.19-1.24,6.91-1.05.74-3.92,1.02-4.9.24-.1-.08-.02-.3-.04-.32,5.41,2.08,8.18-2.55,5.69-7.35Z"/>
  <path class="cls-6" d="M153.25,207.36c-.5.12-.44-.33-.36-.63.17-.69.87-.76.92-.96.04-.19.18-1.58.18-1.8-.01-.82-.42-1.69-.55-2.48.79,1.08,1.04,1.36.92,2.86-.1,1.32-.85,1.83-1.11,3.02Z"/>
  <path class="cls-6" d="M41.97,122.32c-.24-.05.15-.88.2-.96,1.99-3.46,3.09-7.48,3.82-11.46l.39-4.66c-.04,5.94-1.24,11.9-4.41,17.08Z"/>
  <path class="cls-6" d="M68.04,121.4c-.28.16-.56.45-.91.65s-.92.27-1.17.44c-.72.48-.51,4.52-.49,5.52-.29-1.17-.45-2.54-.34-3.74.21-2.3,1.03-2.04,2.92-2.87Z"/>
  <path class="cls-6" d="M71.17,20.19c0,.12,0,.25,0,.37-1.87.04-4.03.36-5.75,1.14-.71.32-1.16.96-1.97,1.06,1.94-1.91,5.12-2.28,7.71-2.57Z"/>
  <path class="cls-6" d="M121.66,71.44c0,.43,0,.86,0,1.29,0,1.21-.15,2.3-.18,3.49-.3-.19-.18-.7-.19-1.01-.01-1.2-.1-2.52.18-3.68.13-.53.04-.1.19-.08Z"/>
  <path class="cls-6" d="M66.39,97.52c-1.12-.5-1.93-1.57-2.57-2.57.27.11.52.25.74.45.69.63,1.26,1.45,1.83,2.12Z"/>
  <path class="cls-6" d="M70.43,18.17c.84-.42.5.2.75.78.03.06.96.75-.01.88-.13-.46-.53-.92-.73-1.65Z"/>
  <path class="cls-6" d="M72.27,107.26c-.34-.98-.68-2.5-.37-3.49.19,1.24.29,2.29.37,3.49Z"/>
  <path class="cls-1" d="M102.93,100.83c-1.53,1.08-3.11,2.25-4.77,3.12-6.24,3.26-13.28,4-19.46.18l2.39,1c7.21,2.99,15.3.46,21.2-4.13.15-.12.47-.64.64-.18Z"/>
  <path class="cls-6" d="M58.13,104.5c.02-1.65-.06-3.31,0-4.96,0-.06,0-.12,0-.18.32,1.26.2,2.81.19,4.14,0,.31.12.82-.19,1.01Z"/>
  <path class="cls-6" d="M61.43,120.85c-1.16.66-1.93,1.32-3.31,1.29l3.31-1.29Z"/>
  <path class="cls-6" d="M58.13,105.24c.1.02.34-.03.37,0,.06.08.05,1.9,0,2.09-.05.21-.2.1-.37.12.02-.73,0-1.48,0-2.2Z"/>
  <path class="cls-6" d="M151.23,199.83c.47.03,1.36.6,1.71.91.18.16.11.35.13.37-.58-.21-1.72-.71-1.84-1.29Z"/>
  <path class="cls-6" d="M72.27,103.03c-.07-.07-.52-.4-.55-.37-.04.33.14.61.18.92l-.54-1.18.45-.28.46.92Z"/>
  <path class="cls-6" d="M83.47,148.77c-1.71-.83-3.64-.32-5.14.73.84-1.39,4.18-1.87,5.14-.73Z"/>
  <path class="cls-6" d="M123.31,77.68s.07.22-.12.38-1.58.64-1.72.54c0-.12,0-.24,0-.37.7.12,1.18-.45,1.84-.55Z"/>
  <path class="cls-6" d="M149.21,116.81c.66-.17.47,1.39.37,1.47-.35-.03-.88-.4-1.11-.63-.27-.28-.28-.56-.36-.65l1.28.92c.02-.38-.18-.72-.18-1.1Z"/>
  <path class="cls-6" d="M112.85,165.67c.72.98.86,2.23,1.84,3.12,0,0-.07.16-.15.17-.87-1.15-1.41-1.83-1.68-3.29Z"/>
  <path class="cls-6" d="M5.98,202.4c.04-.61-.12-1.34.37-1.84,0,.01.17.11.14.24-.1.48-.32,1.14-.51,1.6Z"/>
  <path class="cls-6" d="M110.28,218.56c-.21-.91.53-1.27.92-1.84l-.92,1.84Z"/>
  <path class="cls-6" d="M72.82,99.17c-.64-.1-.99-.8-1.47-1.19l.18-.09c.42.43.86.86,1.29,1.29Z"/>
  <path class="cls-6" d="M123.68,85.4s-.19-.15.01-.42c.52-.68.82.02.74.5-.03.2-.33.07-.38.11.02-.31.07-.43-.27-.37l-.09.18Z"/>
  <path class="cls-6" d="M121.48,76.95c0,.37,0,.74,0,1.1-.54.26-.61-1.3,0-1.1Z"/>
  <path class="cls-3" d="M67.49,116.99c-.06.06-.12.12-.18.18-.71.37-1.37.83-2.02,1.29-.07.05-.12.14-.18.18-.71.31-1.73.73-2.39,1.1,1.78-1.36,3.89-2.14,5.51-3.67-.23.31-.48.63-.73.92Z"/>
  <path class="cls-6" d="M68.41,116.07c-.21.59-.1.85-.92.92.26-.28.5-.61.73-.92h.18Z"/>
  <path class="cls-6" d="M122.58,155.56c-.03.25-.3.64-.37.92,0-.18-.61-.85.37-.92Z"/>
  <path class="cls-6" d="M56.66,73.46s-.24.04-.32-.04c-.47-.5-1.17-2.84-1.33-3.63l1.65,3.67Z"/>
  <path class="cls-6" d="M67.31,133.34c-.3.28-.34-.23-.42-.4-.6-1.36-1.08-2.3-1.23-3.82.46,1.43.85,2.93,1.65,4.22Z"/>
  <path class="cls-6" d="M52.07,124.15c.11-.41.45-.64.73-.92-.08.69-.23.69-.73.92Z"/>
  <path class="cls-6" d="M67.31,117.17c-.57.59-1.1,1.25-2.02,1.29.65-.45,1.31-.92,2.02-1.29Z"/>
  <path class="cls-6" d="M65.11,118.64c-.96.65-1.61,1.02-2.57,1.47.07-.09.13-.33.18-.37.65-.38,1.67-.79,2.39-1.1Z"/>
  <path class="cls-6" d="M73.74,100.09c-.37-.14-.73-.28-.73-.73.24.24.49.49.73.73Z"/>
  <path class="cls-6" d="M63.27,22.95s.05.48-.46.55l-.09-.18c.18-.14.31-.32.55-.37Z"/>
  <path class="cls-6" d="M55.74,59.5c.11,0,.35-.02.37,0,.04.06-.02.32,0,.46l-.18.09c-.07-.18-.18-.35-.18-.55Z"/>
  <path class="cls-6" d="M62.72,93.11s.27-.06.34.02c.1.11-.02.4.02.53-.26-.08-.36-.28-.37-.55Z"/>
  <path class="cls-6" d="M117.62,53.99l-.37.18c-.02-.18.02-.38,0-.55.18.07.29.19.37.37Z"/>
  <path class="cls-6" d="M65.66,128.93c-.28-.13-.18-.49-.18-.73.28.13.17.49.18.73Z"/>
  <path class="cls-6" d="M137.09,147.11l.18.09c-.1.54-.45.4-.55.46-.1-.36.25-.39.37-.55Z"/>
  <path class="cls-6" d="M122.76,212.5c.08.4-.23.43-.55.55.21-.24.37-.36.55-.55Z"/>
  <path class="cls-6" d="M132.86,208.83l-.37.37c.14-.17-.3-.24.37-.37Z"/>
  <path class="cls-6" d="M77.41,150.42l-.18.37s-.16.03-.18-.09c-.09-.46.22-.19.37-.27Z"/>
  <path class="cls-6" d="M52.99,123.05c.03-.26.25-.39.37-.55.27.28-.21.4-.37.55Z"/>
  <path class="cls-6" d="M106.42,130.22l-.2.55c-.08-.01-.16-.19-.17-.18.05-.22.24-.26.37-.37Z"/>
  <path class="cls-6" d="M61.98,120.48c-.15.09-.27.13-.37.18l.37-.18Z"/>
  <path class="cls-3" d="M68.59,115.89h-.18c1.16-3.51.65-7.02.18-10.65.78,3.28,1.35,7.5,0,10.65Z"/>
  <path class="cls-6" d="M125.52,218.01s.18.08.19.18c-.11.03-.3-.03-.37,0l.18-.18Z"/>
  <path class="cls-6" d="M122.03,71.62v-.18c.3.07,0,.17,0,.18Z"/>
  <path class="cls-6" d="M74.1,100.46c-.06-.06-.12-.12-.18-.18l.18.18Z"/>
  <path class="cls-6" d="M74.47,100.83c-.06-.06-.12-.12-.18-.18l.18.18Z"/>
  <path class="cls-6" d="M77.23,249.79h-.18c.08-.2.13-.22.18,0Z"/>
  <path class="cls-1" d="M131.21,190.28c.52.36-.59,1.61-.37,1.84,3.82-1.27,8.71-2.09,12.68-1.19.31.07.64,0,.54.46-4.75-1.2-9.18-.24-13.77,1.1.28-.74.64-1.46.92-2.2Z"/>
  <path class="cls-1" d="M87.32,219.85c-4.11-.47-9.29-1.74-13.27-2.99-.3-.1-.6-.04-.51-.5,4.38,1.22,8.5,2.14,12.92,3.15.3.07.63.07.85.34Z"/>
  <path class="cls-1" d="M42.89,208.28c1-.03,2.13-.05,3.12,0,1.36.07,2.72.24,4.04.55-1.19.37-2.7-.28-3.95-.36-2.97-.21-6.54.32-9.49.8-.27.04-.71.29-.89-.06,2.45-.51,4.65-.84,7.16-.92Z"/>
  <path class="cls-1" d="M91.55,220.4c-.12.29-.8.29-.92,0,.3,0,.62-.03.92,0Z"/>
  <path class="cls-1" d="M90.45,220.4c-.29,0-.76.11-.92-.18.29.01.76-.11.92.18Z"/>
  <path class="cls-1" d="M89.34,220.22c-.59-.05-1.32-.03-1.84-.37.59.06,1.32.02,1.84.37Z"/>
  <path class="cls-6" d="M95.22,80.99c.06,0,.12,0,.18,0,1.41.76,6,.17,7.06.9.48.33-.33,1.35-.81,1.32,0,.09.18.15.18.17,0,.16.04.38-.18.37-.12.06-.25.12-.37.18-.45.23-.68.23-.91.83l.18.09c-1.54,1.64-3.02,3.13-5.14,4.04l-.12-.15c-.55-.2-.95.42-1.16.52-.05.02-.1.14-.18.18-.88-.34-2.09.23-3.05.34-3.36.4-7.72.26-10.58-1.5l-1.61-.68c-.08-.05-.12-.14-.18-.18.02-.31.07-.43-.27-.37l-.09.18c-1.85-1.42-3.11-3-4.59-4.78l-.37-1.1c.58-.03,1.17.04,1.74,0,7.08-.57,13.17-.68,20.29-.37ZM99.26,83.38c.03-.11.07-.4-.13-.37-.94.07-1.84-.29-2.72-.36-4-.34-9.8-.55-13.78-.38-1.87.08-3.78.59-5.65.75-.19-.04-.15.25-.12.36.14.51,1.89,1.66,2.39,2.2.74.81,3.46,1.81,4.77,2.11,3.75.85,8.81.07,12.18-1.78.15-.08,1.21-.65,1.04-.89.4-.25,1.93-1.3,2.02-1.65Z"/>
  <path class="cls-6" d="M83.28,71.62c.04.07.14.12.18.18.04.06-.02.26,0,.37.21.03.17-.19.18-.18.6.11,1.2,2.03,2.66,2.04s2.76-1.99,2.98-2.05c.49-.12,1,.2,1.43.19.78-.03,3.49-.43,3.59-1.38.06-.62-2.21-2.95-.3-2.84,2.07.12,3.65,4.71.29,6.06l-4.78.19c-.01.12.19.16.19.18,0,.08-.93.95-1.1,1.1-2.27,1.73-3.46-.26-5.51-1.01-1.6-.58-3.42-.3-4.49-1.75-.44-.6-.57-1.38-.48-2.12.05-.38.53-.8.19-1,1.55-2.74,1.65.85,1.29,1.1-.05.03-.32-.25-.37-.18-.06.87,1.06,1.98,1.92,1.85.96-.15.03-1.12-.07-1.77-.43-2.92,1.77-6.91,2.32-9.96.48-2.68.67-5.61.42-8.3.92-.18,1.16.29,1.41,1.07.63,1.95-.01,7.54-.5,9.66-.43,1.87-2.29,6.07-1.96,7.69.08.41.33.58.51.87Z"/>
  <path class="cls-6" d="M97.79,53.81c.08.06.76-.22,1.19-.37.71-.23.52-.79-.36-.75-.29.02-1.65.4-.53-.33,1.78-1.17,7.21-.51,9.19.31.8.33,1.31.87,2.08,1.14.06.06.12.12.18.18,0,.3.17.47.37.67.29.29.35.06.37.07.12.07.25.11.37.18-.03.36.19.39.37.55.3.28.36.23.55.37.02.01-.08.27.13.36.42.17,1.75.01,1.5.82-.19.64-1.83.46-2.37.47-.23-.07-.44.01-.84-.17-.57-.27-2.24-1.86-2.56-1.85-.31.97-1.2,1.64-2.11,2.02-.07.03-.13.17-.18.18-1.55.48-3.33.26-4.77-.37l-1.02-1.66c-.55,0-1.68,1.23-2.28,1.48-.51.21-1.96.35-1.82-.43.06-.33,2.08-2.57,2.55-2.87Z"/>
  <path class="cls-6" d="M79.06,52.7c.07.03.12.15.18.18-.03.63.64.67.92.92.54.49,1.51,2.44,1.29,3.12-.86.04-1.07-.86-1.67-1.36-.53-.45-1.22-.7-1.82-1.02.04.97-.27,1.73-.92,2.39l-2.67.74c-1.04-.09-2.28-.18-3.02-1.02-.42-.47-.32-1.33-.92-1.38-.02-.05.02-.13,0-.18l-.11-.14-.81.14.18.18c-1.38.63-2.32,2.61-3.86,2.02-.31-.26-.95-.4-1.1-.92,1.73.31,1.83-.73,2.57-1.65.93-1.16,1.52-1.96,2.94-2.57l4.32-.56c1.44.25,3.18.46,4.49,1.11Z"/>
  <path class="cls-3" d="M80.9,49.03c.47,1.68-.52,2.97-.73,4.59-.27-.5-.54-.52-.92-.73-.07-.04-.12-.15-.18-.18-2.27-1.73-6.26-1.66-8.81-.55-1.42.61-2.01,1.41-2.94,2.57-1.52-.22-1.29-2.12-.56-3.04,2.4-2.98,4.91-2.56,8.37-2.84.35-.03.74.21.64-.36,1.33.26,3.91.77,5.14.55Z"/>
  <path class="cls-3" d="M111.56,55.83c-.19-.13-.25-.09-.55-.37l.18-.09c-.15-.2-.34-.33-.55-.46-.11-.07-.25-.11-.37-.18-.23-.26-.49-.49-.73-.73-.06-.06-.12-.13-.18-.18-1.01-.88-1.49-1.24-2.75-1.65.09-.45-.2-.4-.51-.49-1.88-.55-4.64-.6-6.56-.23-.39.07-.64-.2-.28.36-.17.03-.4-.04-.55,0-.89-.47-.09-1.49.46-1.84,2.39-1.51,7.99-.91,10.56.09.62.24,2.31,2.09,2.49,2.66.45,1.45-.29,1.92-.65,3.13Z"/>
  <path class="cls-6" d="M78.14,45.72c.28.05,1.26.28,1.47.37.08.03.13.16.18.18.37.2.53.43.79.68.1.1.3.03.32.05.13.17.26,1.39.18,1.47-3.17.12-6.06-1.2-9.27-.92-1.66.15-4.56,1.2-6.02,2.02-.21.12-.12.35-.14.36-.21.13-1.15.7-1.28.55-.38-.43.74-.6.18-.92.34-.49.53-.68.92-1.1l.18-.18c.4-.4.58-.74,1.1-1.1,2.54-1.76,8.4-1.96,11.38-1.47Z"/>
  <path class="cls-3" d="M100.36,57.3c1.44.62,3.22.84,4.77.37-.51.96,1.36,1.65.37,2.57-2.05.29-4.17.36-6.19-.15-.49-.12-.51-.07-.24.33-.68-.22-.92.26-1.51-.79-.52-.93-.22-1.42-.33-2.33,1.08-.65,2.07-.46,3.12,0Z"/>
  <path class="cls-3" d="M79.61,57.11c.08.43-.15.56-.36.83-1.01,1.31-1.15,1.51-2.58,2.29l-6.43-.18c-.62-.86-.72-1.24-.18-2.2.92.02,1.84-.17,2.57-.18.23,0,.55.19.82.18,1.4-.04,2.18.2,3.4-.73.96-.17,1.81-.01,2.75,0Z"/>
  <path class="cls-6" d="M106.79,78.05l.53,1.95c.08,1.18.08,2.74-.89,3.56-.13-.3.18-.68.18-.83v-2.76c0-.08-.86-1.23-.97-1.33-.1-.09-.29-.02-.32-.05-.49-.46-.83-.76-1.29-1.29-.19-.22-.16-.77-.92-.73-1.19-1.12-2.41-2.19-3.3-3.58-.07-.46.31-.27.55-.19,2,.72,5.28,3.43,6.42,5.24Z"/>
  <path class="cls-6" d="M82.92,92.75l-.37-.73c.76.03,1.54-.04,2.3,0,.24.01.48.19.54.19h6.06c.26,0,.94-.59.83.18-2.9,2.05-6.24,2.43-9.36.37Z"/>
  <path class="cls-6" d="M71.35,75.48c1.02-1.2,2.32-2.15,3.86-2.57-.88.8-1.99,2.97-2.94,3.49-.76.42-1.49,2.08-1.78,3.27-.25,1.01-.41,2.12-.42,3.16-.91-.79-.56-2.6-.31-3.71.15-.65.53-1.95,1.05-2.29l.55-1.34Z"/>
  <path class="cls-3" d="M70.43,55.09c.02.06-.02.14,0,.18.53,1.18.87,1.91,2.2,2.39-.73.02-1.65.2-2.57.18-1.16-.02-3.03.07-4.11-.18-.21-.05-.09-.36-.11-.38,1.54.59,2.48-1.39,3.86-2.02.12-.06.67-.22.73-.18Z"/>
  <path class="cls-6" d="M95.04,80.81l.18.18c-7.12-.32-13.21-.21-20.29.37-.58.05-1.17-.03-1.74,0l.37,1.1c-.19-.22-.77-.66-.72-.99.12-.74,2.03-.43,2.64-.49,6.94-.61,12.65-.54,19.56-.18Z"/>
  <path class="cls-6" d="M83.28,71.62c-.18-.29-.42-.46-.51-.87-.33-1.61,1.53-5.82,1.96-7.69.49-2.12,1.13-7.71.5-9.66-.25-.78-.49-1.25-1.41-1.07.25,2.7.06,5.63-.42,8.3-.55,3.05-2.75,7.04-2.32,9.96.1.65,1.04,1.62.07,1.77-.86.13-1.98-.98-1.92-1.85.05-.07.32.22.37.18-.28.73,1.58,1.7,1.84,1.47-.06-.54-.58-.87-.69-1.42-.51-2.51,1.3-5.83,1.93-8.28.52-2.02.93-4.83.98-6.92.02-.91-.37-2.89.01-3.48.59-.91,1.83.93,1.96,1.68.35,2.1.02,6.36-.41,8.5s-2.51,6.82-2.26,8.49c.04.26.34.56.33.87Z"/>
  <path class="cls-6" d="M79.8,46.28c.34.09.79.22,1.07.41.09.06.01.3.03.33.03.03.26-.1.39.11.19.31.15.82.17,1.18-.26.64-.8.58-1.38.56-1.73-.04-3.67-.8-5.41-.93-2.86-.22-6.56.53-9,2.02-.02.01.06.27-.22.43-.26.15-1.66,1-1.8.86.05-.66.57-1.16.92-1.65.56.31-.56.49-.18.92.13.15,1.08-.42,1.28-.55.02-.01-.07-.25.14-.36,1.46-.82,4.36-1.88,6.02-2.02,3.21-.29,6.1,1.04,9.27.92.08-.08-.05-1.3-.18-1.47-.02-.02-.21.05-.32-.05-.26-.26-.41-.49-.79-.68Z"/>
  <path class="cls-3" d="M81.45,56.93c-.1.31-1.43.19-1.84.18-.95-.01-1.8-.17-2.75,0,.06-.05.13-.13.18-.18.65-.66.96-1.42.92-2.39.6.33,1.29.58,1.82,1.02.59.5.8,1.4,1.67,1.36Z"/>
  <path class="cls-1" d="M61.62,77.32c-.49-3.24-.92-6.65-1.1-9.92.28-.03.28-.53,0-.55-.06-1.37,0-2.84,0-4.13v-4.78c0-.21.31-1.13.37-1.56.31.19.2.68.16.99-.61,5.76-.21,11,.39,16.74.11,1,.62,2.29.18,3.22Z"/>
  <path class="cls-6" d="M106.61,52.15c1.26.42,1.75.77,2.75,1.65-.77-.27-1.28-.81-2.08-1.14-1.98-.82-7.41-1.48-9.19-.31-1.12.73.24.35.53.33.87-.05,1.06.51.36.75-.43.14-1.11.43-1.19.37l.92-.73-2.39.46c.78-.7,1.34-1.47,2.39-1.75.15-.04.38.03.55,0,2.75-.52,4.66-.52,7.34.37Z"/>
  <path class="cls-6" d="M76.67,60.24c-1.9,1.04-4.91,1.93-6.43-.18l6.43.18Z"/>
  <path class="cls-3" d="M110.83,57.48s.77.24.46.37c-.86-.12-1.9-.32-2.75-.37-.74-.04-1.87-.15-2.55-.14-.24,0-.58.49-.66.14.92-.38,1.81-1.06,2.11-2.02.32,0,1.99,1.58,2.56,1.85.39.18.61.1.84.17Z"/>
  <path class="cls-6" d="M82.92,92.75c-.3-.2-.97-.28-.92-.92,2.4-.45,4.83.26,7.26.19,1.39-.04,2.92-.4,4.31-.56-.22.49-.93.67-1.29.92.11-.78-.56-.18-.83-.18h-6.06c-.07,0-.3-.18-.54-.19-.76-.04-1.54.04-2.3,0l.37.73Z"/>
  <path class="cls-6" d="M78.69,87.6l1.61.68c2.86,1.76,7.22,1.9,10.58,1.5.96-.11,2.17-.69,3.05-.34-2.37,1.18-9.63.87-12.17-.04-1.14-.41-2.09-1.12-3.07-1.8Z"/>
  <path class="cls-3" d="M66.76,47.01l-.18-.18c.57-.29.89-.68,1.55-.93,2.75-1.03,8.6-1.38,11.3-.26.38.16.5-.02.18.45-.21-.09-1.19-.32-1.47-.37-.51-.33-1.25-.34-1.84-.37-.85-.31-2.26-.31-3.12,0-2.22.1-4.56.34-6.43,1.65Z"/>
  <path class="cls-6" d="M105.5,60.24c.12-.02.57-.04.27.18-1.47.64-3.31.96-4.91.69-.56-.1-1.19-.5-1.79-.69-.28-.4-.25-.45.24-.33,2.02.5,4.14.44,6.19.15Z"/>
  <path class="cls-3" d="M95.04,46.83c2.77-2.67,11.3-2.29,14.6-.37l1.19.92c-4.17-2.91-11.35-2.77-15.79-.55Z"/>
  <path class="cls-6" d="M71.35,75.48l-.55,1.34c-.52.34-.9,1.64-1.05,2.29-.25,1.11-.59,2.93.31,3.71.01-1.04.18-2.15.42-3.16.29-1.19,1.02-2.85,1.78-3.27-1.46,2.12-1.85,4.65-2.02,7.16-2.29-2.01-.54-6.14,1.1-8.08Z"/>
  <path class="cls-6" d="M106.79,78.05c1.02,1.61,1.25,3.16.46,4.96-.17.39-1.17,2.06-1.2.82-.03-1.12.56-3.33,0-4.35-.16-.29-.78-.32-.73-.88.02.02.22-.05.32.05.11.11.97,1.25.97,1.33v2.76c0,.14-.32.53-.18.83.97-.82.98-2.38.89-3.56l-.53-1.95Z"/>
  <path class="cls-1" d="M101.65,83.75c.22,0,.18-.21.18-.37.51-.19,1.48-1.42.88-1.81-.22-.14-4.55-.54-5.2-.58-.7-.05-1.41.03-2.11,0-.06,0-.12,0-.18,0l-.18-.18c1.81.09,3.86-.07,5.78.19.85.11,2.62.22,2.22,1.47-.09.28-.88,1.14-1.13,1.3-.21.15-.26-.03-.27-.02Z"/>
  <path class="cls-3" d="M97.06,57.11c.6-.25,1.74-1.48,2.28-1.48l1.02,1.66c-1.06-.46-2.04-.65-3.12,0,0-.03-.15-.11-.18-.18Z"/>
  <path class="cls-1" d="M117.07,80.07c-.21,1.35-.4,2.61-.75,3.93-.67,2.59-1.62,5.4-3.29,7.45-.09-.03-.15-.07-.09-.17.3-.62.97-1.34,1.3-2.02,1.39-2.88,1.91-6.15,2.84-9.19Z"/>
  <path class="cls-3" d="M81.45,48.3s.27.14.11.36c-.09.12-.51.35-.66.37-1.24.22-3.81-.3-5.14-.55-.48-.09-1.29-.13-1.1-.55,1.75.13,3.68.88,5.41.93.59.02,1.12.08,1.38-.56Z"/>
  <path class="cls-6" d="M78.33,69.6c.33.2-.14.62-.19,1-.1.74.04,1.52.48,2.12,1.07,1.46,2.89,1.17,4.49,1.75,2.05.74,3.25,2.73,5.51,1.01-.63.56-.96,1.2-2.06,1.07-.96-.11-1.98-1.21-2.85-1.57-1.77-.74-4.21-.49-5.44-2.27-.81-1.18-.58-1.96.07-3.11Z"/>
  <path class="cls-6" d="M94.3,74.01c-1.52.61-2.98.3-4.59.37,0-.02-.2-.06-.19-.18l4.78-.19Z"/>
  <path class="cls-1" d="M117.81,76.95c-.15.98-.37,2.01-.73,2.94.13-.89.22-1.78.37-2.66.07-.39-.2-.64.36-.28Z"/>
  <path class="cls-6" d="M95.4,88.89c-.41.18-.82.37-1.29.37.22-.1.62-.72,1.16-.52l.12.15Z"/>
  <path class="cls-6" d="M101.28,83.93c.01.49-.45.62-.73.92l-.18-.09c.23-.59.47-.6.91-.83Z"/>
  <path class="cls-6" d="M104.03,77.32c-.53.02-.65-.48-.92-.73.76-.04.73.51.92.73Z"/>
  <path class="cls-6" d="M78.14,87.24l.09-.18c.34-.07.29.05.27.37-.06-.04-.21-.06-.37-.18Z"/>
  <path class="cls-6" d="M73.19,45.36c.98-.04,2.14-.05,3.12,0,.59.03,1.32.04,1.84.37-2.99-.49-8.84-.29-11.38,1.47v-.18c1.87-1.32,4.2-1.55,6.43-1.65Z"/>
  <path class="cls-6" d="M83.65,71.99s.03.22-.18.18c-.03-.11.03-.31,0-.37l.18.18Z"/>
  <path class="cls-6" d="M80.16,53.62v.18c-.27-.25-.95-.29-.92-.92.38.21.65.24.92.73Z"/>
  <path class="cls-6" d="M65.47,48.48c.06-.06.12-.12.18-.18l-.18.18Z"/>
  <path class="cls-1" d="M55.01,253.09c-12.04.69-22.74-.63-34.52-2.02.29-.31.61-.17.95-.13,6.25.59,12.51,1.69,18.79,1.97,4.51.2,9.23-.05,13.77,0,.31,0,.82-.12,1.01.19Z"/>
  <path class="cls-1" d="M3.59,235.28c-.54-7.54-.03-15.12.92-22.59.28.18.22.72.19,1.02-.42,5.71-1.23,11.1-1.12,16.9.03,1.44.53,3.23,0,4.68Z"/>
  <path class="cls-1" d="M69.7,251.44c-4.66.71-9.62,1.36-14.32,1.65-.1-.56.28-.35.63-.37,4.31-.19,8.46-1.07,12.68-1.47.3-.03.82-.11,1.01.18Z"/>
  <path class="cls-1" d="M8.73,249.24l2.86.72c2.69.2,5.39.4,8.06.76.41.05.63-.18.28.36-3.03-.36-8.79-.5-11.2-1.84Z"/>
  <path class="cls-1" d="M29.48,191.38c-.08.74-.37,2-.37,2.66v5.69c0,.86.14,2.24.18,3.21-.54-1.87-.35-3.86-.36-5.79-.01-1.72-.14-3.38.17-5.15.06-.34-.21-.74.37-.63Z"/>
  <path class="cls-1" d="M29.85,205.71c-.56.36-.3.12-.36-.28-.13-.79-.16-1.5-.19-2.29l.55,2.57Z"/>
  <path class="cls-6" d="M120.19,32.5c-.38.12.01.54.09.73,3.12,7.3,5.47,14.88,9.04,21.99l1.15,1.34c1,1.86,2.1,3.66,3.12,5.51-.36.12-.05.49.07.67,1.84,2.68,3.07,5.84,4.42,8.88l2.3,6.79c0,.06,0,.12,0,.18.36,2.36.83,5.07.73,7.44,0,.22.14.68-.18.64-.63-3.01-1.37-6.04-2.34-8.96-.17-.52-.31-1.66-.97-1.7-3.04-8.17-8.12-14.88-11.94-22.59.38-.12-.01-.54-.09-.73-2.59-6.02-4.47-12.2-6.98-18.18-.99-2.36-2.26-4.52-3.29-6.81-.04-.09-.34-.76-.47-.36-1.29-2.33-2.89-4.69-4.4-6.89,2.12,1.04,4.31,3.36,5.76,5.25,1.57,2.05,2.83,4.47,3.96,6.78Z"/>
  <path class="cls-6" d="M114.87,27.36c.13-.4.43.27.47.36,1.03,2.29,2.3,4.46,3.29,6.81,2.51,5.98,4.39,12.16,6.98,18.18.08.19.47.61.09.73-4.19-8.47-6.25-17.77-10.83-26.08Z"/>
  <path class="cls-6" d="M137.64,76.03c.66.04.79,1.17.97,1.7.97,2.92,1.71,5.95,2.34,8.96.32.04.17-.42.18-.64.1-2.37-.37-5.09-.73-7.44,1.23,2.71.85,5.98.92,8.91l-.36,1.56c-.46-4.35-1.78-8.94-3.31-13.04Z"/>
  <path class="cls-6" d="M130.48,56.56l-1.15-1.34c-3.57-7.11-5.91-14.69-9.04-21.99-.08-.19-.47-.61-.09-.73,3.89,7.94,6.01,16.12,10.28,24.06Z"/>
  <path class="cls-6" d="M140.39,78.42l-2.3-6.79c-1.35-3.04-2.58-6.21-4.42-8.88-.12-.17-.43-.55-.07-.67,2.85,5.15,5.91,10.5,6.79,16.35Z"/>
  <path class="cls-1" d="M88.24,3.48c1.11-.05,2.38-.05,3.49,0,1.77.08,3.57.33,5.33.55-4.43-.48-8.83-.53-13.3.39-.29.06-.57.28-.84-.02,1.84-.59,3.4-.83,5.33-.92Z"/>
  <path class="cls-1" d="M95.04,8.81c-.6.49-1.49.03-2.11,0-3.56-.17-7.18.44-10.37,2.02.36-.41,1.13-.85,1.62-1.05.78-.32,3.8-1.16,4.54-1.16h4.59c.26,0,1.35.14,1.74.18Z"/>
  <path class="cls-1" d="M93.57,6.97c.18-.34.65-.16.93-.1,2.01.38,4.58,1.3,6.4,2.23.22.11,1.17.66,1.12.99-2.5-1.47-5.56-2.71-8.45-3.12Z"/>
  <path class="cls-1" d="M138.92,129.48c.56-.1.35.28.37.63.06,1.62-.05,3.26,0,4.87l-.18-.37c0-.67,0-1.35,0-2.02,0-.49,0-.98,0-1.47,0-.4.14-1.04-.18-1.29,0-.12,0-.25,0-.37Z"/>
  <path class="cls-1" d="M100.18,4.95c-.62.24-1.73-.26-2.39-.47-.3-.09-.65.04-.55-.45.78.09,2.16.63,2.94.92Z"/>
  <path class="cls-6" d="M139.11,134.62h-.18c.01-.64-.16-1.53.18-2.02,0,.67,0,1.35,0,2.02Z"/>
  <path class="cls-5" d="M110.64,129.85c.08-1.56-.21-3.27.18-4.78-.04,1.56.18,3.28-.18,4.78Z"/>
  <path class="cls-5" d="M131.21,93.66c.04-1.28-.03-2.58,0-3.86,0,.07.17.29.2.62.07.94.07,2.34-.2,3.24Z"/>
  <path class="cls-5" d="M136.54,134.44c.04-1.05.05-2.26,0-3.31.31.92.31,2.37,0,3.31Z"/>
  <path class="cls-5" d="M119.46,132.24c.05-.85.05-1.9,0-2.76.31.68.31,2.04,0,2.76Z"/>
  <path class="cls-1" d="M77.04,139.58c-.44-.35-.27-.25-.55-.55l.55.55Z"/>
  <path class="cls-1" d="M49.87,69.24c-.5,4.53-.57,8.66-.55,13.22-.3-.19-.18-.7-.19-1.01-.05-3.99-.04-7.98.37-11.94.04-.43-.16-.62.37-.27Z"/>
  <path class="cls-1" d="M49.5,84.48c0,.23.15.93-.18.92,0-.92,0-1.84,0-2.75.32.41.2,1.28.18,1.84Z"/>
  <path class="cls-3" d="M56.48,115.71c-.34-.16-.08-.6-.02-.85.28-1.18.53-2.42.94-3.56-.23,1.48-.51,2.97-.92,4.41Z"/>
  <path class="cls-6" d="M79.98,150.42c-1.29.63-.02,1.37.35,1.09.07-.05.09-.63.38-.73.04.94.65.71,1.47.92-.02.2-.32.29-.37.37-.25.4-.23.43,0,.92-.85-.16-1.5.25-.92,1.1.02.1.12.13.18.18.78.65,2.14-1.32,1.8-2.44-.12-.39-.65-.58-.7-.68-.02-.04-.01-.28,0-.37,0-.02.14-.04.19-.1-.82-.28-.37-.55.37-.46.06,0,.13-.02.18,0l.73,2.94c-.21.65-1.36,1.76-2.01,1.93-3.61.96-4.34-4.35-1.84-5.24l.18.55ZM79.61,151.89c-.6-.51-.34,1.49,0,1.93.15.19.3.32.56.27-.03-.43.08-.92-.04-1.34-.01-.05-.48-.83-.52-.86Z"/>
  <path class="cls-6" d="M82.73,150.24c-.74-.09-1.18.18-.37.46-.05.05-.18.07-.19.1l-.92-.55v1.01s.92-.09.92-.09c.05.1.58.29.7.68.34,1.12-1.02,3.09-1.8,2.44.44-.18,1.13-.3,1.1-.92l-1.28-.19c.03.29-.05.66,0,.92-.58-.85.07-1.26.92-1.1-.23-.48-.25-.51,0-.92.55,2.24,1.34.13.91-.36-.05-.06-.41.03-.54,0-.82-.21-1.43.02-1.47-.92,0-.19.16-.37.18-.55-.08-.06-.77.11-.92.18l-.18-.55c.93-.33,2.14-.32,2.94.37Z"/>
  <path class="cls-6" d="M83.65,153.18l-.73-2.94c.54.17.92,2.37.73,2.94Z"/>
  <path class="cls-3" d="M60.52,67.4c-.01-.18,0-.37,0-.55.28.03.28.53,0,.55Z"/>
  <path class="cls-6" d="M99.81,9.17c.2.2-.17.57-.37.37s.17-.57.37-.37Z"/>
  <path class="cls-6" d="M139.11,131.13c-.33-.25-.17-.88-.18-1.29.32.25.18.88.18,1.29Z"/>
  <path class="cls-6" d="M46.01,208.28c-.99-.05-2.12-.03-3.12,0,.85-.31,2.26-.31,3.12,0Z"/>
  <path class="cls-6" d="M91.73,3.48c-1.11-.05-2.38-.05-3.49,0,1-.31,2.5-.31,3.49,0Z"/>
  <path class="cls-4" d="M99.26,83.38c-.09.35-1.62,1.41-2.02,1.65-3.7,2.26-9.18,3.33-13.41,2.3-1.53-.37-3.14-1.13-4.59-1.75-.5-.54-2.25-1.69-2.39-2.2l6.89-.88c2.51.44,5,.28,7.53.15l7.99.73Z"/>
  <path class="cls-6" d="M76.86,83.38c-.03-.12-.07-.4.12-.36,1.87-.16,3.78-.66,5.65-.75,3.98-.17,9.78.04,13.78.38.88.07,1.78.43,2.72.36.19-.03.16.26.13.37l-7.99-.73c-2.52.13-5.02.29-7.53-.15l-6.89.88Z"/>
  <path class="cls-6" d="M97.24,85.03c.16.24-.89.8-1.04.89-3.37,1.85-8.43,2.63-12.18,1.78-1.32-.3-4.03-1.31-4.77-2.11,1.45.61,3.06,1.37,4.59,1.75,4.23,1.03,9.71-.04,13.41-2.3Z"/>
  <path class="cls-6" d="M95.4,80.99c.7.03,1.41-.04,2.11,0,.65.04,4.98.44,5.2.58.59.39-.37,1.61-.88,1.81,0-.02-.18-.08-.18-.17.49.03,1.29-.99.81-1.32-1.05-.73-5.64-.14-7.06-.9Z"/>
  <path class="cls-3" d="M111.01,55.46c-.17-.16-.4-.19-.37-.55.21.13.4.26.55.46l-.18.09Z"/>
  <path class="cls-6" d="M109.54,53.99c.24.25.51.47.73.73-.02,0-.08.22-.37-.07-.2-.19-.36-.37-.37-.67Z"/>
  <path class="cls-6" d="M79.06,52.7c-1.32-.65-3.06-.86-4.49-1.11l-4.32.56c2.55-1.11,6.54-1.18,8.81.55Z"/>
  <path class="cls-6" d="M70.43,55.28c.59.05.49.91.92,1.38.74.83,1.98.93,3.02,1.02l2.67-.74c-.06.06-.12.14-.18.18-1.22.93-2,.69-3.4.73-.28,0-.59-.19-.82-.18-1.33-.48-1.67-1.21-2.2-2.39Z"/>
  <path class="cls-6" d="M70.43,55.09c-.07-.03-.61.13-.73.18l-.18-.18.81-.14.11.14Z"/>
  <path class="cls-3" d="M99.26,51.79c-.36-.56-.11-.29.28-.36,1.92-.37,4.68-.32,6.56.23.31.09.6.05.51.49-2.68-.89-4.59-.89-7.34-.37Z"/>
  <path class="cls-6" d="M76.31,45.36c-.98-.05-2.14-.04-3.12,0,.87-.31,2.27-.31,3.12,0Z"/>
  <path class="cls-1" d="M79.61,151.89s.5.82.52.86c.12.41,0,.91.04,1.34-.26.05-.41-.08-.56-.27-.34-.44-.6-2.44,0-1.93Z"/>
  <path class="cls-1" d="M79.98,150.42c.15-.07.83-.24.92-.18-.03.18-.19.36-.18.55-.29.09-.31.67-.38.73-.37.28-1.64-.47-.35-1.09Z"/>
  <path class="cls-1" d="M80.9,154.09c-.05-.26.03-.63,0-.92l1.28.19c.03.61-.66.73-1.1.92-.07-.05-.16-.09-.18-.18Z"/>
  <path class="cls-1" d="M82.18,151.71c.13.03.49-.06.54,0,.43.49-.36,2.6-.91.36.05-.07.34-.16.37-.37Z"/>
  <path class="cls-1" d="M82.18,150.79c-.01.08-.02.33,0,.37l-.92.09v-1.01s.92.55.92.55Z"/>
</svg>