<?xml version="1.0" encoding="UTF-8"?>
<svg id="Layer_1" data-name="Layer 1" xmlns="http://www.w3.org/2000/svg" viewBox="0 0 180.73 261.93">
  <defs>
    <style>
      .cls-1 {
        fill: #feb66c;
      }

      .cls-2 {
        stroke: #2f3630;
        stroke-linecap: round;
        stroke-linejoin: round;
        stroke-width: .37px;
      }

      .cls-2, .cls-3 {
        fill: #2f3630;
      }

      .cls-4 {
        fill: #76417c;
      }
    </style>
  </defs>
  <path class="cls-2" d="M38.59,114.98c-.43-8.79-3.11-14.87-1.42-24.28,1.58-8.79,5.47-17.2,7.23-26.38,3.61-18.78,5.87-43.35,23.99-54.44,3.41-2.09,5.92-4.84,9.49-6.67,16.27-8.34,34.96,1.85,45.17,14.89,8.77,11.2,14.37,27.67,18.92,41.13,2.66,7.87,5.99,17.61,6.42,25.9.32,6.17-.75,12.47-.36,18.55.54,8.38,5.45,12.01,9.88,18.22.66.93,2.13,3.72,2.65,4.23.49.49,3.67,1.74,4.6,2.29,13.51,7.94,12.48,24.26,13.72,37.89.46,5.12,1.41,10.52,1.65,15.62.28,6.02-2.44,7.32-6.69,10.75-3.45,17.55-9.45,34.21-16.78,50.45-.61,1.34-3.01,5.69-2.98,6.76l1.47,11.86h-15.42c4.75-3.93,8.07-9.46,10.93-14.87,8.17-15.5,15.26-34.95,18.63-52.17.28-1.4.5-2.81.73-4.22,0-.06,0-.12,0-.18.55-1.61.69-3.33.96-5.01.21-1.31.57-2.72.69-4.09.07-.84.04-1.84-.09-2.66-.15-.25-3.43-1.35-3.99-1.52-7.93-2.35-18.81-1.58-26.58,1.15-3.04,1.07-5.96,2.54-8.45,4.54l-3.11,11.99c1.45-.6,2.95-1.12,4.47-1.49,1.91-.47,5.14-1.23,7.02-1.43,4.04-.43,6.01,2.72,4.85,6.41.21-.08.39-.18.64-.19,1.14-.04,3.71-.25,4.64.14,1.47.62,1.98,4.16,1.58,5.52-.12.42-1.09,1.84-1.09,1.96.02.55.56,1.4.64,2.04.27,2.02-.79,4.1-2.49,5.19-1.31.84-1.87.07-2.06,1.98-.12,1.28-.01,1.97-.86,3.18-1.39,1.98-7.07,4.49-9.43,6s-4.51,3.29-6.81,4.86c-.08.12,1.47,1.49,1.65,1.74.77,1.03,1.79,2.85-.42,2.44-2.32-.44-5.31-1.98-7.81-2.66-9.92-2.7-21.26-3.11-31.5-4.67-8.9-1.36-18.48-3.23-27.11-5.76-8.78-2.57-19.11-8.07-28.27-4.4-1.35.54-3.56,1.76-4.38,2.96-1.2,1.75-1.75,4.73-2.96,6.58l6.73,2.63c22.54,12.52,43.66,28.72,69.47,34.01H35.83c-7.92-1.35-16.37-1.96-24.24-3.76-8.48-1.95-10.7-6.71-11.2-15.07-1.26-21.34,3.21-43.63,9.87-63.77-.66-1.44-1.26-2.32-.82-3.95.95-3.51,2.95-7.68,4.17-11.25,4.22-12.29,6.77-26.3,19.77-32.48,2.17-4.61,4.9-8.23,5.19-13.54.31-.74.31-2.16,0-2.94ZM142.7,76.23c-.93-5.53-3.66-12.68-5.51-18.1-6.5-19.05-15.58-45.66-36.5-52.94-8.28-2.88-20.41-2.2-25.83,5.66-1.7,2.46-.7,2.76.08,5.32.42.07.29-.02.41-.23.64-1.17.69-2.03,1.7-3.26,4.82-5.88,14.29-7.83,21.26-5.1,13.78,5.4,17.67,26.75,24.34,38.65,5.39,9.61,12.35,13.69,14.3,25.74.32,1.97.24,4.02.79,5.92-.06.35.23.86-.37.74-.59-3.51-1.94-6.93-3.64-10.04-3.96-7.25-10.71-12.06-14.54-19.35-.11-.2-.18-.41-.37-.55,0-.53-.52-1.04-.73-1.47s-.28-1.11-.73-1.47c-.02-.06.02-.13,0-.18-1.25-4.45-3.19-9.83-4.77-14.24-4.08-11.41-12.57-25.37-26.91-21.4-.29.08-.54-.2-.45.37.45.01.9-.04,1.35.02,17.58,2.45,23.33,21.31,28.03,35.79.05.22.13.37.18.55.11.37.06.85.55.73.04.16-.04.4,0,.55.22.78.47,1.05.73,1.65.56,1.28,1.17,2.46,1.84,3.67.15.27.3.43.37.55,2.48,4.39,4.76,6.84,7.89,10.75,6.9,8.63,8.13,16.22,7.72,27.19-.06,1.58-.4,2.99-.37,4.68,0,.12,0,.25,0,.37-.35.78-.16,1.86-.18,2.76,0,.18,0,.37,0,.55-.03,1.71-.1,3.23,0,4.96.23,3.99,1.22,7.5,2.66,11.2-6.11-5.76-8.86-14.71-7.07-22.96-.28.05-.35.34-.45.55-2.63,5.15-4.23,11.15-3.56,16.96.46,4.01,2.21,7.43,3.04,11.29,3.2,14.84-10.34,25.8-7.06,41.04.59,2.75,2.33,6.41,4.72,7.95-.76-1.68-1.32-3.86-1.46-5.7-.92-11.96,9.53-20.36,11.88-31.46.39-1.83.36-3.7.6-5.55.34.06.31.38.39.62.84,2.47,1.17,6.42.87,9-.28,2.44-1.05,5.13-2.36,7.19.67-.14,1.28-.88,1.74-1.38,4.13-4.47,6.1-11.31,5.57-17.34-.41-4.72-2.94-9.11-4.38-13.52-.06-.19-.18-.35-.18-.37-.03-.1.03-.27,0-.37-.07-.23-.18-.35-.18-.37-.09-.32-.11-.76-.18-1.1-.06-.27-.18-.35-.18-.37-.02-.11.02-.25,0-.37-.03-.19.07-.46-.18-.55.01-.18,0-.37,0-.55,0-.28.04-.52-.18-.73.02-.3-.01-.61,0-.92,0-.24,0-.49,0-.73,0-.31,0-.61,0-.92,0-.55.03-1.11,0-1.65-.02-.45-.32-1-.19-1.54.06-.23.29-.08.37-.12.29,1.21.97,2.36,1.47,3.49.07.16.1.36.18.55.15.33.35.51.37.55.02.05-.02.13,0,.18.44.92.81,1.55,1.29,2.39.12.22.19.43.37.73.32.53.52,1.27,1.1,1.65.17.38.26.38.37.55.45.75.73,1.01,1.29,1.65.13.16.26.25.37.37.39.42.78.78,1.1,1.1.25.25.47.49.73.73.44.41.88.75,1.29,1.1.1.09.2.23.37.37,1.97,1.62,4.03,3.14,6.15,4.59.23.07.37-.05.27-.27-.1-.24-1.2-1.25-1.47-1.56-.25-.3-.48-.62-.73-.92-.13-.16-.28-.26-.37-.37-.2-.23-.43-.41-.55-.55-.06-.07-.15-.3-.37-.55-.31-.36-.7-.66-.92-.92-.06-.08-.17-.31-.37-.55-.29-.35-.66-.76-.92-1.1-.17-.23-.21-.78-.73-.92-.15-.56-.35-.57-.55-.92-.26-.46-.48-.72-.73-1.1-.05-.08-.09-.23-.18-.37-.34-.51-.53-.51-.55-.55-.05-.07.11-.51-.18-.73-.17-.84-.62-1.53-.87-2.35-1.8-6.03-.53-12.05-.42-18.22,0-.18,0-.37,0-.55,0-.43,0-.86,0-1.29,0-.89.16-1.98-.18-2.76.02-.36,0-.74,0-1.1s.12-.9-.18-1.1c-.04-.63-.12-1.22-.18-1.84-.02-.2.07-.47-.18-.55.02-.16.01-.38,0-.55-.01-.21,0-.39-.18-.55.05-.48-.09-.84-.18-1.29-.08-.39-.02-.81-.37-1.1-.04-.51-.1-.97-.18-1.47ZM68.52,15.43c-.44-.51-4.99,3.92-5.42,4.4-13.99,15.81-12.06,36.09-17.67,54.88-2.28,7.66-5.46,13.68-5.74,22-.24,7.21,2.53,14.26,2.02,21.49-.31,4.31-1.99,8.98-4.59,12.4,4.44-.8,8.7-1.65,11.75-5.24,7.84-9.23,3.02-26.02,2.03-37.1-.05-.6.07-1.27,0-1.84-.03-.25-.14-.58-.37-.27-.73,5.27-1.29,10.56-1.11,15.9.08,2.25.49,4.54.57,6.78.2,5.76.09,12.82-4.41,17,1.53-4.67,1.58-9.73,1.1-14.6-.38-3.86-1.61-7.71-1.84-11.57-.59-9.76.99-15.82,3.59-24.9,2.8-9.79,2.89-18.05,4.53-27.8,1.8-10.71,6.2-19.61,14.11-27.03.32-.3,1.61-1.15,1.75-1.38.41-.67-.54-2.27-.28-3.12ZM76.41,101.39c4.3,3.08,7.82,4.25,13.22,3.49,11.14-1.57,22.3-13.22,25.39-23.74,2.19-7.46,4.12-14.84,1.33-22.36-2.96-7.97-6.2-12.82-15.6-11.76-1.89.22-5.74,1.67-7.26,1.2-.69-.21-1.15-1.29-1.02-1.94.25-1.29,2.07-1.88,3.19-2.15,4.94-1.18,10.53-.52,15.1,1.6-1.1-2.94-2.13-5.92-3.13-8.9-1.3-3.87-1.99-6.98-4.36-10.52-4.15-6.18-13.48-8.04-20.46-6.98-13.8,2.11-19.56,17.09-21.24,29.27-.97,7-1.85,14.4-.91,21.44,1.74,13.02,4.57,23.33,15.76,31.35ZM58.6,78.98c-.19-1.05-.22-2.11-.42-3.16-.13-.7-.64-3-.9-3.5-.19-.37-.3-.35-.69-.32-.3.32.99,5.53,1.34,6.29.13.28.26.81.68.69ZM107.63,168.8c-.37-3.08.3-6.76,1.19-9.73,3.26-10.91,13.69-15.51,15.28-27.7,1.01-7.72-1.42-10.38-4.02-16.82-4.11-10.18,2.31-17.37,5.5-26.35,1.81-5.09,1.85-10.24-.14-15.29-.33-.04-.18.41-.16.62,1.28,13.66-5.89,18.69-10.65,29.81-5.77,13.48,3.77,21.42.92,33.06-1.49,6.09-6.1,11.15-8.5,16.84-1.94,4.59-2.77,10.82.13,15.19.14.21-.05.48.45.36ZM129.02,92.94v.18c.12-.06.12-.12,0-.18ZM71.27,129.13v-7.53l-5.78,3.86c-.7,1-.16,4.96.18,6.24,1.14,4.34,4.31,6.75,8.23,8.48,10.17,4.48,20.05.6,29.19-4.25,3.67-5.78,4.77-12.29,5.08-19.03.24-5.17.32-9.81,1.17-15,.29-1.79,1.11-4.31,1.23-5.93,0-.12.05-.3-.09-.28-7.77,8.89-21.21,18.01-33.01,10.98-2.11-1.25-3.66-2.93-5.27-4.74-.23.81.21,1.51.3,2.14.87,5.83,2.69,17.01.58,22.34-.34.86-1.06,2.15-1.79,2.7ZM104.88,172.11l-1.97-4.18c-4.08-11.09,3.52-17.1,6.88-26.63.97-2.74,1.62-5.61,1.98-8.49-5.6,9.58-20.07,25.13-10.65,36.37.34.41,3.44,3.28,3.77,2.94ZM34.18,178.91c2.38-6.89,4.44-13.8,3.86-21.21-.11-1.44-.57-2.86-.55-4.32-.28.04-.29.78-.34,1.04-.38,2.23-.48,4.65-.79,6.92-.68,4.98-1.79,9.94-2.34,14.93-.06.54-.26,1.94-.21,2.36.03.26.13.54.37.28ZM114.79,183.5c3.34-2.96,3.82-7.42,3.06-11.61-.45-2.48-1.54-4.84-2.06-7.31-.74-3.55-.38-7.07-.36-10.66-2.19,4.97-3.17,9.85-2.24,15.29.53,3.08,2,5.9,2.15,9.06.09,1.79-.4,3.46-.55,5.23ZM139.95,159.07c-.36-.08-.43.19-.62.38-.95.96-2.09,2.79-2.83,3.97-2.55,4.1-4.81,9.11-4.81,14.01l8.26-18.37ZM4.43,222.81c-.57,7.07-1.44,18.09.37,24.8,1.29,4.78,3.55,6.07,8.23,7.1,5.07,1.12,11.17,1.75,16.38,2.45,12.97,1.73,22.56,1.53,35.44-.55,3.62-.58,7.21-1.29,10.83-1.84l-.19-.27-40.02-23.52c-4.97-3.06-12.88-3.21-17.63-5.97l.36-.65c2.76-.56,5.62.32,8.43.25.99-2.11,1.82-4.28,2.78-6.4.76-1.67,1.41-3.43,2.54-4.89-.56-1.39-.9-2.83-1.26-4.29-1.06-4.39-1.46-7.77-1.1-12.31.31-3.91,1.15-7.73,2.2-11.51.06-.89-1.35-1.81-2.03-2.34-2.75-2.17-6.49-3.99-9.89-4.8-.8-.19-4.25-.91-4.78-.75-.19.06-.41.23-.55.38-.72.77-2.56,7.09-2.99,8.55-3.46,11.82-6.11,24.26-7.11,36.55ZM146.38,200.95c-3.64.22-12.27,1.95-15.49,3.51-4.03,1.95-6.34,5.97-9.76,8.42-.46.33-.96.78-1.56.74-.54-.56,2.6-4.59,3.13-5.23,3.93-4.81,6.53-6.61,12.48-8.45,1.55-.48,7.51-1.78,8.34-2.67,1.02-1.1.22-2.32-1.12-2.5-3.08.9-6.43,1-9.47,2.02-9.56,3.2-15.47,15.08-20.45,23.08-.89,1.44-2.04,2.73-2.83,4.24,6.22.82,12.45,1.68,18.46,3.5l.44-.1c2.61-2.11,5.2-4.3,8.03-6.12,2.29-1.48,6.04-2.99,7.95-4.54.57-.46.92-1.46.7-2.16-.26-.86-1.52-.37-2.13-.18-3.89,1.2-8.57,3.11-12.03,5.23-1.08.66-5.98,4.28-6.68,4.34-1.31.12-.14-1.73.22-2.18,3.17-4,9.79-7.1,14.5-8.82,2.16-.79,5.36-1.96,7.55-2.36,1.11-.2,1.4.33,2.28-.85.61-.82,1.31-2.65-.13-2.99-1.29-.3-4.81,1.28-6.3,1.7-5.75,1.63-10.01,2.02-14.96,5.79-2.07,1.58-3.86,3.53-5.96,5.06-.39.12-.67.17-.93-.2,1.72-3.54,5.3-6.88,8.5-9.13,4.98-3.5,11.2-3.9,16.92-5.48.94-.26,4.41-1.08,4.66-1.96.36-1.21-1.14-1.54-1.99-1.7-.73-.14-1.65-.43-2.39,0Z"/>
  <path class="cls-1" d="M141.42,178.17c.17.36.58.07.83,0,9.75-2.64,20.17-3.64,29.65.56-.37.94-.1,2.02-.19,3.02-.23,2.73-.83,5.81-1.28,8.54,0,.06,0,.12,0,.18-.43.72-.53,1.72-.68,2.54-.08.47-.38,1.3-.06,1.69-3.37,17.22-10.46,36.67-18.63,52.17-2.85,5.41-6.18,10.94-10.93,14.87h-33.79c-25.81-5.3-46.93-21.49-69.47-34.01l-6.73-2.63c1.21-1.86,1.76-4.84,2.96-6.58.83-1.2,3.04-2.42,4.38-2.96,9.17-3.66,19.5,1.83,28.27,4.4,8.63,2.53,18.21,4.39,27.11,5.76,10.24,1.57,21.58,1.97,31.5,4.67,2.49.68,5.49,2.22,7.81,2.66s1.19-1.41.42-2.44c-.19-.25-1.73-1.62-1.65-1.74,2.3-1.57,4.46-3.35,6.81-4.86s8.04-4.02,9.43-6c.85-1.21.74-1.9.86-3.18.18-1.92.75-1.14,2.06-1.98,1.7-1.09,2.76-3.17,2.49-5.19-.09-.64-.63-1.49-.64-2.04,0-.11.96-1.53,1.09-1.96.4-1.36-.1-4.91-1.58-5.52-.94-.39-3.5-.18-4.64-.14-.25,0-.42.1-.64.19,1.16-3.69-.81-6.84-4.85-6.41-1.89.2-5.11.96-7.02,1.43-1.53.38-3.03.89-4.47,1.49l3.11-11.99c2.5-2,5.41-3.47,8.45-4.54Z"/>
  <path class="cls-4" d="M38.59,117.92c.05-.91.04-2.02,0-2.94.31.78.31,2.19,0,2.94Z"/>
  <path class="cls-1" d="M76.41,101.39c-11.19-8.01-14.02-18.33-15.76-31.35-.94-7.04-.06-14.44.91-21.44,1.68-12.18,7.44-27.16,21.24-29.27,6.98-1.07,16.32.8,20.46,6.98,2.37,3.53,3.06,6.65,4.36,10.52,1,2.98,2.03,5.96,3.13,8.9-4.57-2.12-10.16-2.78-15.1-1.6-1.12.27-2.94.86-3.19,2.15-.13.66.33,1.73,1.02,1.94,1.52.47,5.37-.99,7.26-1.2,9.4-1.07,12.65,3.79,15.6,11.76,2.79,7.53.86,14.91-1.33,22.36-3.09,10.52-14.25,22.17-25.39,23.74-.19-.31-.68-.2-.99-.16-4.45.47-7.97-.63-11.59-3.15-.12-.08-.59-.52-.65-.18ZM81.12,47.87c1.4-1.42.02-2.75-1.34-3.4-3.4-1.63-10.75-1.74-13.66.98-.49.46-2.66,4.21-2.38,4.5l3.73-2.6c2.23-1.02,4.39-1.08,6.77-.65,1.68.31,4.68,1.82,6.1,1.59.24-.04.6-.25.77-.42ZM83.66,49.15c-.19-.29-.22-.73-.63-.84.03.58-.05,1.17,0,1.74.48,5.62-1.48,12.85-3.82,18.04-.63,1.4-2.24,3.01-1.22,4.64,1.56,2.48,5.32,2.43,7.7,3.66.64-.22.94-.65,1.62-.94,2.1-.9,6.12-.82,7.26-2.66s-.26-2.89-1.8-3.55c-.2.59.5,2.15,0,2.49-.11.08-2.03.18-2.62.32-1.79.42-3.29,1.98-5.11,1.51-.47-.12-4.31-2.54-4.39-2.79.66-2.33,1.97-4.23,2.79-6.53,1.65-4.67,3.03-10.69.21-15.1ZM78.98,51.98c-.04-1.1-1.53-2.02-2.44-2.42-2.37-1.03-5.3-.42-7.1,1.41l3.42-.81c2.27-.39,4.15.98,6.13,1.81ZM107.08,51.43c.34-.36-1.35-1.32-1.6-1.43-3.1-1.35-8.04-1.13-9.6,2.35.2.19,2.78-1.25,3.26-1.42,2.67-.97,5.39-.62,7.94.51ZM76.78,53.82c1.09.42,2.14,1.36,3.29,1.57.22.04.93.17.92-.19-.01-.5-3.57-3.14-4.24-3.47-4.42-2.16-6.88-.49-9.99,2.45-.52.49-1.65,1.33-.37,1.48,2.24.27,2.9-1.43,4.69-2.21-.1,4.51,5.5,5.09,5.7.37ZM111.12,56.2c.08-.32-.13-.37-.27-.55-1.05-1.37-3.78-3.85-5.42-4.31-4.4-1.24-8.58,1.17-11.38,4.4.18.26.35.28.64.29,1.28.07,3.98-1.88,5.23-2.41-.34,4.68,6.04,5.4,6.61.73,1.3,1.25,2.69,2.11,4.59,1.84ZM77.15,58.23c-2,.1-3.96.29-5.97.37-.22,0-.68-.14-.64.18,1.84.44,3.78.59,5.61.01.25-.08.92-.28,1-.56ZM105.43,59.33l-6.61-.55c1.52,1.24,4.09,1.23,5.95.9.2-.04.69-.06.66-.35ZM70.35,82.65c.24-.75.42-1.56.76-2.27.19-.39,1.93-2.75,1.81-2.87-2.26.75-3.59,2.14-2.88,4.63.05.19.04.56.31.51ZM103.59,83.57c.09-.1.38-1.31.38-1.56.04-1.47-1.34-3.17-2.77-3.4,1.11,1.59,1.59,2.8,2.02,4.68.05.22.06.58.36.27ZM76.41,84.12c-.1.53,1.44.68,1.77.71,2.15.2,4.44.44,6.58.58,1.94.13,4.18-.3,6.26-.2s3,.67,5.27-.05c.3-.1.6-.04.51-.49,1.5-.42,3.8-.95,4.04-2.75-.18-.16-4.14.39-4.87.38-2.54-.04-4.98-.95-7.7-.74-.74.06-1.96.5-2.58.46-.44-.03-1.13-.41-1.83-.47-3.13-.27-6.54.45-9.71.22-1.15,1.38,1.26,2.03,2.27,2.36ZM93.31,87.8c-3.69.73-7.52,1.01-11.21.25-.93-.19-1.98-.61-2.93-.8-.37.34,2.24,2.19,2.51,2.35,3.48,2,9.21,1.67,11.62-1.8Z"/>
  <path class="cls-1" d="M29.59,196.72l-.37-.27c-.07,4.05-.08,8.13.98,12.07.08.31.04.6.49.51.35,1.45.7,2.9,1.26,4.29-1.13,1.47-1.78,3.23-2.54,4.89-.45-.09-.64.67-.77.98-.3.7-1.91,5.03-2.17,5.19-2.43-.14-4.99-.68-7.43-.47-.67.06-1.31.14-1.56.83-.15.42.26.21.36.27,4.75,2.75,12.66,2.91,17.63,5.97l40.02,23.52.19.27c-3.62.55-7.22,1.26-10.83,1.84-.19-.36-.64-.13-.92-.09-8.14,1.02-15.48,1.95-23.79,1.57-3.25-.15-6.5-.81-9.73-1.11-.3-.03-.82-.11-1.01.18-5.21-.69-11.31-1.33-16.38-2.45-4.68-1.04-6.94-2.32-8.23-7.1.33-.18.18-.66.14-.96-1.1-7.66-.84-14.57-.31-22.27.03-.44.11-1.22-.19-1.57.99-12.29,3.65-24.74,7.11-36.55.43-1.46,2.27-7.78,2.99-8.55.14-.15.36-.33.55-.38.53-.16,3.98.56,4.78.75,3.41.81,7.15,2.63,9.89,4.8.68.53,2.09,1.45,2.03,2.34-1.05,3.78-1.88,7.6-2.2,11.51Z"/>
  <path class="cls-1" d="M71.27,129.13c.73-.55,1.45-1.84,1.79-2.7,2.11-5.32.3-16.51-.58-22.34-.09-.63-.53-1.33-.3-2.14,1.61,1.81,3.16,3.48,5.27,4.74,11.8,7.03,25.25-2.09,33.01-10.98.14-.03.1.16.09.28-.12,1.63-.94,4.15-1.23,5.93-.85,5.19-.93,9.82-1.17,15-.31,6.74-1.41,13.24-5.08,19.03-9.14,4.85-19.02,8.72-29.19,4.25-3.92-1.73-7.1-4.14-8.23-8.48-.34-1.28-.88-5.24-.18-6.24l5.78-3.86v7.53Z"/>
  <path class="cls-4" d="M142.7,76.23c-.68.14-.42-.91-.58-1.08-.09-.09-.46.02-.51-.03-.13-.12.15-.76.14-1-.02-.58-.39-2.31-1.16-2.3-.11,0-.06.33-.21.37-.29.07-.75-.1-.99.08-.05.04-.49,1.1-.5,1.17-.11.59.94,1.13.7,1.88-1.47.02-1.9-1.15-1.84,1.02.02.74.16.73,0,1.55-.55-1.9-.47-3.95-.79-5.92-1.95-12.05-8.91-16.13-14.3-25.74-6.67-11.9-10.56-33.26-24.34-38.65-6.97-2.73-16.44-.78-21.26,5.1-1.01,1.23-1.06,2.09-1.7,3.26-.12.21,0,.31-.41.23-.78-2.56-1.78-2.86-.08-5.32,5.42-7.86,17.55-8.54,25.83-5.66,20.92,7.28,30,33.9,36.5,52.94,1.85,5.41,4.58,12.57,5.51,18.1Z"/>
  <path class="cls-1" d="M148.76,200.95c.84.17,2.34.49,1.99,1.7-.26.87-3.72,1.7-4.66,1.96-5.72,1.58-11.94,1.99-16.92,5.48-3.2,2.25-6.78,5.59-8.5,9.13.26.37.54.32.93.2,2.11-1.53,3.9-3.48,5.96-5.06,4.95-3.77,9.21-4.16,14.96-5.79,1.49-.42,5-2.01,6.3-1.7,1.44.34.74,2.17.13,2.99-.88,1.17-1.17.64-2.28.85-2.2.4-5.39,1.57-7.55,2.36-4.71,1.73-11.33,4.82-14.5,8.82-.36.45-1.52,2.29-.22,2.18.7-.06,5.6-3.68,6.68-4.34,3.46-2.12,8.14-4.03,12.03-5.23.6-.19,1.87-.67,2.13.18.21.71-.14,1.7-.7,2.16-1.91,1.55-5.65,3.06-7.95,4.54-2.82,1.82-5.42,4.01-8.03,6.12l-.44.1c-6.01-1.82-12.25-2.68-18.46-3.5.79-1.51,1.94-2.8,2.83-4.24,4.98-7.99,10.89-19.88,20.45-23.08,3.04-1.02,6.39-1.12,9.47-2.02,1.33.18,2.14,1.4,1.12,2.5-.83.89-6.79,2.2-8.34,2.67-5.95,1.84-8.56,3.64-12.48,8.45-.52.64-3.67,4.67-3.13,5.23.6.05,1.09-.41,1.56-.74,3.42-2.45,5.73-6.47,9.76-8.42,3.22-1.56,11.86-3.29,15.49-3.51.79-.05,1.6.03,2.39,0Z"/>
  <path class="cls-4" d="M68.52,15.43c-.26.85.69,2.45.28,3.12-.14.22-1.42,1.07-1.75,1.38-7.91,7.42-12.31,16.33-14.11,27.03-1.64,9.75-1.73,18.01-4.53,27.8-2.6,9.08-4.17,15.14-3.59,24.9.23,3.86,1.46,7.71,1.84,11.57.48,4.87.43,9.93-1.1,14.6,4.51-4.18,4.62-11.24,4.41-17-.08-2.24-.49-4.54-.57-6.78-.18-5.34.38-10.63,1.11-15.9.23-.31.33.02.37.27.07.57-.05,1.24,0,1.84.99,11.08,5.81,27.87-2.03,37.1-3.04,3.58-7.31,4.44-11.75,5.24,2.6-3.42,4.28-8.09,4.59-12.4.52-7.23-2.25-14.27-2.02-21.49.27-8.32,3.45-14.33,5.74-22,5.6-18.79,3.68-39.08,17.67-54.88.43-.49,4.98-4.92,5.42-4.4Z"/>
  <path class="cls-4" d="M107.63,168.8c-.5.11-.31-.15-.45-.36-2.9-4.37-2.07-10.59-.13-15.19,2.4-5.69,7.01-10.75,8.5-16.84,2.85-11.64-6.69-19.58-.92-33.06,4.76-11.11,11.93-16.15,10.65-29.81-.02-.2-.17-.66.16-.62,1.99,5.05,1.95,10.2.14,15.29-3.19,8.97-9.61,16.17-5.5,26.35,2.6,6.44,5.03,9.1,4.02,16.82-1.6,12.19-12.02,16.79-15.28,27.7-.89,2.98-1.57,6.65-1.19,9.73Z"/>
  <path class="cls-4" d="M117.36,45.55c.02.06-.02.13,0,.18.12.45-.05,1.48.73,1.47.21.43.74.94.73,1.47,0,.05-.59.29.37.55,3.83,7.29,10.58,12.1,14.54,19.35,1.7,3.11,3.05,6.53,3.64,10.04.6.13.3-.38.37-.74.15-.82.01-.81,0-1.55-.06-2.17.37-1,1.84-1.02.24-.75-.81-1.29-.7-1.88.01-.07.45-1.13.5-1.17.25-.18.71-.01.99-.08.15-.04.1-.37.21-.37.77,0,1.13,1.72,1.16,2.3,0,.24-.26.88-.14,1,.05.05.42-.06.51.03.17.17-.1,1.22.58,1.08.08.5.14.96.18,1.47.02.26-.32,1.26.37,1.1.09.44.23.8.18,1.29,0,.05-.59.63.18.55.01.17.02.39,0,.55-.03.2-.55.64.18.55.07.62.15,1.21.18,1.84.01.19-.27.78.18,1.1,0,.36.02.74,0,1.1-.03.62-.21,1.29-.18,2.12.01.35-.19.74.37.63,0,.43,0,.86,0,1.29-.55-.16-.58.69,0,.55-.11,6.17-1.38,12.19.42,18.22.25.82.7,1.51.87,2.35-.1-.07-.51.22-.37-.55-.61.25-.8.13-1.2-.36h-.27c.04.68-.27.81-.92.73-.15-.58.7-.45.75-.66.05-.24-.08-.59-.01-.87.08-.34.15.14.2-.96.01-.29.36-.47.35-.89,0-.09-.32-1.72-.36-1.83-.06-.2-.48-.04-.72-.42-.26-.42-.09-1.16-.3-1.53-.34-.61-1.45-.15-.82-1.66l.73.18-.38-1.28-1.09.36.18-1.1c-1.26.42-.86-.98-1.75-1.11-.98-.14-1.07.66-1.32.74-.5.16-1.29.01-1.76.07-.17.02-.36.27-.6.31-.57.09-.99-.4-1.55-.37-.02-.78,1.05-.36,1.26-1.05.24-.81-.55-1.34-.53-1.79,0-.09.34-.08.38-.22.18-.7-.71-2.55-1.65-2.27-.01.46.02.93,0,1.39-.01.35.19.74-.37.63-.03-1.69.32-3.1.37-4.68.4-10.97-.82-18.56-7.72-27.19-3.13-3.91-5.41-6.36-7.89-10.75.01-.43.12-.64-.37-.55-.67-1.22-1.28-2.4-1.84-3.67.29-.27-.24-1.76-.73-1.65-.04-.15.04-.39,0-.55-.09-.36-.16-.88-.55-.73-.05-.18-.13-.33-.18-.55,0-.02.16-.11.11-.36-.06-.3-.63-1.48-.48-1.66.31-.35,1.06,1.49,1.2,1.64.84.89.97-.37,1.92-.17ZM140.13,74.39c1.61-.33,1.22-1.14-.18-1.47l.18,1.47ZM141.05,75.67c.35-.35-.58-1.13-.73-.46-.09.39.6.59.73.46ZM141.78,76.04c-1.25-.16-1.18,1.25-.27.56.19-.14.32-.31.27-.56Z"/>
  <path class="cls-4" d="M117.36,45.55c-.94-.2-1.08,1.06-1.92.17-.15-.15-.9-1.99-1.2-1.64-.16.18.41,1.36.48,1.66.05.25-.12.34-.11.36-4.69-14.49-10.45-33.35-28.03-35.79-.45-.06-.9-.01-1.35-.02-.09-.57.16-.29.45-.37,14.34-3.98,22.83,9.99,26.91,21.4,1.58,4.41,3.52,9.79,4.77,14.24Z"/>
  <path class="cls-4" d="M104.88,172.11c-.33.35-3.42-2.53-3.77-2.94-9.41-11.24,5.05-26.78,10.65-36.37-.35,2.88-1.01,5.75-1.98,8.49-3.36,9.53-10.96,15.55-6.88,26.63l1.97,4.18Z"/>
  <path class="cls-4" d="M114.79,183.5c.14-1.77.63-3.44.55-5.23-.15-3.16-1.62-5.98-2.15-9.06-.93-5.44.05-10.32,2.24-15.29-.02,3.59-.38,7.11.36,10.66.52,2.46,1.61,4.82,2.06,7.31.76,4.19.28,8.65-3.06,11.61Z"/>
  <path class="cls-4" d="M34.18,178.91c-.24.26-.35-.02-.37-.28-.04-.42.15-1.82.21-2.36.55-4.99,1.65-9.95,2.34-14.93.31-2.27.41-4.7.79-6.92.04-.26.05-1,.34-1.04-.02,1.46.44,2.88.55,4.32.58,7.41-1.48,14.32-3.86,21.21Z"/>
  <path class="cls-4" d="M139.95,159.07l-8.26,18.37c0-4.91,2.27-9.91,4.81-14.01.73-1.18,1.88-3.01,2.83-3.97.19-.19.26-.47.62-.38Z"/>
  <path class="cls-1" d="M64.85,256.6c-12.88,2.08-22.47,2.28-35.44.55.18-.29.71-.21,1.01-.18,3.23.3,6.48.96,9.73,1.11,8.31.38,15.65-.56,23.79-1.57.28-.03.73-.27.92.09Z"/>
  <path class="cls-1" d="M4.8,247.6c-1.81-6.71-.94-17.73-.37-24.8.31.35.22,1.13.19,1.57-.53,7.69-.78,14.61.31,22.27.04.29.19.77-.14.96Z"/>
  <path class="cls-4" d="M137.56,102.31s.09-.27.37-.18c.13,1.51.39-.28.82-.18.4.09.71,1.25.65,1.65.39.09.47-.37.82-.37.11,0,.06.34.21.37.68.16,1.3-.32,1.17.92-.95.19-1.48.1-2.39-.18l-.19,1.47c-.5-1.13-1.18-2.28-1.47-3.49Z"/>
  <path class="cls-1" d="M170.43,190.29c.45-2.73,1.06-5.81,1.28-8.54.08-1-.19-2.08.19-3.02-9.48-4.19-19.9-3.2-29.65-.56-.24.07-.66.36-.83,0,7.77-2.73,18.65-3.5,26.58-1.15.56.17,3.84,1.27,3.99,1.52.12.82.15,1.83.09,2.66-.11,1.37-.47,2.78-.69,4.09-.27,1.67-.42,3.39-.96,5.01Z"/>
  <path class="cls-4" d="M58.6,78.98c-.42.12-.55-.41-.68-.69-.35-.76-1.64-5.96-1.34-6.29.4-.04.5-.06.69.32.26.5.77,2.81.9,3.5.2,1.05.23,2.11.42,3.16Z"/>
  <path class="cls-1" d="M29.59,196.72c-.36,4.54.04,7.91,1.1,12.31-.45.09-.41-.2-.49-.51-1.06-3.94-1.05-8.02-.98-12.07l.37.27Z"/>
  <path class="cls-1" d="M29.41,218.21c-.96,2.12-1.8,4.29-2.78,6.4-2.81.07-5.66-.81-8.43-.25l-.36.65c-.1-.06-.51.15-.36-.27.25-.69.89-.78,1.56-.83,2.44-.21,5,.33,7.43.47.26-.16,1.87-4.49,2.17-5.19.13-.3.32-1.06.77-.98Z"/>
  <path class="cls-1" d="M89.64,104.88c-5.4.76-8.92-.41-13.22-3.49.06-.34.53.1.65.18,3.62,2.52,7.14,3.62,11.59,3.15.3-.03.8-.15.99.16Z"/>
  <path class="cls-4" d="M147.84,117.74c.29.09,1.07.09,1.25.22.12.09.11.46.27.65.31.34,1.05.41,1.37.66.41.33.37.64,1.13,1.16.25.17.37.97.94.07.26.31,1.37,1.33,1.47,1.56.1.23-.04.35-.27.27-2.13-1.45-4.19-2.97-6.15-4.59Z"/>
  <path class="cls-4" d="M133.34,100.1c.58-.09.34.24.31.59-.06.67-.18,1.17-.13,1.89.04.63.8,2.27-.19,2.48-.1-1.73-.03-3.25,0-4.96Z"/>
  <path class="cls-4" d="M139.58,107.08c.6-.11.49.81.79,1.05.6.48.8-.08.5,1.34-.47-.84-.84-1.46-1.29-2.39Z"/>
  <path class="cls-4" d="M146.56,112.59c.25.38.47.64.73,1.1l-1.83-.83,1.1-.27Z"/>
  <path class="cls-4" d="M133.52,96.8c.01.56.22,1.32.18,2.12-.01.35.19.74-.37.63.02-.89-.17-1.97.18-2.76Z"/>
  <path class="cls-4" d="M144.36,88.53c-.56.1-.35-.28-.37-.63-.03-.83.15-1.5.18-2.12.34.78.18,1.87.18,2.76Z"/>
  <path class="cls-4" d="M143.99,114.06c-.55-.64-.83-.9-1.29-1.65.95-.18,1.39.86,1.29,1.65Z"/>
  <path class="cls-1" d="M169.7,194.7c-.32-.39-.03-1.22.06-1.69.15-.82.25-1.82.68-2.54-.24,1.41-.46,2.82-.73,4.22Z"/>
  <path class="cls-4" d="M146.19,116.27h1.28s0,1.1,0,1.1c-.41-.35-.85-.69-1.29-1.1Z"/>
  <path class="cls-4" d="M115.34,47.94c.49-.11,1.03,1.38.73,1.65-.26-.6-.51-.88-.73-1.65Z"/>
  <path class="cls-4" d="M137.38,103.96c.03.55,0,1.11,0,1.65-.17-.02-.32.1-.37-.12-.09-.37-.14-1.81.37-1.54Z"/>
  <path class="cls-4" d="M144.36,114.43c1.18-.17.85.16,1.1,1.1-.32-.32-.72-.68-1.1-1.1Z"/>
  <path class="cls-4" d="M141.23,110.21h.74c-.32.82.3,1.07.36,1.23.06.15-.03.35,0,.42-.59-.38-.78-1.12-1.1-1.65Z"/>
  <path class="cls-4" d="M118.1,47.2c-.79.01-.62-1.02-.73-1.47.45.36.51,1.02.73,1.47Z"/>
  <path class="cls-4" d="M148.58,115.53c-.32,0-.83-.4-.88-.67-.02-.13.15-.23.15-.25.52.13.56.69.73.92Z"/>
  <path class="cls-4" d="M148.76,200.95c-.79.03-1.6-.05-2.39,0,.74-.43,1.65-.14,2.39,0Z"/>
  <path class="cls-4" d="M143.25,78.8c-.69.16-.35-.84-.37-1.1.34.29.29.72.37,1.1Z"/>
  <path class="cls-4" d="M137.56,108.92c-.78.11-.2-.56-.18-.73.23.22.18.46.18.73Z"/>
  <path class="cls-4" d="M137.38,106.53c0,.24,0,.49,0,.73-.59.17-.55-.93,0-.73Z"/>
  <path class="cls-4" d="M144.17,84.67c-.45-.32-.17-.91-.18-1.1.31.2.18.76.18,1.1Z"/>
  <path class="cls-4" d="M146.38,112.23c-.37.01-.57-.18-.55-.55.02.04.21.04.55.55Z"/>
  <path class="cls-4" d="M114.79,46.65c.39-.14.47.38.55.73-.49.11-.44-.36-.55-.73Z"/>
  <path class="cls-4" d="M143.62,80.63c-.77.08-.19-.5-.18-.55.18.16.17.34.18.55Z"/>
  <path class="cls-4" d="M144.36,89.82c0,.18,0,.37,0,.55-.58.14-.55-.71,0-.55Z"/>
  <path class="cls-4" d="M137.75,110.02c-.75.09-.2-.39-.18-.55.26.09.15.36.18.55Z"/>
  <path class="cls-4" d="M143.8,81.74c-.74.08-.21-.35-.18-.55.25.09.16.36.18.55Z"/>
  <path class="cls-4" d="M117.91,53.27c.49-.09.38.12.37.55-.07-.12-.22-.28-.37-.55Z"/>
  <path class="cls-4" d="M149.86,117.19c-.46.1-.4-.15-.37-.55.2.24.3.47.37.55Z"/>
  <path class="cls-4" d="M151.15,118.66c-.46.1-.4-.15-.37-.55.21.25.31.48.37.55Z"/>
  <path class="cls-4" d="M139.21,106.35c.49-.09.37.12.37.55-.02-.04-.21-.22-.37-.55Z"/>
  <path class="cls-4" d="M138.3,112.23c-.43.06-.51-.06-.18-.37,0,.02.11.14.18.37Z"/>
  <path class="cls-4" d="M137.93,110.76c-.42.07-.52-.08-.18-.37,0,.02.12.1.18.37Z"/>
  <path class="cls-4" d="M119.2,49.22c-.96-.26-.37-.5-.37-.55.19.14.26.35.37.55Z"/>
  <path class="cls-4" d="M152.07,119.57c-.39.04-.41.02-.37-.37.09.1.23.21.37.37Z"/>
  <path class="cls-4" d="M138.48,112.96l-.18-.37s.12.18.18.37Z"/>
  <path class="cls-4" d="M133.34,105.06c.99-.21.23-1.85.19-2.48-.05-.72.07-1.22.13-1.89.03-.35.27-.68-.31-.59,0-.18,0-.37,0-.55.56.1.35-.28.37-.63.03-.8-.17-1.56-.18-2.12,0-.12,0-.24,0-.37.56.1.35-.28.37-.63.02-.46-.01-.93,0-1.39.94-.29,1.83,1.57,1.65,2.27-.04.14-.37.13-.38.22-.02.45.77.99.53,1.79-.21.69-1.28.27-1.26,1.05.55-.03.98.46,1.55.37.24-.04.43-.29.6-.31.47-.05,1.26.09,1.76-.07.25-.08.34-.87,1.32-.74.89.12.49,1.53,1.75,1.11l-.18,1.1,1.09-.36.38,1.28-.73-.18c-.63,1.51.49,1.05.82,1.66.21.38.04,1.11.3,1.53.24.38.66.21.72.42.03.12.36,1.74.36,1.83.01.42-.34.6-.35.89-.05,1.1-.12.62-.2.96-.07.28.07.63.01.87-.05.21-.89.08-.75.66.65.08.96-.05.92-.73h.27c.4.5.58.62,1.2.37-.14.77.27.48.37.55.29.23.14.66.18.73-.02.37.18.56.55.55.09.14.13.28.18.37l-1.1.27,1.83.83c.2.35.4.36.55.92,0,.01-.17.12-.15.25.05.27.56.67.88.67.26.34.63.75.92,1.1-.03.4-.09.65.37.55.22.26.61.56.92.92-.03.4-.1.65.37.55.12.15.36.32.55.55-.04.39-.02.41.37.37.25.29.48.62.73.92-.57.9-.69.1-.94-.07-.76-.52-.72-.83-1.13-1.16-.31-.25-1.05-.31-1.37-.66-.17-.18-.15-.55-.27-.65-.18-.13-.96-.13-1.25-.22-.16-.14-.26-.28-.37-.37v-1.1s-1.29,0-1.29,0c-.27-.25-.48-.48-.73-.73-.25-.94.08-1.27-1.1-1.1-.11-.12-.23-.21-.37-.37.1-.79-.33-1.83-1.29-1.65-.1-.17-.2-.17-.37-.55-.03-.07.05-.27,0-.42-.06-.16-.68-.41-.36-1.23h-.74c-.18-.3-.24-.52-.37-.73.3-1.42.1-.86-.5-1.34-.3-.24-.18-1.16-.79-1.05-.02-.05.02-.13,0-.18,0-.43.12-.64-.37-.55-.09-.19-.12-.4-.18-.55l.19-1.47c.9.28,1.43.37,2.39.18.14-1.24-.49-.76-1.17-.92-.16-.04-.1-.37-.21-.37-.35,0-.44.46-.82.37.06-.4-.25-1.56-.65-1.65-.43-.1-.69,1.69-.82.18-.28-.09-.32.17-.37.18-.08.04-.32-.11-.37.12-.13.54.17,1.08.19,1.54-.51-.28-.46,1.16-.37,1.54.05.21.2.1.37.12,0,.31,0,.61,0,.92-.55-.2-.59.9,0,.73-.01.3.02.62,0,.92-.01.17-.6.84.18.73,0,.18.01.37,0,.55-.01.16-.56.64.18.55.02.12-.02.26,0,.37-.34.28-.23.44.18.37.08.34.1.78.18,1.1-.32.31-.24.43.18.37.03.1-.03.27,0,.37l.18.37c1.45,4.41,3.97,8.8,4.38,13.52.53,6.03-1.44,12.87-5.57,17.34-.46.5-1.07,1.24-1.74,1.38,1.31-2.06,2.08-4.75,2.36-7.19.3-2.58-.03-6.54-.87-9-.08-.24-.05-.56-.39-.62-.24,1.85-.21,3.72-.6,5.55-2.35,11.1-12.8,19.5-11.88,31.46.14,1.84.7,4.02,1.46,5.7-2.39-1.54-4.13-5.2-4.72-7.95-3.29-15.24,10.26-26.2,7.06-41.04-.83-3.86-2.58-7.28-3.04-11.29-.67-5.81.93-11.82,3.56-16.96.11-.21.17-.51.45-.55-1.78,8.24.96,17.2,7.07,22.96-1.45-3.7-2.44-7.21-2.66-11.2Z"/>
  <path class="cls-4" d="M129.02,92.94c.12.06.12.12,0,.18v-.18Z"/>
  <path class="cls-2" d="M83.66,49.15c2.82,4.41,1.44,10.42-.21,15.1-.82,2.31-2.13,4.2-2.79,6.53.07.25,3.92,2.67,4.39,2.79,1.82.47,3.31-1.09,5.11-1.51.59-.14,2.51-.24,2.62-.32.49-.34-.21-1.9,0-2.49,1.55.66,2.9,1.77,1.8,3.55s-5.15,1.76-7.26,2.66c-.67.29-.98.72-1.62.94-2.38-1.24-6.14-1.18-7.7-3.66-1.02-1.63.59-3.24,1.22-4.64,2.34-5.19,4.31-12.41,3.82-18.04-.05-.58.02-1.17,0-1.74.41.11.44.55.63.84Z"/>
  <path class="cls-2" d="M76.41,84.12c-1.01-.33-3.42-.98-2.27-2.36,3.17.23,6.59-.48,9.71-.22.69.06,1.38.44,1.83.47.62.04,1.84-.41,2.58-.46,2.73-.21,5.16.7,7.7.74.73.01,4.69-.54,4.87-.38-.24,1.8-2.54,2.34-4.04,2.75-3.53.98-5.19.01-8.55.17-.99.05-2.16.4-3.11.39-1.38-.01-3.09-.71-4.44-.74-1.98-.04-2.14.33-4.29-.38Z"/>
  <path class="cls-2" d="M111.12,56.2c-1.89.27-3.29-.58-4.59-1.84-.57,4.67-6.95,3.94-6.61-.73-1.25.52-3.95,2.47-5.23,2.41-.29-.02-.46-.04-.64-.29,2.79-3.23,6.98-5.64,11.38-4.4,1.64.46,4.37,2.94,5.42,4.31.14.18.36.23.27.55ZM102.3,53.27c-.44-.37-1.09.35-.92.92.2.21,1.13-.74.92-.92Z"/>
  <path class="cls-2" d="M81.12,47.87c-.17.17-.54.38-.77.42-1.42.23-4.43-1.28-6.1-1.59-2.38-.43-4.54-.37-6.77.65l-3.73,2.6c-.27-.29,1.89-4.04,2.38-4.5,2.91-2.73,10.26-2.62,13.66-.98,1.36.65,2.73,1.98,1.34,3.4Z"/>
  <path class="cls-2" d="M76.78,53.82c-.19,4.72-5.8,4.14-5.7-.37-1.79.78-2.45,2.48-4.69,2.21-1.28-.15-.15-.99.37-1.48,3.12-2.95,5.57-4.62,9.99-2.45.67.33,4.23,2.97,4.24,3.47,0,.37-.7.24-.92.19-1.15-.21-2.2-1.15-3.29-1.57ZM72.74,52.53c-1.15-.08-1.19.53-.92,1.47.54.11.29-.18.41-.41.1-.18.59-.98.5-1.06Z"/>
  <path class="cls-2" d="M93.31,87.8c-2.42,3.47-8.15,3.8-11.62,1.8-.28-.16-2.89-2.01-2.51-2.35.95.19,2,.61,2.93.8,3.7.77,7.52.48,11.21-.25Z"/>
  <path class="cls-2" d="M107.08,51.43c-2.55-1.13-5.28-1.47-7.94-.51-.47.17-3.06,1.62-3.26,1.42,1.55-3.47,6.5-3.7,9.6-2.35.25.11,1.94,1.07,1.6,1.43Z"/>
  <path class="cls-2" d="M78.98,51.98c-1.98-.83-3.86-2.2-6.13-1.81l-3.42.81c1.8-1.83,4.73-2.45,7.1-1.41.91.4,2.4,1.33,2.44,2.42Z"/>
  <path class="cls-2" d="M70.35,82.65c-.27.04-.25-.32-.31-.51-.71-2.49.62-3.88,2.88-4.63.12.12-1.63,2.48-1.81,2.87-.34.71-.52,1.52-.76,2.27Z"/>
  <path class="cls-2" d="M103.59,83.57c-.31.31-.31-.06-.36-.27-.43-1.88-.91-3.09-2.02-4.68,1.43.23,2.81,1.93,2.77,3.4,0,.25-.29,1.47-.38,1.56Z"/>
  <path class="cls-1" d="M96.8,84.67c.09.45-.2.4-.51.49-2.27.72-3.18.15-5.27.05s-4.32.33-6.26.2c-2.14-.14-4.43-.38-6.58-.58-.33-.03-1.86-.18-1.77-.71,2.15.71,2.3.34,4.29.38,1.35.03,3.06.72,4.44.74.95,0,2.12-.34,3.11-.39,3.36-.16,5.02.8,8.55-.17Z"/>
  <path class="cls-3" d="M105.43,59.33c.03.28-.46.31-.66.35-1.86.33-4.43.34-5.95-.9l6.61.55Z"/>
  <path class="cls-2" d="M77.15,58.23c-.08.28-.75.48-1,.56-1.83.58-3.77.42-5.61-.01-.04-.32.42-.17.64-.18,2.01-.08,3.97-.26,5.97-.37Z"/>
  <path class="cls-4" d="M140.13,74.39l-.18-1.47c1.4.33,1.8,1.14.18,1.47Z"/>
  <path class="cls-4" d="M141.78,76.04c.05.25-.08.42-.27.56-.92.69-.98-.72.27-.56Z"/>
  <path class="cls-4" d="M141.05,75.67c-.13.13-.82-.07-.73-.46.15-.68,1.09.1.73.46Z"/>
  <path class="cls-1" d="M102.3,53.27c.21.18-.72,1.13-.92.92-.17-.56.47-1.29.92-.92Z"/>
  <path class="cls-1" d="M72.74,52.53c.09.08-.4.88-.5,1.06-.12.22.13.51-.41.41-.27-.94-.23-1.55.92-1.47Z"/>
</svg>