<?xml version="1.0" encoding="UTF-8"?>
<svg id="Layer_1" data-name="Layer 1" xmlns="http://www.w3.org/2000/svg" viewBox="0 0 188.36 247.75">
  <defs>
    <style>
      .cls-1 {
        fill: #feb66c;
      }

      .cls-2 {
        fill: #fbe7d9;
      }

      .cls-3, .cls-4 {
        stroke: #2f3630;
        stroke-linecap: round;
        stroke-linejoin: round;
        stroke-width: .37px;
      }

      .cls-3, .cls-5 {
        fill: #2f3630;
      }

      .cls-4 {
        fill: #3171a0;
      }

      .cls-6 {
        fill: #ee706c;
      }
    </style>
  </defs>
  <path class="cls-3" d="M188.03,185.48c.22,20.67.19,41.29-.08,61.84,0,.16-.1.24-.28.25h-3.49l-.36-.19c1.13-16.24,2.18-33.91,1.3-51.06-.52-10.13-1.84-23.25-7.7-31.67-4.1-5.89-9.89-8.55-16.32-11.23-.48-.57-.56-.58-.24,0-.8,9-4.68,17.42-9.68,24.83-1.36,9.93-2.67,19.56-2.38,29.61.94,12.4.87,24.91.37,37.4-.02.39-.09.77-.16,1.16s-.17.77-.28,1.15H22.04c-.14-.18-.27-.36-.38-.55s-.21-.38-.26-.58c-1.72-6.21-2.99-13.08-3.21-19.53-.37-10.78,1.86-21.43,4.68-31.77,2.74-8.89,5.14-17.59,7.19-26.11-1.55-2.94-2.49-6.07-2.83-9.39-13.03,4.09-16.53,16.4-18.09,28.64-.61,4.78-1.08,9.65-1.49,14.57-1.02,13.96-2.13,27.92-3.55,41.85-.1.98-.35,1.93-.61,2.87H.18c.3-6.59,1.11-13.17,1.65-19.75.93-11.32,1.55-22.69,2.76-33.98,1.33-12.46,2.82-27,14.34-34.37.05-.34-1.29-2.11-1.58-2.64-9.09-16.93,6.87-33.93,11.57-49.42.84-2.76,1.42-5.61,2.06-8.41,4.04-17.71,6.74-36.04,11.46-53.56,3.73-13.85,11.76-32.78,26.44-37.85,1.1-.38,3.42-.72,4.2-1.12.88-.46,2.8-2.48,4.07-3.28,11.42-7.22,30.84.08,41.79,5.92,19.12,10.21,23.81,27.7,29.86,47.1,5,16.03,10.48,33.19,12.6,49.85.65,5.13.79,10.03,1.95,15.13,1.94,8.56,7.44,16.33,7.99,25.07.11,1.78-.35,5.67.08,7.08.2.65,3.51,2.85,4.33,3.57,8.45,7.47,10.96,17.77,12.3,28.57Z"/>
  <path class="cls-1" d="M184.18,247.57h-35.44c.29-8.88.63-17.83.37-26.73-.18-6.24-.87-12.47-.75-18.74.16-8.07,1.55-15.98,2.48-23.97,5.07-7.56,9.01-16.13,9.74-25.35,5.27,2.37,10.75,4.4,14.78,8.72,6.83,7.31,8.54,17.93,9.54,27.56,1.54,14.78.85,29.65.19,44.46l-.93,14.04Z"/>
  <path class="cls-1" d="M3.49,247.57c.57-7.26,1.4-14.51,2.02-21.77.9-10.52,1.46-21.09,2.57-31.59.94-8.8,2.21-20.75,8.17-27.65,2.95-3.43,6.79-6.13,11.18-7.36.22.04.6,3.16.72,3.72.34,1.52.79,3.05,1.38,4.5.2.49.78,1.19.88,1.53.16.59-.85,3.94-1.08,4.82-5.09,19.09-12.69,38.19-10.39,58.44.59,5.2,1.93,10.28,3.1,15.36H3.49Z"/>
  <path class="cls-1" d="M113.48,55.43c-.87-.34-1.65-.9-2.52-1.24-3.96-1.54-12.37-1.51-16.01.8-1.17.74-1.87,3.23-.12,3.57,3.56-.9,7.31-2.17,11.03-2.04,1.75.06,5.32.57,6.82,1.44.72.42,1.2,1.31,1.8,1.69.48.31.93.22,1.36.66.72.73,1.76,3.51,2.38,4.6,2.35,4.14,5.05,6.18,5.36,11.35.62,10.12-1.32,23.55-7.13,32.01-7.41,10.81-23.82,22-37.41,17.14-4.97-1.78-11.56-8.84-14.96-12.96-5.55-6.74-7.42-15.96-8.6-24.46-1.65-11.84,0-22.61,1.84-34.29,1.44-9.14,3.31-21.84,12.7-26.05,1.61-.72,3.32-.87,4.64-1.42.4-.17.74-.68.93-.72s.74.35,1.26.36c1.76.01,4.28-.68,6.24-.76,4.69-.19,10.34.2,14.37,2.72,9.11,5.7,12.33,18.17,16.02,27.59Z"/>
  <circle class="cls-5" cx="76.14" cy="91.62" r="1.47"/>
  <path class="cls-4" d="M71.43,10.8c-.58,3-.45,5.84.18,8.82-2.99-2.31-6.51-2.2-9.6-.15-.49.33-2.61,1.92-2.51,2.44.22.32.46.3.81.27.82-.07,2.43-.97,3.41-1.19.75-.17,2.32-.45,3.04-.46,1.41-.02,2.76.73,4.39.55.25-.03.47-.32.56-.31.17,0,2.33,2.45,2.29,2.62l-.62.28c-2.87-.92-5.89-1.39-8.79-.32-4.61,1.7-10.92,10.73-12.89,15.2-.32.72-2.3,5.81-2.29,6.16.02.76.8.35,1.19.08,1.43-1.02,3.18-5.38,4.24-7.15,1.3-2.16,5.19-8.28,7.17-9.36.22-.12,1.09-.49.99.07s-2.49,3.5-3.02,4.33c-4.66,7.31-5.56,17.29-9.26,25.46-4.74,10.47-8.35,19.77-8.84,31.56-.29,6.88,1.63,18.47,4.09,24.93.59,1.55,1.51.86,1.43-.69-.21-4.16-1.29-8.37-1.82-12.51-.96-7.51-.99-17.89,1.5-25.09.07-.19.98-2.87,1.41-2.35.06,1.68-.07,3.38,0,5.06.06,1.52.32,3.24.38,4.76.43,10.49-.17,21.29,2.47,31.51,3.51,13.58,9.49,22.51,5.14,37.29-2.87,9.76-7.14,15.17-12.1,23.53-5.48,9.22-8.63,21.2-2.5,30.94.22.55-.68.14-.91-.01-8.88-5.94-4.21-22.35-2.01-30.84,4.15-16.03,12.14-31.48,10.06-48.48-.15-1.22-.43-3.64-.8-4.71-.26-.78-.83-.79-1.57-.73.23,6.29.38,12.54-.6,18.78-1.51,9.54-5.51,18.28-7.24,27.84-.21,1.18-.24,2.39-.48,3.57-.06.28-.43,1.91-.5,1.98-.35.37-.63-1.07-.68-1.25-2.9-11,.47-19.97,1.76-30.46.1-.83.61-4.35-.28-4.64-.25-.08-.54-.07-.71.16-.06.09-.64,1.73-.73,2.02-1.56,4.7-3.03,11.9-3.74,16.83-.38,2.67-.31,5.31-.58,7.96-.37.28-1.51-3.68-1.6-4-3.27-12.76,1.93-22.38,5.18-34.2,1.42-5.17,1.68-9.07,1.75-14.41.03-2.14.15-4.71,0-6.81-.07-.95-.05-2.55-1.29-2.29-.69,5.32-1.05,10.72-2.11,15.98-1.96,9.75-7.01,20.76-7.62,30.4-.07,1.18.24,5.06-.28,5.78-.18.25-3.83,1.22-4.41,1.65-1.48-.89-2.46-2.64-3.11-4.22-5.62-13.74,8.84-31.03,12.67-43.9,3.57-12,5.37-24.18,7.86-36.4,3.13-15.38,6.11-32.72,14.12-46.31,3.93-6.67,9.58-13.59,17.41-15.56Z"/>
  <path class="cls-4" d="M167.83,152.05c-1.69-1.11-7.1-2.74-7.93-4.46-2.34-6.41-4.98-12.06-6.33-18.83-.4-2-1.42-11.02-2.62-11.89-.6.06-.77,1.18-.87,1.7-.88,4.41,1.59,15.4,2.76,20.1,1.6,6.45,4.81,11.26,3.78,18.4-.55,3.84-5.72,15.87-8.43,18.57-.18.18-.23.4-.46.1-.2-5.36-.58-10.75-1.61-16.02-1.24-6.34-3.59-12.43-4.96-18.73-3.21-14.78,3.74-28.04,1.87-43.02-1.66-13.33-11.83-18.25-18.12-28.53-3.49-5.71-7.61-13.17-10.3-19.27-1.05-2.38-1.65-5.32-2.64-7.83-3.91-9.95-11.07-21.33-22.99-21.82-3.36-.14-6.57,1.55-9.65,2.58,1.53-2.73,3.97-4.76,7.05-5.53,9.59-2.4,19.74,7.14,24.8,14.37,4.83,6.89,5.96,14.57,9.26,22.15,1.95,4.49,4.63,9.96,7.23,14.08,4.92,7.79,12,12.68,16.4,21.06.63,1.2,3.01,7.95,3.39,8.19,1.08.69.95-2.5.9-2.93-.53-4.44-8.36-15.87-11.29-19.75-5.16-6.8-8.89-11.24-12.53-19.24-5.6-12.29-6.88-23.71-17.65-33.22-7.58-6.7-19.82-11.45-27.82-2.85-.32.35-1.38,2.17-1.92,1.66-.43-.41.25-2.57.46-3.12,4.4-11.49,18.57-7.14,26.65-2.61s14.43,12.2,19.12,20c5.09,8.46,7.38,17.87,11.69,26.7,4.07,8.33,9.88,15.2,13.27,24.01,3.39,8.82,3.95,19.89,8.28,27.91.53.97,1.88,2.44,2.19,3.14.39.87.59,3.44.87,4.64,1.38,5.79,3.51,10.23,5.69,15.62,1.92,4.76,2.63,9.53,2.48,14.69Z"/>
  <path class="cls-4" d="M123.76,208.44c-.84-.55-1.17-2.28-1.26-3.24-.76-7.6,3.56-14.15,3.47-22.21-.03-2.73-.83-10.6-1.99-12.89-.37-.72-1.55-2.09-2.06-.88.71,3.18,1.36,6.1,1.47,9.37.17,5.18-.42,10.05-2.35,14.91-2.7,6.8-7.92,11.94-6.96,19.94.2,1.68,1.22,3.1,1.6,4.73-.25.24-2.84-1.72-3.21-2.02-12.52-10.34,3.55-23.12,5.55-34.49.19-1.08.72-7.38.39-7.91-.04-.07-.72-.25-.89-.4-.62,5.14-2.62,9.82-5.07,14.31-3.39,6.2-8.42,12.28-7.97,19.78.16,2.73,1.03,4.84,2.21,7.25-.3.3-2.16-1.64-2.38-1.93-6.76-8.67,0-25.21,4.81-33.57,1.84-3.2,4.13-5.85,5.24-9.46,2.49-8.12,2.35-14.82,2.99-23.09.71-9.13,2.9-16.7,6.58-25.02,4.37-9.88,11.36-19.36,11.51-30.55.6.6,1.16,1.38,1.54,2.14,2.37,4.74.9,10.16-.81,14.94-5.05,14.11-16.16,24.84-14.2,41.22,2.13,17.86,14.9,23.91,6.25,43.96-1.18,2.73-4.44,8.94-4.44,11.72v3.4Z"/>
  <path class="cls-4" d="M158.28,112.93c-.97-.98-1.42-2.83-1.78-4.19-2.37-8.97-2.72-17.41-6.45-26.25-2.93-6.95-7.96-12.59-11.51-19.16-3.96-7.32-6.3-15.39-9.85-22.85-6.43-13.5-17.07-26.09-31.75-30.69-8.17-2.56-18.39-2.42-21.39,7.25-.11.37-.02,1.82-.72,1.65-.47-.11-.97-1.99-1.01-2.48-.59-5.9,4.44-10.67,9.88-11.79,12.23-2.51,32.2,5.7,41.62,13.54,10.7,8.9,15.02,23.15,19.06,36.04,3.92,12.5,7.96,25.82,11.06,38.53,1.63,6.67,2.49,13.53,2.84,20.39Z"/>
  <path class="cls-1" d="M70.33,124.13l4.47,3.15c15.71,8.55,32.44-2.7,42.91-14.18l-.36,9.83c-.39,2.81-.17,5.8-.38,8.62s-.63,3.22-2.57,4.96c-5.78,5.22-14.98,9.48-22.71,10.53-5.44.74-16.26.78-18.15-5.85l-3.21-17.08Z"/>
  <path class="cls-4" d="M143.96,175.93c-.39.07-.53-.25-.64-.55-.53-1.36-.84-3.92-1.28-5.51-1.66-5.9-3.82-12.3-6.06-18-.37-.95-2.5-6.06-2.96-6.41-.18-.14-.37-.25-.61-.21-.2,2.31.04,4.24.6,6.47,1.18,4.69,3.45,9.39,4.85,14.06,4.04,13.41,3.67,26.27-7.29,36.14-.15.14-1.35,1.14-1.47,1.01,2.97-7.94,5.73-15.67,5.14-24.33-.71-10.35-7.8-18.99-8.44-29.76-.86-14.42,6.29-22.85,11.29-35.18,1.12-2.77,1.88-5.66,2.94-8.45.16.23.12.73.1,1.02-.5,7.74-2.11,15.42-2.76,23.14-.75,8.92,2.3,16.57,4.35,25.03,1.68,6.93,3.35,14.4,2.26,21.53Z"/>
  <path class="cls-4" d="M49.39,199.26c-.17.21-.96-.67-1.11-.82-9.21-9.61-1.45-20.05,4.52-28.73.77-1.12,1.66-2.44,2.64-3.32-.4,2.13-.95,4.23-1.48,6.32-1.61,6.31-4.79,14.8-4.95,21.13-.05,1.86.33,3.59.37,5.43Z"/>
  <path class="cls-4" d="M54.54,198.71c-.1-.09.92-2.06,1.07-2.33,2-3.53,3.26-5.01,4.67-9.1,4.2-12.13,6.01-24.84,8.08-37.48.03-.17.08-.55.32-.5-.07,3.03.1,6.07,0,9.1-.33,10.71-1.8,24.25-7.07,33.7-1.48,2.65-3.93,6.03-7.07,6.61Z"/>
  <path class="cls-4" d="M113.85,156.83c.78.89-5.31,9.87-6.09,11.26-3.29,5.86-4.62,11.16-6.99,17.25-.27.69-.53,1.63-1.05,2.16,0-3.33.27-6.54,1.19-9.74,1.36-4.76,8.02-17.11,11.76-20.2.16-.13,1.07-.88,1.19-.74Z"/>
  <path class="cls-1" d="M126.34,91.44l1.01-13.22c1.14,1.79,4.81,4.72,4.69,6.88s-3.6,5.71-5.7,6.34Z"/>
  <path class="cls-3" d="M97.14,96.4c1.9.09,4.18.18,5.99.71.85.25,1.6.36.99,1.42-.48.83-3.32,3-4.23,3.57-1.55,1.76-4.31,2.76-6.56,3.47-5,1.6-10.45,1.77-15.41-.07-1.91-.71-4.25-1.7-5.39-3.41-.99-.77-2.88-2.61-3.49-3.67-.22-.45-.16-.95.37-1.1.72-.24,1.45-.41,2.2-.55l1.32-.56c7.89-.96,15.98-.67,23.87-.06l.34.26Z"/>
  <path class="cls-3" d="M80.08,62.25s.66-.15.78-.14c1.4.13,1.67,2.02,1.77,3.16.26,3.14-.14,6.24-1.05,9.23-.67,2.2-2.87,5.8-2.6,7.83s2.93,4.3,5.01,4.13c1.85-.15,2.92-1.78,4.81-1.65,1,.07,3.33,1.32,2.48,2.5s-2.5-.38-3.55-.07c-.4.12-1.2,1.48-1.8,1.88-1.34.9-2.96.78-4.39.19-.78-.32-2.25-1.64-2.71-1.72s-.98.21-1.59.15c-1.23-.12-4.22-1.39-4.33-2.86-.19-2.7,3.69-5.92,5.03-8.17,1.85-3.1,2.71-8.06,2.49-11.65-.03-.49-.54-2.61-.35-2.83Z"/>
  <path class="cls-6" d="M99.89,102.09c-.95,2.95-5.28,7.22-8.26,7.9-.01.57-1.19.71-1.38.18,0,.09.01.17-.01.24-.13.37-7.08.21-7.85.12l-.22-.37c-.08.12-.18.26-.32.28-.28.04-1.89-.13-2.15-.28-.02-.03-.27.05-.34-.03-.09-.1.24-.42-.01-.61-.46-.35-1.64-.68-2.31-1.2-1.82-1.4-3.94-4.01-4.5-6.25,8.18,6.31,18.96,5.3,27.36,0Z"/>
  <path class="cls-3" d="M114.21,67.92c-2.86.98-4.51-2.2-6.98-2.94,1.25,6.66-8.51,6.58-6.8-.18-1.99-.33-3.57,3.34-5.33,2.48-1.91-.94,2.42-3.91,3.24-4.29,5.25-2.51,13.31-.52,15.86,4.94Z"/>
  <path class="cls-3" d="M73.45,64.99c.95,6.57-8.32,6.3-6.8-.18-.56-.5-4.59,2.98-5.5,3.22-1.38.36-2.07-.15-1.26-1.44,3.03-4.86,13.41-6.6,17.3-2.31.45.49,1.32,2.38.67,2.84-.94.67-3.13-2.35-4.42-2.12Z"/>
  <path class="cls-3" d="M57.86,60.74c-.51-.71,1.35-3.84,2-4.49,3.46-3.41,12.56-3.48,16.71-1.46,1.49.73,3.49,3.31,1.03,3.93-3.95-1.2-13.54-2.77-16.74.19-.72.67-1.2,1.97-2.38,2-.12,0-.59-.12-.62-.17Z"/>
  <path class="cls-6" d="M71.61,96.76c1.1-1.11,3.24-1.76,4.77-2.11,3.73-.85,14.48-.86,18.1.27.55.17,1.73.63,2.21.9.31.18.35.22.45.58-7.23-.34-18.61-.92-25.52.37Z"/>
  <path class="cls-3" d="M98.54,84.85c.48-.09,1.25.95,1.63,1.25,2.98,2.38,7.77,5.18,8.77,9.04.28,1.09.5,4.01-.54,4.72-1.43.98-1.12-2.82-1.22-3.51-.5-3.75-4.76-6.13-7.3-8.49-.4-.37-2.98-2.7-1.35-3.01Z"/>
  <path class="cls-3" d="M66.29,100.07s-.49.02-.61-.03c-.79-.31-1.11-3.8-1.02-4.64.19-1.68,1.51-3.67,2.64-4.89.6-.64,2.48-2.48,3.12-2.94,1.21-.86,1.98-.36,1.08,1.08-1.38,2.23-5.31,5.36-5.4,8.04-.01.37.18.62.18.7,0,.39.1,2.57,0,2.66Z"/>
  <path class="cls-3" d="M113.66,64.99c-.45.4-3.04-1.66-3.62-1.98-3.07-1.74-7.29-3.1-10.7-1.78-.36.14-2.82,1.67-2.57.55.12-.54,2.51-1.85,3.12-2.02,3.57-1.04,10.83,1.34,13.32,4.13.27.3.43.71.45,1.11Z"/>
  <path class="cls-5" d="M91.63,109.99c.9.21.67.82.06,1.26-1.38,1-7.94.95-9.65.53-1.35-.34-1.58-.59-2.35-1.6.51-.26,1.2-.23,1.76-.2.31.02.65.2.72.2h8.08c.07,0,1.27-.16,1.38-.18Z"/>
  <path class="cls-3" d="M76.75,61.68c-1.43.34-1.42-.65-2.21-1.18-1.61-1.08-5.83-.21-7.61.45-1.58.58-3.03,1.8-4.68,2.02-.6-.57,2.78-2.46,3.14-2.64,2.92-1.42,10.39-3.04,11.36,1.35Z"/>
  <path class="cls-3" d="M92.41,87.16c-.65-.65,1.25-2.23,1.41-3.18.12-.75.05-1.5-.55-2-.32-.27-.84-.2-.92-.75-.22-1.4.92-1.34,1.83-.72,1.55,1.06,2.12,3.14,1.15,4.8-.36.61-2.28,2.49-2.93,1.84Z"/>
  <path class="cls-3" d="M66.31,71.21c-.04-.07-.03-.51-.02-.53.11-.11,2.53.36,3.02.37,1.49.05,2.3-.4,3.54-.52.32-.03.38-.06.59.23-1.45,1.36-3.53,1.31-5.36.96-.27-.05-1.73-.44-1.78-.51Z"/>
  <path class="cls-3" d="M106.13,70.5c-.04.73-1.35,1.19-1.94,1.27-.74.1-4.66-.06-5.03-.54-.61-.78,1.58-.36,1.74-.36,1.79.06,3.5.02,5.24-.37Z"/>
  <path class="cls-2" d="M76.57,101.36c-.18-.38.42-2.18.61-2.26.3-.13,2.34-.03,2.66.18.91.61.85,2.57.59,3.52l.36.06c.08-1.25.21-2.56.99-3.6l-.06-.46c.73-.17,1.8-.16,2.57,0,.6,1.38,1.21,2.91,1.05,4.59h.23c-.4-1.27-.06-3.8,1.29-4.38,2.12-.92,2.74,1.25,2.79,2.92.08,2.15.32.72.36-.57.08-.65.29-1.96.86-2.32.37-.23,2.16-.22,1.86.49l.37.22.41,1.91c.38-2.3,2.88-3.24,2.9-.48-4.41,2.22-7.74,3.09-12.77,2.76-1.76-.11-6.2-.9-7.06-2.58Z"/>
  <path class="cls-1" d="M76.76,98.6c1.02.26,2.73.37,3.31,0,4.42-.04,8.82.02,13.22.18.51.31-.07.88-.55.73-2.83-1.96-2.27,3.54-2.58,3.85-.07.07-.7-.03-.91,0,.21-.85-.09-4.05-1.01-4.22-2.3-.44-2.94,2.98-2.11,4.59h-1.28c.37-1.24-.05-3.19-.74-4.28-.1-.15-.35-.12-.36-.13-.38-.51.65-.22.55-.55h-2.57l.73.27c-1.13,1.02-1.24,2.69-1.28,4.13-1.72.16-.9-.78-.91-1.74-.02-1.75-.95-2.71-2.73-2.28l-.95,2.17c-.06-.12-.15-.13-.18-.37-.43-.28-.52-.85-.27-1.7-.73.06-1.19-.11-1.38-.51.51-.28,1.43-.17,2.02-.18Z"/>
  <path class="cls-1" d="M96.4,101.17c-.53-.19-.28-.83-.62-1.12-.42-.35-1-.21-1.3.21-.5.72-.4,1.95-1.39,2.01.23-.76-.45-2.17-.37-2.76.03-.21.47-.49.55-.73,1.18.04,2.43-.09,3.59,0,.33.02,1.76.19,1.93.28.28.15.1.24.03.41-.26.61-1.79,1.39-2.42,1.71Z"/>
  <path class="cls-1" d="M74.74,98.78l1.84.18c-.09.66-.29,1.34-.18,2.02-.9-.05-2.99-1.48-1.65-2.2Z"/>
  <path class="cls-1" d="M80.06,98.6c.1.55-.28.36-.63.37-.73.02-2.22.24-2.67-.37,1.1-.03,2.21,0,3.31,0Z"/>
</svg>