<?xml version="1.0" encoding="UTF-8"?>
<svg id="Layer_1" data-name="Layer 1" xmlns="http://www.w3.org/2000/svg" viewBox="0 0 940.37 481.45">
  <defs>
    <style>
      .cls-1, .cls-2, .cls-3 {
        fill: none;
      }

      .cls-4, .cls-5, .cls-6, .cls-7, .cls-8, .cls-9, .cls-10, .cls-11, .cls-12, .cls-13, .cls-14, .cls-15, .cls-2, .cls-3, .cls-16 {
        stroke: #2f3630;
        stroke-linecap: round;
        stroke-linejoin: round;
      }

      .cls-4, .cls-8, .cls-9, .cls-10, .cls-11, .cls-12, .cls-13, .cls-14, .cls-15, .cls-2, .cls-3 {
        stroke-width: 2px;
      }

      .cls-4, .cls-13 {
        fill: #d9514a;
      }

      .cls-5 {
        stroke-width: .79px;
      }

      .cls-5, .cls-6, .cls-7, .cls-8 {
        fill: #fbe7d9;
      }

      .cls-6 {
        stroke-width: .5px;
      }

      .cls-7 {
        stroke-width: .62px;
      }

      .cls-17 {
        letter-spacing: .03em;
      }

      .cls-17, .cls-10, .cls-11, .cls-13, .cls-18, .cls-19 {
        font-family: FlowersKingdom, 'Flowers Kingdom';
      }

      .cls-17, .cls-11 {
        font-size: 20px;
      }

      .cls-17, .cls-18, .cls-19 {
        fill: #2f3630;
      }

      .cls-9 {
        fill: #3171a0;
      }

      .cls-10 {
        fill: #e69a3b;
      }

      .cls-10, .cls-13 {
        font-size: 30px;
      }

      .cls-11, .cls-14, .cls-16 {
        fill: #e786a7;
      }

      .cls-12 {
        fill: #f4bb41;
      }

      .cls-15 {
        fill: #4c9153;
      }

      .cls-20 {
        letter-spacing: -.23em;
      }

      .cls-3 {
        stroke-dasharray: 6.17 10.29;
      }

      .cls-21 {
        letter-spacing: -.49em;
      }

      .cls-22 {
        letter-spacing: -.09em;
      }

      .cls-23 {
        letter-spacing: -.12em;
      }

      .cls-16 {
        stroke-width: 3.04px;
      }

      .cls-24 {
        fill: #f5bc41;
      }

      .cls-25 {
        letter-spacing: -.03em;
      }

      .cls-18 {
        font-size: 34px;
      }

      .cls-19 {
        font-size: 21px;
      }

      .cls-26 {
        letter-spacing: .08em;
      }

      .cls-27 {
        letter-spacing: .01em;
      }

      .cls-28 {
        letter-spacing: 0em;
      }
    </style>
  </defs>
  <path class="cls-24" d="M91.31,148.37c-3.45-15.98,3.88-31.77,17.09-39.82-4.05-.5-8.24-.35-12.45.56-20.19,4.36-33.02,24.25-28.67,44.44s24.25,33.02,44.44,28.67c4.21-.91,8.09-2.5,11.57-4.62-15.36-1.89-28.55-13.25-31.99-29.23Z"/>
  <g>
    <path class="cls-9" d="M856.81,153.89v-22.3h-461.21s0,.02,0,.03c0,12.39-10.04,22.44-22.43,22.44s-22.44-10.04-22.44-22.44c0,0,0-.02,0-.03h-179.38v22.52c6.32,1.09,11.13,6.59,11.13,13.23s-4.81,12.13-11.13,13.23v18.55c6.32,1.1,11.13,6.59,11.13,13.23s-4.81,12.13-11.13,13.23v18.55c6.32,1.09,11.13,6.59,11.13,13.23s-4.81,12.13-11.13,13.23v18.55c6.32,1.1,11.13,6.59,11.13,13.23s-4.81,12.13-11.13,13.23v18.55c6.32,1.09,11.13,6.59,11.13,13.23s-4.81,12.13-11.13,13.23v18.55c6.32,1.1,11.13,6.59,11.13,13.23s-4.81,12.13-11.13,13.23v22.52h179.39c0-.09,0-.17,0-.26,0-12.39,10.04-22.43,22.44-22.43s22.43,10.04,22.43,22.43c0,.09,0,.17,0,.26h461.21v-22.3c-7.42,0-13.44-6.02-13.44-13.44s6.02-13.44,13.44-13.44v-18.12c-7.42,0-13.44-6.02-13.44-13.44s6.02-13.44,13.44-13.44v-18.12c-7.42,0-13.44-6.02-13.44-13.44s6.02-13.44,13.44-13.44v-18.12c-7.42,0-13.44-6.02-13.44-13.44s6.02-13.44,13.44-13.44v-18.12c-7.42,0-13.44-6.02-13.44-13.44s6.02-13.44,13.44-13.44v-18.12c-7.42,0-13.44-6.02-13.44-13.44s6.02-13.44,13.44-13.44Z"/>
    <rect class="cls-15" x="409.63" y="158.68" width="369.68" height="239.08"/>
    <rect class="cls-4" x="779.32" y="158.68" width="37.73" height="239.08" transform="translate(1596.36 556.44) rotate(180)"/>
    <g>
      <ellipse class="cls-8" cx="409.61" cy="390.6" rx="23.36" ry="4.21"/>
      <path class="cls-8" d="M542.62,406.77c-.3,2.23-9.68,2.8-20.95,1.28s-20.16-4.56-19.86-6.78,16.55-2.73,22.1-2.13c8.71.93,19.02,5.4,18.72,7.63Z"/>
      <path class="cls-8" d="M538.72,381.63c-3.03,3.03-14.8-3.82-26.28-15.3-11.48-11.48-18.33-23.25-15.3-26.28,3.03-3.03,17.73,2.11,29.21,13.59,11.48,11.48,15.4,24.96,12.37,27.99Z"/>
      <ellipse class="cls-8" cx="449.47" cy="363.21" rx="28.2" ry="8.46"/>
      <ellipse class="cls-12" cx="409.47" cy="390.96" rx="16.16" ry="2.35"/>
      <path class="cls-4" d="M386.53,389.09s5.21-32.2,24.19-33.38c18.98-1.18,20.97,27.08,22.02,33.35,0,0-22.55-6.65-46.21.03Z"/>
      <path class="cls-4" d="M501.51,400.76c-3.39-3.86,2.07-26.91,24.43-26.14,19.64.67,20.03,32.05,17.18,31.1-1.82-.61-15.59-11.09-41.6-4.96Z"/>
      <path class="cls-12" d="M537.47,405.72c-.13,1.19-6.21,1.05-15.44.08-9.23-.97-16.61-2.73-16.49-3.92.13-1.19,7.71-1.37,16.94-.4,9.23.97,15.11,3.05,14.99,4.24Z"/>
      <path class="cls-4" d="M497.17,339.39s-4.62-2.05,17.51-7.98c25.99-6.96,32.05-2.32,33.53,14.55s-.41,34.45-8.44,34.8c-1.94.08-5.91-34.13-42.6-41.36Z"/>
      <path class="cls-12" d="M533.86,377.28c-1.95,1.95-8.89-2.69-18.95-12.75-10.06-10.06-16.63-19.79-14.68-21.75,0,0,12.13,4.2,21.75,14.68,9.09,9.91,11.88,19.82,11.88,19.82Z"/>
      <path class="cls-4" d="M421.03,363.91s-4.66-5.38,5.26-17.8c9.92-12.43,13.38-16.96,20.31-16.97,8.6,0,24.13,7.77,29.51,20.07s2.15,14.7,2.15,14.7c0,0,.12-10.99-32.79-8.96-24.57,1.52-24.44,8.96-24.44,8.96Z"/>
      <ellipse class="cls-12" cx="449.79" cy="363.34" rx="22.46" ry="5.7"/>
      <path class="cls-12" d="M391.4,377.03l2.36-.25c-.08.7-.81,1.18-.91,1.88-.11.76.61,1.44,1.37,1.54s1.51-.25,2.16-.66c1.93-1.21,3.6-3.13,5.87-3.29.52-.04,1.08.02,1.55-.22s.76-.93.37-1.29c-.14-.13-.33-.18-.52-.23-1.54-.4-3.08-.8-4.62-1.19.62-1.83,1.53-3.56,2.68-5.11-1.38-.36-2.75-.72-4.13-1.08-.53-.14-1.09-.28-1.61-.12-.48.15-.89.53-1.39.53-.28,2.51-1.52,4.9-3.41,6.58"/>
      <path class="cls-12" d="M421.2,361.55c-2.2-.14-4.42.08-6.55.62.82.36,1.78.96,1.67,1.85-.05.42-.34.77-.62,1.09-.67.76-1.34,1.53-2.01,2.29,1.14.25,2.19.88,2.95,1.77.35.41.65.87,1.09,1.17.6.41,1.37.47,2.09.51,2.03.11,4.4,0,5.62-1.62.83-1.11.85-2.66.41-3.97s-1.3-2.43-2.15-3.53"/>
      <path class="cls-12" d="M425.14,357.23v-2.59c0-.15,0-.32.08-.44.09-.13.26-.18.42-.19.64-.03,1.14.54,1.74.78.86.34,1.87-.06,2.51-.73s.98-1.56,1.31-2.42c.81.94,2.13,1.42,3.35,1.22s2.33-1.06,2.8-2.21c.2.69.85,1.23,1.56,1.28s1.44-.37,1.74-1.02c.12-.27.21-.6.49-.71.4-.16.76.3.95.68.46.92.93,1.84,1.39,2.76.08.17.17.36.1.54-.08.18-.3.25-.49.3-5.99,1.45-12.05,2.66-18.14,3.62"/>
      <path class="cls-12" d="M429.72,344.91c.31-.43.95-.46,1.44-.28s.9.53,1.37.76c.51.25,1.07.36,1.62.44,2.83.44,5.73.36,8.53-.22.83-.17,1.78-.5,2.05-1.31.23-.67-.15-1.44-.73-1.85s-1.33-.51-2.04-.51c-.93,0-2.15-.05-2.39-.94-.19-.72.48-1.36,1.05-1.84s1.19-1.22.86-1.89c-.24-.48-.83-.64-1.36-.74-1.5-.3-3.07-.59-4.55-.2-.73.19-1.41.54-2.14.72s-1.58.15-2.14-.35c-.07-.06-.15-.13-.23-.12-.07.01-.12.07-.16.12-1.42,1.77-2.14,4.09-1.97,6.35"/>
      <path class="cls-12" d="M468.52,343.34c-1.3.49-2.74.16-4.12.1s-3.01.32-3.56,1.6c-.11.27-.18.56-.35.79-.65.87-2.06.16-3.11.46-.2,1.11,1.08,1.89,2.18,2.14,1.8.41,3.68.34,5.52.12.28-.03.58-.07.84.04.29.12.49.4.68.65.76,1,2.04,1.85,3.23,1.42.79-.29,1.31-1.07,2.08-1.43.65-.3,1.41-.26,2.11-.45s1.41-.76,1.3-1.47c-.04-.25-.17-.47-.31-.68-1.22-1.85-2.99-3.33-5.02-4.2"/>
      <path class="cls-12" d="M451.62,354.19c.06-.61.31-1.4.93-1.38.32,0,.57.24.83.43.77.54,1.8.64,2.71.39s1.72-.8,2.39-1.46c.14-.14.31-.3.51-.28.19.02.32.19.42.35.72,1.1,1.33,2.37,1.22,3.69,0,.12-.03.25-.1.34-.09.11-.24.15-.38.18-3.82.81-7.84.63-11.58-.52"/>
      <path class="cls-12" d="M449.94,335.25c.38-.56,1.13-.74,1.81-.74s1.37.13,2.03-.02c.51-.11.97-.38,1.47-.52s1.11-.12,1.46.26c.16.17.26.4.33.63.31.88.44,2.01-.26,2.64-.9.81-2.61.24-3.35,1.21-.32.41-.43,1.07-.94,1.18-.48.1-.86-.4-1.06-.85-.48-1.08-.73-2.26-.72-3.45"/>
      <path class="cls-12" d="M516.99,334.5c2.98,1.86,5.7,4.14,8.06,6.74.28-1.59-.03-3.27-.85-4.65.21-.3.66-.26,1-.12s.68.34,1.04.26c.3-.07.53-.32.81-.45.78-.34,1.92.33,2.44-.35.6-.8-.81-1.77-.69-2.76.03-.25.16-.48.18-.74.05-.62-.55-1.07-1.08-1.4-.82-.51-1.65-1.02-2.47-1.52-.27-.17-.55-.34-.87-.37-.57-.06-1.08.35-1.54.69-2.17,1.61-4.98,2.33-7.66,1.97"/>
      <path class="cls-12" d="M546.63,349.4c-2.04-.53-3.97-1.42-5.7-2.63-.74-.52-1.49-1.15-1.75-2.02.81-.05,1.61-.09,2.42-.14.18-.01.4-.04.47-.21.08-.18-.06-.38-.2-.53-.81-.87-1.63-1.73-2.44-2.6-.13-.14-.28-.3-.31-.49-.03-.17.04-.34.1-.5.12-.31.24-.61.36-.92.1-.25.21-.51.43-.66.18-.12.41-.14.63-.13.62.03,1.2.29,1.76.54.9.4,1.79.8,2.69,1.2.25.11.51.23.71.42.22.22.34.51.46.8.28.68.55,1.36.83,2.04.52,1.27,1.05,2.61.9,3.98"/>
      <path class="cls-12" d="M546.84,368.54c-1.13-.99-2.15-2.11-3.03-3.32-.05-.07-.11-.15-.13-.24-.05-.26.22-.47.48-.51s.53-.01.77-.12c.45-.2.55-.79.62-1.28s.27-1.08.77-1.15c.3-.04.59.14.82.34,1.94,1.66,2.26,4.54,1.98,7.08"/>
      <path class="cls-12" d="M498.38,337.99c1.02-.66,2.17-1.12,3.37-1.34.58.49.1,1.6.65,2.11.34.31.87.23,1.32.11,1.17-.3,2.32-.64,3.47-1.02.26.31.38.72.33,1.12.73-.2,1.47-.4,2.2-.61l-1,3.45c.6.46,1.48-.06,2.21.12.96.25,1.48,1.67,2.46,1.51.32-.05.63-.27.94-.18.56.18.35,1,.37,1.59.01.46.24.89.52,1.26,1.24,1.6,3.5,2.12,5.49,1.79s3.8-1.34,5.56-2.34c.23,1.84-2.74,3.24-1.96,4.92.3.65,1.05.93,1.62,1.36s.97,1.35.42,1.81c.8.07,1.6.14,2.4.21-.35.76-.71,1.51-1.06,2.27-.09.2-.21.42-.42.47-.19.05-.37-.05-.54-.14-1.94-1.13-3.59-2.67-5.3-4.12-6.82-5.78-14.81-10.19-23.34-12.89"/>
      <path class="cls-12" d="M508.61,385.38l6.35.02c.21,0,.43,0,.6-.12.19-.13.26-.37.33-.59.17-.61.35-1.22.52-1.83-.54.28-1.26-.16-1.37-.76s.26-1.21.78-1.52c.34-.2.75-.31,1.06-.55s.5-.74.24-1.04c-.13-.16-.35-.22-.55-.27-1.99-.48-4.12-.59-6.04.09s-3.61,2.25-4.07,4.24"/>
      <path class="cls-12" d="M501.36,398.31c.37-1.07,1.76-1.66,2.79-1.17.76.36,1.41,1.2,2.22,1,1.15-.29,1.46-2.47,2.59-2.1.24.08.42.27.64.37.35.17.77.12,1.15.17,1.17.16,2.04,1.47,1.74,2.61-4.26,1.68-8.97,2.22-13.5,1.55"/>
      <path class="cls-12" d="M541.87,397.23c-1.77-.17-3.53-.34-5.3-.5-.39-.04-.82-.09-1.1-.36-.27-.26-.35-.65-.57-.95-.69-.93-2.34-.58-3.05-1.5-.36-.47-.35-1.16-.72-1.63-.24-.31-.61-.49-.93-.72-.76-.56-1.24-1.53-1.12-2.47s.89-1.79,1.83-1.9c.38-.05.76.02,1.13-.09.34-.1.63-.34.93-.52,1.24-.74,2.8-.52,4.21-.23,1.22.25,2.55.61,3.28,1.62.76,1.05.66,2.52,1.29,3.65.44.78,1.19,1.33,1.79,2s1.08,1.59.79,2.44"/>
      <path class="cls-8" d="M407.34,390.34s3.48-1.33,9.47-.38c0,0-.74,19.3,22.8,27.23,20.05,6.75,28.2,10.28,33.73,16.82,2.43,2.87-52.4,21.98-65.99-43.66Z"/>
      <text/>
      <path class="cls-8" d="M478.18,438.78s-16.74.12-4.77-23.35c12.4-24.31,17.99-45,46.73-59.76l4.65,5.17s-24.39,15.09-34.55,42.87c-10.16,27.78,7.94,26.41,5.26,30.87-3.27,5.44-17.32,4.2-17.32,4.2Z"/>
      <path class="cls-8" d="M445.02,357.86s-11.18,59.08,9.34,77.41c4.59,4.1,11.22,5.24,16.72,2.5,2.76-1.38,4.89-3.62,3.7-7.27-2.71-8.33-22.1-18.9-22.74-43.09-.47-17.58.89-22.89,1.51-29.55s-8.11-2.46-8.53,0Z"/>
      <g>
        <path class="cls-1" d="M425.63,394.31c.28.47.56.95.84,1.42.01,0,.03,0,.04,0,.29-.51.55-1.03.82-1.55-.57.04-1.13.08-1.71.14Z"/>
        <path class="cls-12" d="M400.93,384c-.43.21-.87.42-1.3.63-.29-.29-.58-.58-.87-.87-.97.84-2.08,1.69-3.37,1.71-1.3.01-2.48-.85-3.78-.95-1.3-.1-2.76,1.48-1.81,2.37l-.23,1.35c4.3-1.09,8.55-1.76,12.61-2.12l-1.26-2.12Z"/>
        <path class="cls-12" d="M427.79,384.55c-1.17.08-2.27-.5-3.31-1.05-.66-.35-1.31-.71-1.97-1.06-.11,1.01-1.07,1.86-2.09,1.85-1.02-.02-1.95-.9-2.02-1.92-2.24,1.27-5.34,1.79-7.2,0-1.66-1.6-1.67-4.47-3.47-5.92-.95,3.3-2.25,6.49-3.84,9.53,12.71-.89,23.37,1.12,27.82,2.16-.59-1.95-1.18-3.9-1.77-5.84.21,1.15-.98,2.18-2.15,2.25Z"/>
      </g>
    </g>
    <rect class="cls-4" x="205.15" y="169.69" width="135.91" height="92.27"/>
    <rect class="cls-12" x="205.15" y="261.21" width="135.91" height="58.93"/>
    <rect class="cls-16" x="205.15" y="320.14" width="135.91" height="55.39"/>
    <g>
      <line class="cls-2" x1="373.16" y1="156.4" x2="373.16" y2="159.4"/>
      <line class="cls-3" x1="373.16" y1="169.68" x2="373.16" y2="394.98"/>
      <line class="cls-2" x1="373.16" y1="400.13" x2="373.16" y2="403.13"/>
    </g>
    <text class="cls-13" transform="translate(429.27 235.4)"><tspan class="cls-20" x="0" y="0">T</tspan><tspan class="cls-27" x="17.54" y="0">ODOS </tspan><tspan class="cls-21" x="112.95" y="0">L</tspan><tspan class="cls-28" x="124.81" y="0">OS HONGOS</tspan></text>
    <text class="cls-10" transform="translate(429.87 308.45)"><tspan class="cls-25" x="0" y="0">S</tspan><tspan class="cls-27" x="21.69" y="0">ON MÁGICOS</tspan></text>
    <text class="cls-18" transform="translate(218.86 248.61)"><tspan x="0" y="0">21/9</tspan></text>
    <text class="cls-19" transform="translate(217.38 309.72)"><tspan class="cls-26" x="0" y="0">QU</tspan><tspan class="cls-22" x="30.64" y="0">E</tspan><tspan class="cls-23" x="43.93" y="0">T</tspan><tspan class="cls-26" x="58.5" y="0">REN</tspan></text>
    <text class="cls-17" transform="translate(222.91 367.75)"><tspan x="0" y="0">$25.000</tspan></text>
    <text class="cls-11" transform="translate(790.24 212.33)"><tspan x="0" y="0">2</tspan><tspan x=".86" y="57">0</tspan><tspan x="0" y="114">2</tspan><tspan x="-.08" y="171">5</tspan></text>
  </g>
  <g id="estrellas">
    <polygon class="cls-6" points="927.41 218.97 936.49 222.33 927.41 225.69 924.05 234.77 920.69 225.69 911.61 222.33 920.69 218.97 924.05 209.89 927.41 218.97"/>
    <polygon class="cls-5" points="206.28 15.12 220.69 20.45 206.28 25.79 200.94 40.2 195.61 25.79 181.2 20.45 195.61 15.12 200.94 .71 206.28 15.12"/>
    <polygon class="cls-7" points="284.52 60.92 295.78 65.09 284.52 69.26 280.35 80.52 276.18 69.26 264.91 65.09 276.18 60.92 280.35 49.65 284.52 60.92"/>
    <polygon class="cls-7" points="853.7 79.61 864.97 83.77 853.7 87.94 849.53 99.21 845.36 87.94 834.1 83.77 845.36 79.61 849.53 68.34 853.7 79.61"/>
    <polygon class="cls-6" points="694.93 61.73 704.01 65.09 694.93 68.45 691.57 77.53 688.21 68.45 679.12 65.09 688.21 61.73 691.57 52.65 694.93 61.73"/>
    <g id="estrellas4">
      <circle class="cls-7" cx="70.76" cy="65.38" r="3.18"/>
      <circle class="cls-7" cx="39.62" cy="47.22" r="3.18"/>
      <circle class="cls-7" cx="70.96" cy="43.02" r="3.18"/>
      <circle class="cls-7" cx="3.49" cy="87.16" r="3.18"/>
      <circle class="cls-7" cx="27.8" cy="68.58" r="3.18"/>
      <circle class="cls-7" cx="25.85" cy="87.35" r="3.18"/>
    </g>
    <g id="estrellas3">
      <circle class="cls-7" cx="598.02" cy="98.77" r="3.18"/>
      <circle class="cls-7" cx="578.02" cy="68.77" r="3.18"/>
      <circle class="cls-7" cx="608.02" cy="78.77" r="3.18"/>
      <circle class="cls-7" cx="528.02" cy="88.77" r="3.18"/>
      <circle class="cls-7" cx="558.02" cy="82.77" r="3.18"/>
      <circle class="cls-7" cx="548.02" cy="98.77" r="3.18"/>
    </g>
    <g id="estrellas2">
      <circle class="cls-7" cx="85.54" cy="227.73" r="3.18"/>
      <circle class="cls-7" cx="59.89" cy="253.07" r="3.18"/>
      <circle class="cls-7" cx="64" cy="221.72" r="3.18"/>
      <circle class="cls-7" cx="89.02" cy="298.36" r="3.18"/>
      <circle class="cls-7" cx="77.43" cy="270.04" r="3.18"/>
      <circle class="cls-7" cx="95.04" cy="276.82" r="3.18"/>
    </g>
    <g id="estrellas1">
      <circle class="cls-7" cx="883.87" cy="3.49" r="3.18"/>
      <circle class="cls-7" cx="884.11" cy="39.55" r="3.18"/>
      <circle class="cls-7" cx="864.53" cy="14.71" r="3.18"/>
      <circle class="cls-7" cx="936.87" cy="50.3" r="3.18"/>
      <circle class="cls-7" cx="908.51" cy="38.83" r="3.18"/>
      <circle class="cls-7" cx="925.65" cy="30.95" r="3.18"/>
    </g>
    <circle class="cls-7" cx="115.48" cy="33.78" r="3.18"/>
  </g>
  <g>
    <path class="cls-8" d="M696,361.66s-20.12-30.77-4.9-34.35c15.63-3.68,13.3,29.42,11.51,34.35s-6.61,0-6.61,0Z"/>
    <path class="cls-8" d="M702.07,359.99s13.08-34.36,24.92-24.15c12.16,10.49-15.99,28.05-21.04,29.49s-3.88-5.35-3.88-5.35Z"/>
    <path class="cls-8" d="M706.35,365.41s34.39-13,34.6,2.63c.22,16.05-31.6,6.64-36.02,3.82-4.42-2.82,1.43-6.45,1.43-6.45Z"/>
    <path class="cls-8" d="M705.21,373.95s14.8,33.65-.8,34.69c-16.02,1.07-8.3-31.21-5.72-35.77,2.58-4.56,6.52,1.08,6.52,1.08Z"/>
    <path class="cls-8" d="M696.86,371.75s-18.54,31.75-28.54,19.73,20.38-25.05,25.59-25.64c5.21-.59,2.95,5.91,2.95,5.91Z"/>
    <path class="cls-8" d="M691.09,366.59s-36.41-5.05-29.12-18.87c7.49-14.2,30.92,9.3,33.46,13.89,2.53,4.59-4.34,4.98-4.34,4.98Z"/>
    <circle class="cls-12" cx="700.8" cy="366.59" r="9.71"/>
  </g>
  <g id="flor2">
    <path class="cls-14" d="M595.47,433.82s-10.59-26.54,1.56-26.92c12.47-.4,5.6,24.46,3.48,27.94s-5.03-1.02-5.03-1.02Z"/>
    <path class="cls-14" d="M600.36,433.48s15.25-24.16,22.7-14.56c7.65,9.86-16.5,18.91-20.57,19.23-4.06.32-2.13-4.67-2.13-4.67Z"/>
    <path class="cls-14" d="M602.78,438.28s28.2-4.61,25.95,7.33-25.1.19-28.03-2.64c-2.93-2.83,2.08-4.69,2.08-4.69Z"/>
    <path class="cls-14" d="M600.6,444.6s6.09,27.91-5.95,26.3c-12.37-1.66-1.52-25.05,1.15-28.13,2.67-3.08,4.8,1.83,4.8,1.83Z"/>
    <path class="cls-14" d="M594.58,441.65s-19.01,21.33-24.78,10.64c-5.93-10.98,19.38-15.94,23.44-15.59s1.34,4.96,1.34,4.96Z"/>
    <path class="cls-14" d="M590.98,436.82s-26.96-9.45-19.27-18.86c7.9-9.66,22.12,11.85,23.35,15.73s-4.07,3.13-4.07,3.13Z"/>
    <circle class="cls-12" cx="598.38" cy="438.32" r="7.55"/>
  </g>
  <g id="flor1">
    <path class="cls-14" d="M158.71,429.97s-50.68,23.58-52.76-.1c-2.13-24.32,47.17-13.62,54.2-9.84s-1.44,9.94-1.44,9.94Z"/>
    <path class="cls-14" d="M157.51,420.46s-48.86-27.16-30.92-42.75c18.42-16.01,38.74,30.17,39.81,38.07,1.07,7.9-8.89,4.68-8.89,4.68Z"/>
    <path class="cls-14" d="M166.61,415.2s-12.08-54.58,11.48-51.49c24.21,3.17,3.11,49-2.09,55.04-5.2,6.04-9.4-3.55-9.4-3.55Z"/>
    <path class="cls-14" d="M179.2,418.78s53.86-14.95,52.03,8.75c-1.88,24.34-48.77,5.7-55.08.82-6.31-4.88,3.05-9.57,3.05-9.57Z"/>
    <path class="cls-14" d="M174.09,430.86s43.74,34.8,23.49,47.24c-20.8,12.78-33.26-36.12-33.02-44.08.24-7.97,9.53-3.16,9.53-3.16Z"/>
    <path class="cls-14" d="M165.05,438.42s-15.52,53.7-34.73,39.71c-19.74-14.37,20.72-44.51,28.18-47.33,7.46-2.81,6.55,7.61,6.55,7.61Z"/>
    <circle class="cls-12" cx="167.17" cy="423.8" r="14.76"/>
  </g>
</svg>