<?xml version="1.0" encoding="UTF-8"?>
<svg id="ticket-all" xmlns="http://www.w3.org/2000/svg" viewBox="0 0 61.96 66.07">
  <defs>
    <style>
      .cls-1 {
        fill: #f4bb41;
      }

      .cls-1, .cls-2 {
        stroke: #2f3630;
        stroke-linecap: round;
        stroke-linejoin: round;
        stroke-width: 2px;
      }

      .cls-2 {
        fill: #e786a7;
      }
    </style>
  </defs>
  <g id="flor2">
    <path class="cls-2" d="M27.57,27.93S16.98,1.39,29.12,1c12.47-.4,5.6,24.46,3.48,27.94s-5.03-1.02-5.03-1.02Z"/>
    <path class="cls-2" d="M32.45,27.59s15.25-24.16,22.7-14.56c7.65,9.86-16.5,18.91-20.57,19.23-4.06.32-2.13-4.67-2.13-4.67Z"/>
    <path class="cls-2" d="M34.88,32.38s28.2-4.61,25.95,7.33-25.1.19-28.03-2.64c-2.93-2.83,2.08-4.69,2.08-4.69Z"/>
    <path class="cls-2" d="M32.69,38.7s6.09,27.91-5.95,26.3c-12.37-1.66-1.52-25.05,1.15-28.13,2.67-3.08,4.8,1.83,4.8,1.83Z"/>
    <path class="cls-2" d="M26.67,35.75S7.66,57.08,1.89,46.39c-5.93-10.98,19.38-15.94,23.44-15.59s1.34,4.96,1.34,4.96Z"/>
    <path class="cls-2" d="M23.07,30.92S-3.89,21.47,3.8,12.06c7.9-9.66,22.12,11.85,23.35,15.73s-4.07,3.13-4.07,3.13Z"/>
    <circle class="cls-1" cx="30.47" cy="32.42" r="7.55"/>
  </g>
</svg>