<?xml version="1.0" encoding="UTF-8"?>
<svg id="Layer_1" data-name="Layer 1" xmlns="http://www.w3.org/2000/svg" viewBox="0 0 687.46 298.48">
  <defs>
    <style>
      .cls-1 {
        fill: #3171a0;
      }

      .cls-1, .cls-2, .cls-3 {
        stroke: #2f3630;
        stroke-linecap: round;
        stroke-linejoin: round;
        stroke-width: 2px;
      }

      .cls-2, .cls-3 {
        fill: none;
      }

      .cls-3 {
        stroke-dasharray: 6.17 10.29;
      }
    </style>
  </defs>
  <g id="ticket">
    <path class="cls-1" d="M686.46,23.3V1H225.25s0,.02,0,.03c0,12.39-10.04,22.44-22.43,22.44s-22.44-10.04-22.44-22.44c0,0,0-.02,0-.03H1v22.52c6.32,1.09,11.13,6.59,11.13,13.23s-4.81,12.13-11.13,13.23v18.55c6.32,1.1,11.13,6.59,11.13,13.23s-4.81,12.13-11.13,13.23v18.55c6.32,1.09,11.13,6.59,11.13,13.23s-4.81,12.13-11.13,13.23v18.55c6.32,1.1,11.13,6.59,11.13,13.23s-4.81,12.13-11.13,13.23v18.55c6.32,1.09,11.13,6.59,11.13,13.23s-4.81,12.13-11.13,13.23v18.55c6.32,1.1,11.13,6.59,11.13,13.23s-4.81,12.13-11.13,13.23v22.52h179.39c0-.09,0-.17,0-.26,0-12.39,10.04-22.43,22.44-22.43s22.43,10.04,22.43,22.43c0,.09,0,.17,0,.26h461.21v-22.3c-7.42,0-13.44-6.02-13.44-13.44s6.02-13.44,13.44-13.44v-18.12c-7.42,0-13.44-6.02-13.44-13.44s6.02-13.44,13.44-13.44v-18.12c-7.42,0-13.44-6.02-13.44-13.44s6.02-13.44,13.44-13.44v-18.12c-7.42,0-13.44-6.02-13.44-13.44s6.02-13.44,13.44-13.44v-18.12c-7.42,0-13.44-6.02-13.44-13.44s6.02-13.44,13.44-13.44v-18.12c-7.42,0-13.44-6.02-13.44-13.44s6.02-13.44,13.44-13.44Z"/>
    <g>
      <line class="cls-2" x1="202.81" y1="25.81" x2="202.81" y2="28.81"/>
      <line class="cls-3" x1="202.81" y1="39.1" x2="202.81" y2="264.4"/>
      <line class="cls-2" x1="202.81" y1="269.54" x2="202.81" y2="272.54"/>
    </g>
  </g>
</svg>