<?xml version="1.0" encoding="UTF-8"?>
<svg id="Layer_1" data-name="Layer 1" xmlns="http://www.w3.org/2000/svg" viewBox="0 0 164.97 113.22">
  <defs>
    <style>
      .cls-1 {
        fill: none;
      }

      .cls-2 {
        fill: #d9514a;
      }

      .cls-2, .cls-3, .cls-4 {
        stroke: #2f3630;
        stroke-linecap: round;
        stroke-linejoin: round;
        stroke-width: 2px;
      }

      .cls-3 {
        fill: #fbe7d9;
      }

      .cls-4 {
        fill: #f4bb41;
      }
    </style>
  </defs>
  <g id="ticket">
    <g id="hongos">
      <path class="cls-3" d="M153.47,54.34c-3.03,3.03-14.8-3.82-26.28-15.3-11.48-11.48-18.33-23.25-15.3-26.28,3.03-3.03,17.73,2.11,29.21,13.59,11.48,11.48,15.4,24.96,12.37,27.99Z"/>
      <path class="cls-2" d="M111.92,12.1s-4.62-2.05,17.51-7.98c25.99-6.96,32.05-2.32,33.53,14.55s-.41,34.45-8.44,34.8c-1.94.08-5.91-34.13-42.6-41.36Z"/>
      <path class="cls-4" d="M148.62,49.98c-1.95,1.95-8.89-2.69-18.95-12.75-10.06-10.06-16.63-19.79-14.68-21.75,0,0,12.13,4.2,21.75,14.68,9.09,9.91,11.88,19.82,11.88,19.82Z"/>
      <path class="cls-4" d="M131.74,7.21c2.98,1.86,5.7,4.14,8.06,6.74.28-1.59-.03-3.27-.85-4.65.21-.3.66-.26,1-.12s.68.34,1.04.26c.3-.07.53-.32.81-.45.78-.34,1.92.33,2.44-.35.6-.8-.81-1.77-.69-2.76.03-.25.16-.48.18-.74.05-.62-.55-1.07-1.08-1.4-.82-.51-1.65-1.02-2.47-1.52-.27-.17-.55-.34-.87-.37-.57-.06-1.08.35-1.54.69-2.17,1.61-4.98,2.33-7.66,1.97"/>
      <path class="cls-4" d="M161.39,22.11c-2.04-.53-3.97-1.42-5.7-2.63-.74-.52-1.49-1.15-1.75-2.02.81-.05,1.61-.09,2.42-.14.18-.01.4-.04.47-.21.08-.18-.06-.38-.2-.53-.81-.87-1.63-1.73-2.44-2.6-.13-.14-.28-.3-.31-.49-.03-.17.04-.34.1-.5.12-.31.24-.61.36-.92.1-.25.21-.51.43-.66.18-.12.41-.14.63-.13.62.03,1.2.29,1.76.54.9.4,1.79.8,2.69,1.2.25.11.51.23.71.42.22.22.34.51.46.8.28.68.55,1.36.83,2.04.52,1.27,1.05,2.61.9,3.98"/>
      <path class="cls-4" d="M161.6,41.24c-1.13-.99-2.15-2.11-3.03-3.32-.05-.07-.11-.15-.13-.24-.05-.26.22-.47.48-.51s.53-.01.77-.12c.45-.2.55-.79.62-1.28s.27-1.08.77-1.15c.3-.04.59.14.82.34,1.94,1.66,2.26,4.54,1.98,7.08"/>
      <path class="cls-4" d="M113.14,10.69c1.02-.66,2.17-1.12,3.37-1.34.58.49.1,1.6.65,2.11.34.31.87.23,1.32.11,1.17-.3,2.32-.64,3.47-1.02.26.31.38.72.33,1.12.73-.2,1.47-.4,2.2-.61l-1,3.45c.6.46,1.48-.06,2.21.12.96.25,1.48,1.67,2.46,1.51.32-.05.63-.27.94-.18.56.18.35,1,.37,1.59.01.46.24.89.52,1.26,1.24,1.6,3.5,2.12,5.49,1.79s3.8-1.34,5.56-2.34c.23,1.84-2.74,3.24-1.96,4.92.3.65,1.05.93,1.62,1.36s.97,1.35.42,1.81c.8.07,1.6.14,2.4.21-.35.76-.71,1.51-1.06,2.27-.09.2-.21.42-.42.47-.19.05-.37-.05-.54-.14-1.94-1.13-3.59-2.67-5.3-4.12-6.82-5.78-14.81-10.19-23.34-12.89"/>
      <path class="cls-3" d="M157.37,79.47c-.3,2.23-9.68,2.8-20.95,1.28s-21.01-5.06-20.71-7.29,17.4-2.22,22.95-1.63c8.71.93,19.02,5.4,18.72,7.63Z"/>
      <path class="cls-2" d="M115.71,73.47c-3.39-3.86,2.63-26.91,24.98-26.14,19.64.67,20.03,32.05,17.18,31.1-1.82-.61-17.36-12.42-42.16-4.96Z"/>
      <path class="cls-4" d="M152.23,78.43c-.13,1.19-6.21,1.05-15.44.08-9.23-.97-15.55-2.59-15.43-3.79.13-1.19,8.75-1.06,15.88-.53,9.26.68,15.11,3.05,14.99,4.24Z"/>
      <path class="cls-4" d="M158.69,69.94c-.12,1.77-5.6-.34-7.36-.5-.39-.04-.82-.09-1.1-.36-.27-.26-.35-.65-.57-.95-.69-.93-2.34-.58-3.05-1.5-.36-.47-.35-1.16-.72-1.63-.24-.31-.61-.49-.93-.72-.76-.56-1.24-1.53-1.12-2.47s.89-1.79,1.83-1.9c.38-.05.76.02,1.13-.09.34-.1.63-.34.93-.52,1.24-.74,2.8-.52,4.21-.23,1.22.25,2.55.61,3.28,1.62.76,1.05.66,2.52,1.29,3.65.44.78,1.19,1.33,1.79,2,0,0,.43,3.01.39,3.6Z"/>
      <ellipse class="cls-3" cx="24.36" cy="63.3" rx="23.36" ry="4.21"/>
      <path class="cls-3" d="M93.02,36.61c0,4.67-13.22,7.77-28.79,7.77s-28.2-3.79-28.2-8.46,12.62-8.46,28.2-8.46,28.79,4.48,28.79,9.15Z"/>
      <ellipse class="cls-4" cx="24.22" cy="63.67" rx="16.16" ry="2.35"/>
      <path class="cls-2" d="M1.28,61.79S6.5,29.59,25.47,28.42c18.98-1.18,20.97,27.08,22.02,33.35,0,0-22.55-6.65-46.21.03Z"/>
      <path class="cls-3" d="M106.77,93.81c-2.96,1.52-5.67,3.53-7.86,6.03-2.58,2.94-5.01,7.14-1.84,10.41,5.44,5.59,23.72-1.51,30.52-11.18,6.8-9.67,13.35-21.59,12.9-23.71-.33-1.55-5.25-1.14-6.96-.95-.61.07-.89,1.6-1.01,2.2-.6,2.98-2.86,8.35-14.48,12.98-1.7.68-6.38,1.71-11.26,4.22Z"/>
      <path class="cls-2" d="M35.79,36.61s-4.66-5.38,5.26-17.8C50.96,6.38,54.43,1.84,61.36,1.84c8.6,0,24.13,7.77,29.51,20.07s2.15,14.7,2.15,14.7c0,0-4.08-10.71-32.79-8.96-24.58,1.49-24.44,8.96-24.44,8.96Z"/>
      <ellipse class="cls-4" cx="64.54" cy="36.04" rx="22.46" ry="5.7"/>
      <path class="cls-4" d="M6.16,49.74l2.36-.25c-.08.7-.81,1.18-.91,1.88-.11.76.61,1.44,1.37,1.54s1.51-.25,2.16-.66c1.93-1.21,3.6-3.13,5.87-3.29.52-.04,1.08.02,1.55-.22s.76-.93.37-1.29c-.14-.13-.33-.18-.52-.23-1.54-.4-3.08-.8-4.62-1.19.62-1.83,1.53-3.56,2.68-5.11-1.38-.36-2.75-.72-4.13-1.08-.53-.14-1.09-.28-1.61-.12-.48.15-.89.53-1.39.53-.28,2.51-1.52,4.9-3.41,6.58"/>
      <path class="cls-4" d="M35.96,34.26c-2.2-.14-4.42.08-6.55.62.82.36,1.78.96,1.67,1.85-.05.42-.34.77-.62,1.09-.67.76-1.34,1.53-2.01,2.29,1.14.25,2.19.88,2.95,1.77.35.41.65.87,1.09,1.17.6.41,1.37.47,2.09.51,2.03.11,4.4,0,5.62-1.62.83-1.11.85-2.66.41-3.97s-1.3-2.43-2.15-3.53"/>
      <path class="cls-4" d="M39.9,29.93c0-.61-.35-2.61.16-3.07.62-.55,1.5.39,2.08.62.86.34,1.87-.06,2.51-.73s.98-1.56,1.31-2.42c.81.94,2.13,1.42,3.35,1.22s2.33-1.06,2.8-2.21c.2.69.85,1.22,1.56,1.28,1.52.12,2.22-3.09,3.37-.71.37.77.75,1.54,1.12,2.31.65,1.34-2.36,1.43-3.26,1.64-1.71.39-3.42.76-5.13,1.11-3.34.68-6.69,1.28-10.06,1.81"/>
      <path class="cls-4" d="M48.29,9.9c1.82-1.19,4.95-1.21,6.99-.58,3.29,1.01-2.01,3.11-.42,4.64,1.01.97,3.03.4,4.14,1.44.61.57.76,1.55.13,2.17-2.2,2.17-7.84,1.53-10.5.85-.82-.21-5.2-2.61-5.78-1.87,1.42-1.81,2.77-3.65,4.18-5.47.38-.49.81-.88,1.26-1.18Z"/>
      <path class="cls-4" d="M85.84,14.28c-1.79.64-6.3,1.69-8.13,2.06-.95.19-1.67.68-2.18,1.51-.64,1.07-1.74.99-2.84,1.06-1.54.1.63,1.89,1.14,2.09,1.27.49,2.84.48,4.18.34.89-.09,1.84-.27,2.66.09,1.09.48,1.71,1.83,2.89,2.03,1.36.23,2.39-1.22,3.69-1.69.56-.2,1.17-.22,1.73-.42s1.1-.69,1.06-1.28c-.02-.3-.8-1.47-.96-1.72-1.21-1.82-1.26-1.65-3.24-4.07"/>
      <path class="cls-4" d="M64.22,27.46s6.48-.15,11.31.56c.14.02-.02-1.92-.01-2.04.11-1.31-.5-2.58-1.22-3.69-.1-.16-.23-.33-.42-.35-.2-.02-.37.14-.51.28-.67.66-1.48,1.22-2.39,1.46s-1.94.15-2.71-.39c-.26-.18-.51-.42-.83-.43-.61-.01-.86.77-.93,1.38,0,0-2.29,2.88-2.28,3.22Z"/>
      <path class="cls-4" d="M67.18,12.51c.93.54,1.73-1.63,2.8-1.79,2.48-.37,2.76-4.47.29-4.08-.62.1-1.17.45-1.79.58-1.18.25-3.53-.69-3.79.75s1.11,3.74,2.48,4.55Z"/>
      <path class="cls-4" d="M119.72,57.29c2.12,0,7.88.8,10,.8.21,0,.43,0,.6-.12.19-.13.26-.37.33-.59.17-.61.35-1.22.52-1.83-.54.28-1.26-.16-1.37-.76s.26-1.21.78-1.52c.34-.2.75-.31,1.06-.55s.5-.74.24-1.04c-.13-.16-.35-.22-.55-.27-1.99-.48-4.12-.59-6.04.09"/>
      <path class="cls-4" d="M115.41,71.08c.37-1.07,2.47-1.72,3.49-1.24.76.36,1.41,1.2,2.22,1,1.15-.29,1.46-2.47,2.59-2.1.24.08.42.27.64.37.35.17.77.12,1.15.17,1.17.16,2.04,1.47,1.74,2.61-4.51.58-5.74.69-10.31,1.57"/>
      <path class="cls-3" d="M22.1,63.05s3.48-1.33,9.47-.38c0,0-.74,19.3,22.8,27.23,20.05,6.75,28.2,10.28,33.73,16.82,2.43,2.87-52.4,21.98-65.99-43.66Z"/>
      <path class="cls-3" d="M92.93,111.48s-16.74.12-4.77-23.35c12.4-24.31,17.99-45,46.73-59.76l4.65,5.17s-24.39,15.09-34.55,42.87c-10.16,27.78,7.94,26.41,5.26,30.87-3.27,5.44-17.32,4.2-17.32,4.2Z"/>
      <path class="cls-3" d="M58.87,35.92s-10.28,53.72,10.24,72.05c4.59,4.1,11.22,5.24,16.72,2.5,2.76-1.38,4.89-3.62,3.7-7.27-2.71-8.33-21.91-18.91-22.74-43.09-.48-13.82-.26-18.71.82-23.5.55-2.44-8.32-3.16-8.74-.69Z"/>
      <g>
        <path class="cls-1" d="M40.38,67.01c.28.47.56.95.84,1.42.01,0,.03,0,.04,0,.29-.51.55-1.03.82-1.55-.57.04-1.13.08-1.71.14Z"/>
        <path class="cls-4" d="M15.68,56.71c-.43.21-.87.42-1.3.63-.29-.29-.58-.58-.87-.87-.97.84-2.08,1.69-3.37,1.71-1.3.01-2.48-.85-3.78-.95-1.3-.1-2.76,1.48-1.81,2.37l-.23,1.35c4.3-1.09,8.55-1.76,12.61-2.12l-1.26-2.12Z"/>
        <path class="cls-4" d="M42.55,57.26c-1.17.08-2.27-.5-3.31-1.05-.66-.35-1.31-.71-1.97-1.06-.11,1.01-1.07,1.86-2.09,1.85-1.02-.02-1.95-.9-2.02-1.92-2.24,1.27-5.34,1.79-7.2,0-1.66-1.6-1.67-4.47-3.47-5.92-.95,3.3-2.25,6.49-3.84,9.53,12.71-.89,23.37,1.12,27.82,2.16-.59-1.95-1.18-3.9-1.77-5.84.21,1.15-.98,2.18-2.15,2.25Z"/>
      </g>
    </g>
  </g>
</svg>